<?xml version="1.0" encoding="UTF-8"?>
<svg width="22px" height="18px" viewBox="0 0 22 18" version="1.1" xmlns="http://www.w3.org/2000/svg" xmlns:xlink="http://www.w3.org/1999/xlink">
    <title>logo-am</title>
    <g id="-Metro-UI" stroke="none" stroke-width="1" fill="none" fill-rule="evenodd">
        <g id="Metro_EN_1920_Search_ROC" transform="translate(-834.000000, -28.000000)" fill="#FFFFFF" fill-rule="nonzero">
            <g id="logo-am" transform="translate(834.000000, 28.000000)">
                <path d="M1.08335772,4.14595942 C1.09913477,4.1506586 1.2227217,4.18867925 1.45061248,4.25745817 C1.18327906,4.33948024 0.876503008,4.52146671 0.784470192,4.60519758 C0.604348824,4.76496974 0.943555488,4.96489854 0.943555488,4.96489854 C1.03252096,5.02566936 1.12515967,5.08116316 1.22096869,5.13107868 C2.40731551,5.76717693 6.84285898,8.27312211 7.99546044,8.91605554 C7.99546044,8.91605554 5.7980674,10.2634389 5.61619302,10.3510146 C4.97941359,10.6645781 4.88256001,10.1574938 4.85933268,10.1476682 C4.82339605,10.138697 4.49689868,9.11641153 4.40661887,9.09077964 C4.31633906,9.06514774 3.94514004,9.34709861 3.88597609,9.49362763 C3.85661324,9.57052332 3.77641321,10.647063 3.73521757,11.1302243 C3.20931576,11.1110004 2.70313528,11.0917764 2.61460847,11.0875044 C2.49630217,11.0832024 2.37894461,11.1095905 2.27452531,11.1639729 C2.20720345,11.2008132 2.14675054,11.2484757 2.09571869,11.3049484 C2.03655474,11.3690281 2.05627606,11.4698469 2.16627718,11.5031684 C2.2157996,11.5142755 3.1457693,11.7594874 3.67605362,11.896618 C3.67342411,11.9437807 3.6723723,12.0058612 3.67195158,12.0479795 L3.6716711,12.0952652 C3.66159132,12.3849057 3.82549738,12.5446778 4.03103733,12.5784265 C6.48612226,12.8159487 8.91403559,11.9658241 12.528734,10.2228551 C14.8295544,10.4086864 19.3010345,10.7354931 19.3010345,10.7354931 C19.3010345,10.7354931 19.648376,10.6242803 20.0345378,10.49718 L20.1512424,10.4586686 C20.4023605,10.3753649 20.6569846,10.2877892 20.8322852,10.2266999 C20.9191536,10.2001005 20.9995348,10.1564898 21.0685028,10.0985404 C21.2376679,10.1468138 21.3393422,10.1754361 21.349422,10.1801353 C21.5071926,10.2390886 21.4230483,10.3753649 21.1508941,10.4727661 L20.1188118,10.843147 C20.0539682,11.4715102 19.9262681,12.0921902 19.737533,12.6963332 C19.5808438,13.1695165 19.3963265,13.6335101 19.1848978,14.0860093 C13.027026,12.3460306 8.04147685,13.9266643 4.47542436,18 C2.55281501,16.7692417 0,14.0074048 0,9.86486294 L0,9.83111428 C0,9.74012104 0.00219125752,9.64699181 0.00482076654,9.55599858 C0.0494903308,8.09261277 0.428585937,6.6573833 1.11447357,5.35493058 C0.867737978,5.21181915 0.231396794,4.83673905 0.231396794,4.83673905 C0.231396794,4.83673905 -0.126216433,4.66585974 0.0525901805,4.50736917 C0.193707165,4.37920968 0.713473449,4.03531506 1.08335772,4.14595942 Z M15.513665,6.90950516 C15.4558158,7.54090424 14.9207107,8.50252759 13.3430053,9.42997508 C10.7525007,10.9537914 6.47648073,12.6822357 4.16864831,12.3071556 C4.04462313,12.2870773 3.90832691,12.1956568 3.92804823,11.9551442 C4.05619582,11.9842199 4.18739728,11.9985576 4.31896857,11.997864 C5.21387814,12.0059808 7.16760335,11.2032752 8.42976768,10.6991812 C13.5253179,8.66443574 14.7392746,7.99159843 15.513665,6.90950516 Z M7.72932588,9.86185005 L7.74868541,9.86964104 C7.76068427,9.8773167 7.76893852,9.88903021 7.77222231,9.90214386 L7.77326693,9.92253471 L7.77326693,10.2369527 C7.77239871,10.2777287 7.75425869,10.3156543 7.72422983,10.3424007 L7.69043739,10.3651121 L7.58306577,10.4168031 C7.5644907,10.4277784 7.54108507,10.4273143 7.52298325,10.4156117 C7.51091537,10.40781 7.50265089,10.3959484 7.49941425,10.3827001 L7.49848323,10.3621218 L7.49848323,10.0472766 C7.49993533,10.0111552 7.5145395,9.97738214 7.53872741,9.95144941 L7.58175102,9.91911712 L7.68824614,9.86828053 L7.70846935,9.86140073 L7.70846935,9.86140073 L7.72932588,9.86185005 Z M8.21789266,9.61878488 L8.23720402,9.62692344 C8.24913418,9.63479743 8.25729843,9.646632 8.26051433,9.65982655 L8.2614791,9.68031328 L8.2614791,9.99387682 C8.26020604,10.0299738 8.24571869,10.0637653 8.22160096,10.0897062 L8.17864957,10.1220363 L8.0699632,10.1733001 C8.05177019,10.184968 8.02821486,10.1850234 8.00996431,10.1734412 C7.99779728,10.1657197 7.98952854,10.1538037 7.98643002,10.1405136 L7.98581891,10.1199003 L7.98581891,9.80633677 C7.98724754,9.7656383 8.00552044,9.72788913 8.03545578,9.70106472 L8.06908669,9.67817729 L8.17864957,9.6260591 L8.19759676,9.61842317 L8.19759676,9.61842317 L8.21789266,9.61878488 Z M9.00344152,9.29604458 C9.01549779,9.30387938 9.02369965,9.315797 9.02682199,9.32907198 L9.02754273,9.3496618 L9.02754273,9.66194375 C9.02618347,9.70266307 9.00791262,9.74044099 8.97794642,9.76724909 L8.94427495,9.79010324 L8.83690333,9.84136703 C8.81824476,9.85247809 8.7946862,9.85210521 8.77640753,9.84040952 C8.76422175,9.83261239 8.75583925,9.82071495 8.75250466,9.80739581 L8.75144428,9.78668565 L8.75144428,9.47312211 C8.75320521,9.4322582 8.77183785,9.39447708 8.80209255,9.36773303 L8.83602683,9.34496262 L8.94427495,9.29369883 L8.94339844,9.29498042 C8.96190916,9.28387681 8.98535712,9.28429239 9.00344152,9.29604458 Z M10.0872349,0 C15.6017535,0 20.0789309,4.3241011 20.173155,9.69270203 C19.5898422,9.52652189 17.4424099,9.16468494 16.609732,8.92374511 C16.8323638,8.71014596 16.9068665,8.31156995 16.7723233,7.91683873 C16.6136763,7.45503738 16.2249472,7.15813457 15.8677722,7.20640797 C15.8853412,7.10693487 15.8807073,7.00493897 15.8541864,6.90736917 C15.8252618,6.80142399 15.7744246,6.56945532 15.4772901,6.5754361 C15.1801556,6.58141687 14.1073159,6.62029192 14.0669968,6.61815593 C14.0266776,6.61601994 13.3517703,6.47803489 12.8578609,6.60149519 C12.7163056,6.63737985 12.1316781,6.91975792 11.4164517,7.29013884 C11.4062036,7.28287358 11.3950011,7.27698257 11.3831446,7.27262371 C11.3831446,7.27262371 10.8936176,7.13421146 10.1236097,6.91164115 C10.3773574,6.60448558 10.4531749,6.0999644 10.2813803,5.59458882 C10.043848,4.89825561 9.42328384,4.4740477 8.89562903,4.64620862 C8.50120268,4.7743681 8.27112064,5.20156639 8.27813266,5.6988252 C7.89948336,5.87312211 7.5331051,6.06279815 7.4309925,6.13627625 C7.4309925,6.13627625 1.86870441,4.26087576 1.82400276,4.23908864 L1.80428144,4.23225347 C3.6282842,1.6737629 6.6566021,0 10.0872349,0 Z M9.51083143,9.07345141 L9.51750791,9.10615878 L9.51750791,9.41972232 C9.51614433,9.46035191 9.49798997,9.49807152 9.46818142,9.52493345 L9.43467838,9.54788181 L9.32643026,9.59829121 C9.30811418,9.60941844 9.28485002,9.60922105 9.26673542,9.5977847 C9.25465903,9.59016046 9.24632281,9.57845751 9.24297414,9.56532684 L9.24184772,9.54489142 L9.24184772,9.23132787 C9.24320698,9.19060856 9.26147783,9.15283064 9.29144403,9.12602254 L9.3251155,9.10316839 L9.43467838,9.050623 L9.43336363,9.050623 C9.46787593,9.03588466 9.49795094,9.04613742 9.51083143,9.07345141 Z M10.1865279,8.73088881 L10.2063506,8.7388048 C10.2186323,8.7466633 10.2270087,8.75870956 10.2302128,8.77215454 L10.2309814,9.10658597 C10.2294101,9.14267105 10.2147892,9.17639657 10.1906411,9.20234139 L10.1477136,9.23474546 L10.040342,9.28600926 C10.0216202,9.29848616 9.99706149,9.29884978 9.9779596,9.28693291 C9.965225,9.27898832 9.95655903,9.26661097 9.9533171,9.2527836 L9.95269166,9.23132787 L9.95269166,8.91690993 C9.9542497,8.87607297 9.97275989,8.83826425 10.0029491,8.81151532 L10.0368359,8.78875044 L10.1442076,8.73748665 L10.16508,8.73047511 L10.16508,8.73047511 L10.1865279,8.73088881 Z M15.72797,8.18298327 L15.7370899,8.22283459 L15.7490061,8.26415094 C15.8164968,8.46749733 15.9979329,8.59138483 16.1521974,8.54012104 C16.1812998,8.53148827 16.2081885,8.51692685 16.2310827,8.49740121 C16.1368586,8.66101816 14.6963259,9.25396938 14.2357236,9.28942684 C14.4758854,9.13264507 14.9864484,8.71484514 15.229678,8.41580634 C15.402268,8.35215869 15.5689703,8.27426834 15.72797,8.18298327 Z M10.711216,8.51851415 L10.7178788,8.5512282 L10.7178788,8.86479174 C10.7162101,8.90032901 10.7017087,8.93350494 10.6778527,8.95899948 L10.6354875,8.99081524 L10.5272394,9.04336063 C10.5087287,9.05446424 10.4852807,9.05404866 10.4671963,9.04229646 C10.45514,9.03446167 10.4469382,9.02254405 10.4438158,9.00926907 L10.4430951,8.6751157 C10.4445237,8.63441722 10.4627966,8.59666805 10.492732,8.56984364 L10.5263629,8.54695621 L10.6354875,8.49441082 L10.634611,8.49526522 C10.6684659,8.48084728 10.6983766,8.49118014 10.711216,8.51851415 Z M11.4060995,8.12988945 L11.4257248,8.13754284 C11.4379196,8.14516288 11.4463737,8.15690249 11.4498196,8.1701047 L11.4510735,8.19067284 L11.4510735,8.50423638 C11.4499427,8.54520246 11.4314433,8.58318965 11.4010645,8.60983748 L11.3669293,8.63239587 L11.2595576,8.68494126 C11.2408592,8.69581632 11.217394,8.69516167 11.1993643,8.68326195 C11.1873445,8.6753288 11.1791882,8.66335334 11.1760982,8.65004025 L11.1754134,8.62940548 L11.1754134,8.31456034 C11.1769846,8.27847527 11.1916055,8.24474975 11.2157537,8.21880493 L11.2586811,8.18640085 L11.3669293,8.13599146 L11.3857008,8.12941641 L11.3857008,8.12941641 L11.4060995,8.12988945 Z M11.9155813,7.89464748 C11.9274281,7.90246643 11.9355999,7.91416925 11.9389342,7.92725168 L11.9401622,7.94759701 L11.9401622,8.26116056 C11.9390077,8.30185232 11.9208596,8.33965854 11.890958,8.36647162 L11.8573327,8.38932004 L11.7499611,8.44058384 C11.7317118,8.45183904 11.7084064,8.45169154 11.6903086,8.44020629 C11.6782434,8.43254946 11.6699689,8.42079048 11.6667338,8.40763246 L11.6658168,8.38718405 L11.6658168,8.07362051 C11.6670333,8.03766283 11.6813293,8.0039549 11.7052061,7.97796761 L11.7477698,7.94546102 L11.8573327,7.89291563 L11.8560179,7.89206123 C11.8747875,7.88191937 11.8978111,7.88291906 11.9155813,7.89464748 Z M16.4523997,7.96383054 C16.4927189,8.08387326 16.2687723,8.32139551 16.1767395,8.35129939 L16.1767395,8.35215379 C16.0860215,8.38205767 15.9917974,8.30174439 15.949287,8.18127447 C15.9067766,8.06080456 15.9361394,7.94332503 16.027734,7.91470274 C16.1193286,7.88608046 16.4120806,7.84378782 16.4523997,7.96383054 Z M8.86626618,5.93292987 C8.87338601,5.97397928 8.88334237,6.01451299 8.89606728,6.05425418 C8.99642688,6.34859381 9.25937778,6.52801709 9.48288605,6.45539338 L9.54387409,6.42868371 L9.54387409,6.42868371 L9.59770794,6.39003204 C9.46184997,6.62883588 7.37884057,7.48835885 6.71226004,7.53876824 C7.12816071,7.25254539 7.52565483,6.64165183 7.6198789,6.34261303 C7.75986895,6.38545492 8.0615917,6.36273058 8.71031636,6.02235739 L8.86626618,5.93805625 L8.86626618,5.93292987 Z M13.2860729,6.75920313 L13.4196993,6.76041296 C13.618325,6.77047789 13.816258,6.79087001 14.0126536,6.82150231 C13.8224524,6.84286223 13.1913703,7.02698469 12.7531188,7.16966892 C12.6825603,7.19273763 12.7702106,6.86550374 12.7702106,6.86550374 C12.7702106,6.86550374 12.881842,6.78730936 13.1697277,6.76478063 L13.2860729,6.75920313 Z M9.86504136,5.64841581 C9.91841065,5.80524505 9.6656748,6.09270203 9.51651298,6.1846487 L9.46623249,6.20932716 C9.33563354,6.2511926 9.19977557,6.13713065 9.13973512,5.96240655 C9.07969466,5.78768245 9.1200138,5.62064792 9.25148925,5.57792809 C9.3829647,5.53520826 9.8050009,5.47198291 9.86504136,5.64841581 Z" id="Combined-Shape"></path>
            </g>
        </g>
    </g>
</svg>