<?xml version="1.0" encoding="UTF-8"?>
<svg width="68px" height="20px" viewBox="0 0 68 20" version="1.1" xmlns="http://www.w3.org/2000/svg" xmlns:xlink="http://www.w3.org/1999/xlink">
    <title>924DF615-C206-4D3D-A6DF-2DB8DACCD2CA</title>
    <g id="New-UI" stroke="none" stroke-width="1" fill="none" fill-rule="evenodd">
        <g id="COLOUR-PALEETES-FOR-BUTTONS" transform="translate(-97.000000, -68.000000)" fill-rule="nonzero">
            <g id="BeWell_Heart_Horizontal-Copy-2" transform="translate(97.000000, 68.000000)">
                <path d="M57.4182316,14.0262125 C58.8997457,12.5386092 59.8159233,10.4850154 59.8159233,8.21604474 C59.8159233,3.67810335 56.1528756,0 51.6335094,0 C47.1141432,0 43.4510955,3.67810335 43.4510955,8.21604474 C43.4510955,10.4850154 44.3672731,12.5402788 45.8487872,14.0262125 L51.6335094,19.8363803 L51.6335094,19.8363803 C51.6335094,19.8363803 51.6335094,19.8363803 51.6335094,19.8363803 L51.6335094,17.5490442 L46.9861111,12.8825445 C45.7972418,11.6887887 45.0606416,10.0375657 45.0606416,8.21604474 C45.0606416,4.57133317 48.0037167,1.61616162 51.6335094,1.61616162 C55.263302,1.61616162 58.2063772,4.57133317 58.2063772,8.21604474 C58.2063772,10.0392353 57.469777,11.6887887 56.2809077,12.8825445 L53.2447183,15.931213 L53.2447183,18.2185491 L53.2447183,18.2185491 L57.4198944,14.0262125" id="Path" fill="#6ABF4B"></path>
                <path d="M59.8159233,3.40262125 C59.3187598,3.40262125 58.82991,3.44770014 58.3576878,3.53284915 C58.6852504,4.00534268 58.9629304,4.51289757 59.1874022,5.05050505 C59.3952465,5.03046999 59.6047535,5.02045246 59.8175861,5.02045246 C63.4473787,5.02045246 66.3904538,7.97562401 66.3904538,11.6203356 C66.3904538,15.2650472 63.4473787,18.2202187 59.8175861,18.2202187 L53.2447183,18.2202187 L53.2447183,11.6203356 C53.2447183,8.76200017 55.053795,6.3294098 57.584507,5.41280574 C57.3500587,4.91025962 57.0540884,4.44277486 56.7065728,4.02036898 C53.7302426,5.24918608 51.6351721,8.18933133 51.6351721,11.6220052 L51.6351721,19.8380499 L59.8175861,19.8380499 C64.3369523,19.8380499 68,16.1599466 68,11.6220052 C68,7.08406378 64.3369523,3.40596043 59.8175861,3.40596043 L59.8159233,3.40262125 Z" id="Path" fill="#00AFAA"></path>
                <path d="M9.16842723,14.9828867 C9.51594288,13.8676016 10.5119327,13.1329827 11.7157668,13.1329827 C12.844777,13.1329827 13.8873239,13.8609233 14.2232003,14.9828867 L9.16842723,14.9828867 L9.16842723,14.9828867 Z M15.2823748,16.4370983 C15.5849961,16.4370983 15.8011541,16.2100342 15.8576878,16.0013357 C15.9142214,15.7876283 15.9025822,15.4987895 15.849374,15.1431672 C15.551741,13.1313131 13.8839984,11.5836046 11.7024648,11.5836046 C9.34135368,11.5836046 7.48904538,13.4351782 7.48571987,15.7993155 C7.48904538,18.1935053 9.29645931,20 11.6841745,20 C11.6991393,20 11.7141041,20 11.7274061,20 C13.1507238,20 14.4061033,19.3471909 15.1776213,18.2035228 C15.3023279,18.0181985 15.3156299,17.7777778 15.2108764,17.5790968 C15.1061228,17.3804157 14.9016041,17.2568662 14.6771322,17.2568662 L13.9438576,17.2568662 C13.9438576,17.2568662 13.7626174,17.488939 13.7626174,17.488939 L13.7626174,17.488939 C13.7626174,17.488939 13.7626174,17.488939 13.7626174,17.488939 C13.2804186,18.1083563 12.5488067,18.4489523 11.7024648,18.4489523 L11.6974765,18.4489523 C10.7430556,18.4573003 9.44943271,17.8328742 9.13849765,16.4354287 L15.2823748,16.4354287 L15.2823748,16.4370983 Z" id="Shape" fill="#6ABF4B"></path>
                <path d="M6.17214397,14.8359629 C5.83793036,14.4319225 5.44053208,14.1915018 5.23102504,14.0679522 C5.59350548,13.7473913 6.16881847,13.213123 6.16881847,12.0377327 C6.16881847,11.732198 6.11561033,10.9458219 5.62676056,10.2512731 C5.36903365,9.88563319 5.02816901,9.59846398 4.61081768,9.39644378 C4.1153169,9.15602304 3.50674883,9.03414308 2.801741,9.03414308 L0.603579812,9.03414308 C0.271028951,9.03414308 0,9.30461641 0,9.64020369 L0,19.8330412 L3.22075509,19.8330412 C3.91412363,19.8330412 4.52435446,19.7211787 5.03149452,19.4974539 C5.47212441,19.3054512 5.83959311,19.0282995 6.12558685,18.6760164 C6.73748044,17.9213624 6.80399061,17.0314717 6.80399061,16.6841973 C6.80399061,15.9629351 6.59115806,15.3401786 6.17048122,14.8326238 L6.17214397,14.8359629 Z M1.61120892,10.523416 L2.77347418,10.523416 C2.94307512,10.523416 3.39368153,10.523416 3.79773083,10.7120795 C4.30154538,10.9474914 4.55760955,11.3882628 4.55760955,12.024376 C4.55760955,12.2998581 4.50440141,12.6905418 4.25,12.9977461 C3.96899452,13.3383421 3.50176056,13.5103097 2.8599374,13.5103097 L1.61120892,13.5103097 L1.61120892,10.5217464 L1.61120892,10.523416 Z M4.82198748,17.7226814 C4.66735133,17.9130144 4.47114632,18.0616078 4.23836072,18.1651223 C3.96733177,18.2870023 3.64475743,18.348777 3.28061424,18.348777 L1.61287167,18.348777 L1.61287167,14.997913 L3.092723,14.997913 C3.39700704,14.997913 3.69297731,15.0045914 3.98894757,15.0847316 C4.34145149,15.1798982 4.61414319,15.3618833 4.82365023,15.6423742 C5.06308685,15.9629351 5.19444444,16.3352534 5.19444444,16.6875365 C5.19444444,16.8227732 5.16784038,17.2986059 4.82198748,17.7210118 L4.82198748,17.7226814 Z" id="Shape" fill="#6ABF4B"></path>
                <path d="M41.6503326,9.03748226 C41.9828834,9.03748226 42.2539124,9.30795559 42.2539124,9.64354287 L42.2539124,19.2303197 C42.2539124,19.5642374 41.9845462,19.8363803 41.6503326,19.8363803 L40.6427034,19.8363803 L40.6427034,9.03748226 L41.6503326,9.03748226 Z" id="Path" fill="#00AFAA"></path>
                <path d="M38.926741,9.03748226 C39.2592919,9.03748226 39.5303208,9.30795559 39.5303208,9.64354287 L39.5303208,19.2303197 C39.5303208,19.5642374 39.2609546,19.8363803 38.926741,19.8363803 L37.9191119,19.8363803 L37.9191119,9.03748226 L38.926741,9.03748226 Z" id="Path" fill="#00AFAA"></path>
                <path d="M30.3785211,14.9828867 C30.7260368,13.8676016 31.7220266,13.1329827 32.9258607,13.1329827 C34.0548709,13.1329827 35.0974178,13.8609233 35.4332942,14.9828867 L30.3785211,14.9828867 Z M36.4924687,16.4370983 C36.79509,16.4370983 37.011248,16.2100342 37.0677817,16.0013357 C37.1243153,15.7876283 37.1126761,15.4987895 37.0594679,15.1431672 C36.7618349,13.1313131 35.0940923,11.5836046 32.9125587,11.5836046 C30.5514476,11.5836046 28.6991393,13.4351782 28.6958138,15.7993155 C28.6991393,18.1935053 30.5065532,20 32.8942684,20 C32.9092332,20 32.924198,20 32.9375,20 C34.3608177,20 35.6161972,19.3471909 36.3877152,18.2035228 C36.5124218,18.0181985 36.5257238,17.7777778 36.4209703,17.5790968 C36.3162167,17.3804157 36.111698,17.2568662 35.8872261,17.2568662 L35.1539515,17.2568662 C35.1539515,17.2568662 34.9727113,17.488939 34.9727113,17.488939 L34.9727113,17.488939 C34.9727113,17.488939 34.9727113,17.488939 34.9727113,17.488939 C34.4905125,18.1083563 33.7589006,18.4489523 32.9125587,18.4489523 L32.9075704,18.4489523 C31.9531495,18.4573003 30.6595266,17.8328742 30.3485915,16.4354287 L36.4924687,16.4354287 L36.4924687,16.4370983 Z" id="Shape" fill="#00AFAA"></path>
                <path d="M29.2461854,9.27122464 C29.1347809,9.12263127 28.9618545,9.03581267 28.775626,9.03581267 L27.9309468,9.03581267 L25.8092723,16.5539694 L23.8821401,9.47157526 C23.8123044,9.21445864 23.5795188,9.03581267 23.3151408,9.03581267 L22.5935055,9.03581267 L20.5715962,16.5439519 L18.5746283,9.46656649 C18.5031299,9.21278905 18.272007,9.03748226 18.0092919,9.03748226 L16.8154343,9.03748226 L19.8815532,19.8363803 L20.8426252,19.8363803 C21.1086659,19.8363803 21.3414515,19.6577344 21.4112872,19.4006177 L23.1754695,12.855831 L24.9612676,19.4022873 C24.9612676,19.4022873 25.0793232,19.8363803 25.0793232,19.8363803 L26.0337441,19.8363803 C26.2964593,19.8363803 26.5275822,19.6610735 26.5990806,19.4089657 L29.3426252,9.79213624 C29.3941706,9.61349027 29.35759,9.4214876 29.2461854,9.27456382 L29.2461854,9.27122464 Z" id="Path" fill="#00AFAA"></path>
            </g>
        </g>
    </g>
</svg>