<?xml version="1.0" encoding="UTF-8"?>
<svg id="Layer_2" data-name="Layer 2" xmlns="http://www.w3.org/2000/svg" viewBox="0 0 724.41 340.51">
  <defs>
    <style>
      .cls-1 {
        fill: #fff;
      }

      .cls-2 {
        fill: #ffc629;
      }

      .cls-3 {
        fill: #001b71;
      }
    </style>
  </defs>
  <g id="Background">
    <ellipse class="cls-2" cx="362.2" cy="189.05" rx="362.2" ry="151.46"/>
    <ellipse class="cls-3" cx="363.49" cy="188.78" rx="342.19" ry="143.15"/>
    <path class="cls-3" d="m323.8,39.99c.42,8.61-2.63,16.78-5.72,22.73h91.7c.23-2.5.37-5.06.37-7.71,0-13.2-8.1-24.09-8.44-24.55-.82-1.09-1.99-1.87-3.31-2.2l-25.08-6.38v-12.66c0-5.09-4.14-9.23-9.23-9.23-2.8,0-5.32,1.26-7.01,3.23h-14.23c-4.94,0-9.04,3.68-9.71,8.44l-11.28-2.87c-2.47-.63-5.06.37-6.48,2.49-1.41,2.12-1.33,4.9.21,6.94.08.1,7.67,10.46,8.22,21.76Z"/>
  </g>
  <g id="Artwork">
    <g>
      <path class="cls-3" d="m686.04,96.69h-5.33v-2.74h13.63v2.74h-5.33v14.07h-2.98v-14.07Z"/>
      <path class="cls-3" d="m697.7,93.96h3.14l5.11,7.94,5.11-7.94h3.14v16.8h-2.95v-12.05l-5.3,7.92h-.1l-5.26-7.87v12h-2.9v-16.8Z"/>
    </g>
    <g>
      <path class="cls-1" d="m174.22,199.69l21.39,16.7c-8.93,13.53-23.69,23.67-43.95,25.42-31.14,2.69-55.98-18.58-57.11-57.79-1.13-39.3,24.94-63.04,54.13-63.04,16.79,0,33.94,8.7,43.74,23.09-8.61,6.11-12.94,8.74-21.57,15.2-5.91-8.07-12.32-11.83-22.15-11.83-13.84,0-23.37,12.87-23.53,33.82-.17,23.62,13.37,35.16,28.42,33.04,13.96-1.96,20.64-14.6,20.64-14.6Z"/>
      <path class="cls-1" d="m347.42,122.71c-12.8,0-25.6,0-38.4,0v100.53c13-.44,26-.82,39.01-.91,30.85.34,55.57-15.52,55.57-49.48,0-34.06-25.05-50.14-56.18-50.14Zm2.45,75.89c-4.63.02-6.96.04-11.55.09v-52.32c3.87-.01,5.81-.02,9.68-.03,14.92.16,26.58,10.4,26.66,26.18.08,15.6-9.53,26.05-24.79,26.08Z"/>
      <path class="cls-1" d="m438.12,224.28l4.4-11.27c13.94.61,27.96,1.56,42.23,2.65,1.09,3.39,2.69,8.39,3.9,12.23,11.11,1,22.11,2.14,32.99,3.39l-39.45-108.58h-34l-40.24,100.29c10.13.32,20.18.75,30.16,1.28Zm26.69-74.8l14.12,42.17c-9.92-.5-19.73-.95-29.57-1.37l15.45-40.8Z"/>
      <path class="cls-1" d="m287.73,224.19v-25.06c-15.77.6-32.24,1.44-47.99,2.45v-16.04c13.16-.69,27.76-1.37,40.93-1.84l.03-22.33c-15.41.25-28.22.6-40.97,1.1v-15.18c15.43-.38,31.49-.65,46.76-.79,0-9.33,0-13.86,0-22.9h0v-.9h-76.72v107.78c25.38-2.8,51.4-4.91,77.94-6.29Z"/>
      <path class="cls-1" d="m630.75,248.86c-5.49-13.28-10.33-24.39-17.08-40.06-1.88-4.37-4.39-7.85-9.37-10.69,11.8-6.38,17.74-17.63,17.74-33.39,0-25.61-19.64-41.86-44.21-42.01-12.57-.04-38.13,0-42.74,0v110.2c10.1,1.28,20.1,2.66,29.98,4.15v-31.16c3.64.31,7.77.69,12.57,1.34,4.16.56,6.13,1.57,7.58,5.04,4.77,11.34,8.69,20.23,12.9,30.22,10.99,1.96,22.03,4.13,32.64,6.36Zm-54.82-66.5c-4.15-.29-7-.48-10.87-.72v-35.68s5.23.06,8.5.19c10.74.45,17.62,6.68,17.62,18.74,0,9.74-6.22,18.1-15.24,17.46Z"/>
    </g>
    <g>
      <g>
        <path class="cls-2" d="m205.31,286.3h-5.67v-29.31h11.84c6.94,0,11.42,3.88,11.42,9.88v.08c0,6.13-4.72,10.08-12.01,10.08h-5.59v9.26Zm0-14.33h5.76c3.64,0,6.09-1.97,6.09-4.89v-.08c0-3.11-2.22-4.89-6.09-4.89h-5.76v9.87Z"/>
        <path class="cls-2" d="m264.11,286.3h-5.67v-12.14h-13.53v12.14h-5.67v-29.31h5.67v11.98h13.53v-11.98h5.67v29.31Z"/>
        <path class="cls-2" d="m297,286.79c-8.88,0-15.58-6.48-15.58-15.06v-.08c0-8.49,6.88-15.15,15.67-15.15s15.58,6.48,15.58,15.06v.08c0,8.49-6.88,15.15-15.67,15.15Zm0-25.14c-5.51,0-9.66,4.26-9.66,9.91v.08c0,5.7,4.19,10,9.75,10s9.66-4.26,9.66-9.92v-.08c0-5.7-4.19-10-9.75-10Z"/>
        <path class="cls-2" d="m352.48,286.3h-22.51v-29.31h22.3v5.03h-16.64v6.99h14.75v5.03h-14.75v7.24h16.85v5.03Z"/>
        <path class="cls-2" d="m395.78,286.3h-4.7l-.08-.09-15.77-19.93v20.03h-5.58v-29.31h5.16l.08.09,15.31,19.35v-19.45h5.58v29.31Z"/>
        <path class="cls-2" d="m420.34,286.3h-5.67v-29.31h5.67v29.31Z"/>
        <path class="cls-2" d="m453.15,286.79c-8.67,0-15.2-6.48-15.2-15.06v-.08c0-8.64,6.63-15.15,15.42-15.15,6.01,0,9.27,2.3,11.68,4.55l.18.17-3.65,4.12-.19-.17c-2.67-2.43-5.16-3.51-8.07-3.51-5.39,0-9.45,4.26-9.45,9.91v.08c0,5.7,4.06,10,9.45,10,3.54,0,5.79-1.41,8.27-3.68l.18-.16,3.66,3.63-.17.18c-3.61,3.68-7.11,5.18-12.11,5.18Z"/>
        <path class="cls-2" d="m487.75,286.3h-5.67v-29.31h5.67v29.31Z"/>
        <path class="cls-2" d="m535.44,286.3h-6.01l-2.98-6.96h-13.58l-3.03,6.96h-5.84l.16-.35,13-29.16h5.11l.07.15,13.09,29.36Zm-20.46-11.94h9.36l-4.7-10.65-4.66,10.65Z"/>
      </g>
      <g>
        <path class="cls-2" d="m443.62,102.81c-4.95,0-8.4-2.6-8.4-6.33v-.06c0-2.45,1.23-4.19,3.75-5.31-2.02-1.13-3-2.71-3-4.82v-.06c0-3.41,3.29-5.98,7.66-5.98s7.66,2.57,7.66,5.98v.06c0,2.11-.99,3.69-3.01,4.83,2.56,1.24,3.75,2.9,3.75,5.22v.06c0,3.84-3.38,6.42-8.4,6.42Zm0-9.8c-2.61,0-4.43,1.3-4.43,3.16v.06c0,1.84,1.82,3.13,4.43,3.13s4.43-1.29,4.43-3.13v-.06c0-1.86-1.82-3.16-4.43-3.16Zm0-9.33c-2.14,0-3.75,1.24-3.75,2.88v.06c0,1.8,1.58,3.1,3.75,3.1s3.75-1.29,3.75-3.07v-.06c0-1.69-1.58-2.91-3.75-2.91Z"/>
        <path class="cls-2" d="m469.11,102.87c-2.67,0-4.83-.81-7.03-2.63l-.09-.07,2.22-3.12.1.09c1.69,1.43,3.1,2.02,4.88,2.02,2.89,0,4.87-2.48,5.1-6.35-.93,1-2.5,2.07-4.94,2.07-4.75,0-7.81-2.75-7.81-7.01v-.06c0-4.42,3.46-7.63,8.22-7.63,2.64,0,4.47.7,6.1,2.33,1.82,1.82,2.67,4.48,2.67,8.37v.06c0,7.25-3.7,11.94-9.43,11.94Zm.68-19.16c-2.46,0-4.18,1.61-4.18,3.91v.06c0,2.24,1.73,3.75,4.31,3.75s4.28-1.55,4.28-3.78v-.06c0-2.28-1.81-3.87-4.4-3.87Z"/>
      </g>
      <g>
        <path class="cls-2" d="m254.82,102.5h-4.03v-17.94l-3.87,1.07-.87-3.34,5.98-1.9h2.79v22.11Z"/>
        <path class="cls-2" d="m273.52,102.87c-2.67,0-4.83-.81-7.03-2.63l-.09-.07,2.22-3.12.1.09c1.69,1.43,3.1,2.02,4.88,2.02,2.89,0,4.87-2.48,5.1-6.35-.93,1-2.5,2.07-4.94,2.07-4.75,0-7.81-2.75-7.81-7.01v-.06c0-4.42,3.46-7.63,8.22-7.63,2.64,0,4.47.7,6.1,2.33,1.82,1.82,2.67,4.48,2.67,8.37v.06c0,7.25-3.7,11.94-9.43,11.94Zm.68-19.16c-2.46,0-4.19,1.61-4.19,3.91v.06c0,2.24,1.73,3.75,4.31,3.75s4.28-1.55,4.28-3.78v-.06c0-2.28-1.81-3.87-4.4-3.87Z"/>
      </g>
      <path class="cls-2" d="m419.67,61.42s-2.57,5.6-7.26,10.64c-3.48,3.74-7.25,6.94-13.5,9.09,3.15-6.74,5.24-15.24,5.24-26.14s-7.23-20.94-7.23-20.94l-29.6-7.52V9.23c0-1.79-1.45-3.23-3.23-3.23s-3.23,1.45-3.23,3.23h-18.01c-2.1,0-3.8,1.7-3.8,3.8l21.81,5.55v6.33l-40.48-10.29s8.76,11.62,9.42,25.08c.96,19.49-13.12,36.28-13.12,36.28,0,0,12.9-3.29,28.92-4.18l-2.95,12.28h-16.14c-12.16,0-22.29-5.5-23.49-13.7.94.4,2,.56,3.12.4,2.57-.36,4.64-2.5,4.94-5.08.4-3.52-2.2-6.51-6.39-6.51s-7.46,3.17-8.02,7.92c-1.02,8.82,3.8,19.42,8.61,24.9,7.63,8.69,16.79,11.74,16.79,11.74h86.5s5.18-20.75,16.02-33.96h4.15c3.77,0,6.82-2.91,6.82-7.51v-.84h-15.89Zm-69.76-30.66c5.69,2.98,7.83,10.58,7.65,16.8-.15,4.98-1.11,9.75-2.56,14.2-2.07.03-4.1.13-6.07.27,2.18-5.47,3.83-11.6,3.99-17.05.2-6.78-1.22-11.01-3-14.22Zm10.94,53.32h-13.68l2.93-12.46c2.5-.06,5.04-.06,7.61.04,1.07.04,2.11.1,3.14.16v12.27Zm6.47,0v-11.73c4.04.44,7.7,1.05,10.98,1.8l1.35,9.93h-12.33Zm11.22-45.22c4.05,2.43,8.07,7.78,8.08,15.62,0,4.22-.6,7.88-1.62,11.92-1.5-.64-3.09-1.21-4.77-1.72.94-3.33,1.97-8.29,1.97-11.96-.01-7.97-2.13-10.99-3.66-13.87Zm5.46,44.97l-1.12-8.47c5.92,1.77,10.44,4.03,13.81,6.5-3.45.96-7.58,1.64-12.69,1.97Z"/>
    </g>
  </g>
</svg>