<?xml version="1.0" encoding="UTF-8"?>
<svg width="150px" height="40px" viewBox="0 0 150 40" version="1.1" xmlns="http://www.w3.org/2000/svg" xmlns:xlink="http://www.w3.org/1999/xlink">
    <title>Button - Clear - FR - GRN</title>
    <g id="TransCon-Direction" stroke="none" stroke-width="1" fill="none" fill-rule="evenodd">
        <g id="Button---Clear---FR---GRN">
            <rect id="button" fill="#00A651" x="0" y="0" width="150" height="40" rx="4"></rect>
            <path d="M70.8515625,26 L70.8515625,24.6328125 L63.8828125,24.6328125 L63.8828125,20.7421875 L70.21875,20.7421875 L70.21875,19.4140625 L63.8828125,19.4140625 L63.8828125,15.9296875 L70.734375,15.9296875 L70.734375,14.5234375 L62.3671875,14.5234375 L62.3671875,26 L70.8515625,26 Z M74.4453125,26 L74.4453125,18.78125 L75.8515625,18.78125 L75.8515625,17.671875 L74.4609375,17.671875 C74.4609375,16.765625 74.5026042,16.2018229 74.5859375,15.9804688 C74.6692708,15.7591146 74.9244792,15.6484375 75.3515625,15.6484375 C75.4088542,15.6484375 75.4700521,15.6497396 75.5351562,15.6523438 C75.6002604,15.6549479 75.7057292,15.6614583 75.8515625,15.671875 L75.8515625,15.671875 L75.8515625,14.390625 C75.7317708,14.3802083 75.625,14.3723958 75.53125,14.3671875 C75.4375,14.3619792 75.3463542,14.359375 75.2578125,14.359375 C74.3203125,14.359375 73.6875,14.5989583 73.359375,15.078125 C73.1770833,15.3489583 73.0755208,15.7760417 73.0546875,16.359375 L73.0546875,16.359375 L73.0546875,17.671875 L71.890625,17.671875 L71.890625,18.78125 L73.0546875,18.78125 L73.0546875,26 L74.4453125,26 Z M78.890625,26 L78.890625,18.78125 L80.296875,18.78125 L80.296875,17.671875 L78.90625,17.671875 C78.90625,16.765625 78.9479167,16.2018229 79.03125,15.9804688 C79.1145833,15.7591146 79.3697917,15.6484375 79.796875,15.6484375 C79.8541667,15.6484375 79.9153646,15.6497396 79.9804688,15.6523438 C80.0455729,15.6549479 80.1510417,15.6614583 80.296875,15.671875 L80.296875,15.671875 L80.296875,14.390625 C80.1770833,14.3802083 80.0703125,14.3723958 79.9765625,14.3671875 C79.8828125,14.3619792 79.7916667,14.359375 79.703125,14.359375 C78.765625,14.359375 78.1328125,14.5989583 77.8046875,15.078125 C77.6223958,15.3489583 77.5208333,15.7760417 77.5,16.359375 L77.5,16.359375 L77.5,17.671875 L76.3359375,17.671875 L76.3359375,18.78125 L77.5,18.78125 L77.5,26 L78.890625,26 Z M83.84375,26.28125 C84.4895833,26.28125 85.0807292,26.1432292 85.6171875,25.8671875 C86.1536458,25.5911458 86.5651042,25.265625 86.8515625,24.890625 C86.8984375,25.2239583 86.9791667,25.4817708 87.09375,25.6640625 C87.3125,26.0078125 87.6640625,26.1796875 88.1484375,26.1796875 C88.3463542,26.1796875 88.5026042,26.171875 88.6171875,26.15625 C88.7317708,26.140625 88.8984375,26.1015625 89.1171875,26.0390625 L89.1171875,26.0390625 L89.1171875,25 C89.0286458,25.015625 88.9453125,25.0273438 88.8671875,25.0351562 C88.7890625,25.0429688 88.71875,25.046875 88.65625,25.046875 C88.4635417,25.046875 88.3372396,25.0026042 88.2773438,24.9140625 C88.2174479,24.8255208 88.1875,24.7083333 88.1875,24.5625 L88.1875,24.5625 L88.1875,19.7421875 C88.1875,18.9505208 87.8828125,18.3671875 87.2734375,17.9921875 C86.6588542,17.6171875 85.859375,17.4296875 84.875,17.4296875 C84.0260417,17.4296875 83.2799479,17.6315104 82.6367188,18.0351562 C81.9934896,18.4388021 81.6588542,19.15625 81.6328125,20.1875 L81.6328125,20.1875 L82.9453125,20.1875 C82.9973958,19.7552083 83.109375,19.4296875 83.28125,19.2109375 C83.5885417,18.8151042 84.109375,18.6171875 84.84375,18.6171875 C85.4791667,18.6171875 85.9674479,18.7252604 86.3085938,18.9414062 C86.6497396,19.1575521 86.8203125,19.5052083 86.8203125,19.984375 C86.8203125,20.21875 86.7890625,20.3984375 86.7265625,20.5234375 C86.6171875,20.7526042 86.4010417,20.8880208 86.078125,20.9296875 L86.078125,20.9296875 L83.8359375,21.2109375 C83.0494792,21.3098958 82.4140625,21.5729167 81.9296875,22 C81.4453125,22.4270833 81.203125,23.0286458 81.203125,23.8046875 C81.203125,24.5130208 81.4492188,25.1028646 81.9414062,25.5742188 C82.4335938,26.0455729 83.0677083,26.28125 83.84375,26.28125 Z M84.171875,25.0859375 C83.765625,25.0859375 83.4140625,24.96875 83.1171875,24.734375 C82.8203125,24.5 82.671875,24.1796875 82.671875,23.7734375 C82.671875,23.2369792 82.8880208,22.8463542 83.3203125,22.6015625 C83.5755208,22.4557292 83.9583333,22.3489583 84.46875,22.28125 L84.46875,22.28125 L85.3203125,22.171875 C85.5807292,22.140625 85.8463542,22.0885417 86.1171875,22.015625 C86.3880208,21.9427083 86.609375,21.8515625 86.78125,21.7421875 L86.78125,21.7421875 L86.78125,22.875 C86.78125,23.7395833 86.390625,24.3619792 85.609375,24.7421875 C85.1458333,24.9713542 84.6666667,25.0859375 84.171875,25.0859375 Z M93.515625,26.2421875 C94.4895833,26.2421875 95.2890625,25.9856771 95.9140625,25.4726562 C96.5390625,24.9596354 96.9296875,24.1484375 97.0859375,23.0390625 L97.0859375,23.0390625 L95.71875,23.0390625 C95.5885417,23.6588542 95.3528646,24.1471354 95.0117188,24.5039062 C94.6705729,24.8606771 94.2083333,25.0390625 93.625,25.0390625 C92.8645833,25.0390625 92.3072917,24.7526042 91.953125,24.1796875 C91.5989583,23.6067708 91.421875,22.9010417 91.421875,22.0625 C91.421875,21.2291667 91.546875,20.5286458 91.796875,19.9609375 C92.1822917,19.0859375 92.8229167,18.6484375 93.71875,18.6484375 C94.375,18.6484375 94.8515625,18.8190104 95.1484375,19.1601562 C95.4453125,19.5013021 95.6354167,19.9296875 95.71875,20.4453125 L95.71875,20.4453125 L97.0859375,20.4453125 C96.9661458,19.3255208 96.6106771,18.5364583 96.0195312,18.078125 C95.4283854,17.6197917 94.6614583,17.390625 93.71875,17.390625 C92.6145833,17.390625 91.7057292,17.7994792 90.9921875,18.6171875 C90.2786458,19.4348958 89.921875,20.578125 89.921875,22.046875 C89.921875,23.2447917 90.2473958,24.2434896 90.8984375,25.0429688 C91.5494792,25.8424479 92.421875,26.2421875 93.515625,26.2421875 Z M101.757812,26.296875 C102.184896,26.296875 102.567708,26.2552083 102.90625,26.171875 C103.536458,26.0260417 104.065104,25.7447917 104.492188,25.328125 C104.747396,25.0885417 104.977865,24.7799479 105.183594,24.4023438 C105.389323,24.0247396 105.510417,23.6822917 105.546875,23.375 L105.546875,23.375 L104.164062,23.375 C104.059896,23.7447917 103.882812,24.0703125 103.632812,24.3515625 C103.195312,24.8359375 102.609375,25.078125 101.875,25.078125 C101.088542,25.078125 100.507812,24.8216146 100.132812,24.3085938 C99.7578125,23.7955729 99.5572917,23.1145833 99.53125,22.265625 L99.53125,22.265625 L105.664062,22.265625 C105.664062,21.421875 105.622396,20.8072917 105.539062,20.421875 C105.445312,19.859375 105.257812,19.3671875 104.976562,18.9453125 C104.684896,18.5026042 104.260417,18.1419271 103.703125,17.8632812 C103.145833,17.5846354 102.570312,17.4453125 101.976562,17.4453125 C100.799479,17.4453125 99.8463542,17.8645833 99.1171875,18.703125 C98.3880208,19.5416667 98.0234375,20.6328125 98.0234375,21.9765625 C98.0234375,23.3411458 98.3854167,24.4023438 99.109375,25.1601562 C99.8333333,25.9179688 100.716146,26.296875 101.757812,26.296875 Z M104.21875,21.1484375 L99.5703125,21.1484375 C99.5963542,20.4296875 99.828125,19.8372396 100.265625,19.3710938 C100.703125,18.9049479 101.244792,18.671875 101.890625,18.671875 C102.791667,18.671875 103.434896,19.0104167 103.820312,19.6875 C104.028646,20.0520833 104.161458,20.5390625 104.21875,21.1484375 L104.21875,21.1484375 Z M108.835938,26 L108.835938,21.1875 C108.835938,20.59375 109.026042,20.0690104 109.40625,19.6132812 C109.786458,19.1575521 110.330729,18.9296875 111.039062,18.9296875 C111.122396,18.9296875 111.199219,18.9322917 111.269531,18.9375 C111.339844,18.9427083 111.416667,18.953125 111.5,18.96875 L111.5,18.96875 L111.5,17.484375 C111.348958,17.46875 111.242188,17.4583333 111.179688,17.453125 C111.117188,17.4479167 111.072917,17.4453125 111.046875,17.4453125 C110.489583,17.4453125 109.997396,17.6471354 109.570312,18.0507812 C109.143229,18.4544271 108.875,18.796875 108.765625,19.078125 L108.765625,19.078125 L108.765625,17.6328125 L107.429688,17.6328125 L107.429688,26 L108.835938,26 Z" id="Effacer" fill="#FFFFFF" fill-rule="nonzero"></path>
            <path d="M46,24 L50,24 L50,26 L46,26 L46,24 Z M46,16 L53,16 L53,18 L46,18 L46,16 Z M46,20 L52,20 L52,22 L46,22 L46,20 Z M34,26 C34,27.1 34.9,28 36,28 L42,28 C43.1,28 44,27.1 44,26 L44,16 L34,16 L34,26 Z M45,13 L42,13 L41,12 L37,12 L36,13 L33,13 L33,15 L45,15 L45,13 Z" id="icon-trash" fill="#FFFFFF" fill-rule="nonzero"></path>
        </g>
    </g>
</svg>