<?xml version="1.0" encoding="UTF-8"?>
<svg width="150px" height="40px" viewBox="0 0 150 40" version="1.1" xmlns="http://www.w3.org/2000/svg" xmlns:xlink="http://www.w3.org/1999/xlink">
    <title>Button - Clear - ENG - Grey</title>
    <g id="TransCon-Direction" stroke="none" stroke-width="1" fill="none" fill-rule="evenodd">
        <g id="Button---Clear---ENG---Grey">
            <rect id="button-grey" fill="#F3F3F3" x="0" y="0" width="150" height="40" rx="4"></rect>
            <path d="M53,24 L57,24 L57,26 L53,26 L53,24 Z M53,16 L60,16 L60,18 L53,18 L53,16 Z M53,20 L59,20 L59,22 L53,22 L53,20 Z M41,26 C41,27.1 41.9,28 43,28 L49,28 C50.1,28 51,27.1 51,26 L51,16 L41,16 L41,26 Z M52,13 L49,13 L48,12 L44,12 L43,13 L40,13 L40,15 L52,15 L52,13 Z" id="icon-trash-" fill="#333333" fill-rule="nonzero"></path>
            <path d="M73.8515625,26.296875 C75.3984375,26.296875 76.6276042,25.8046875 77.5390625,24.8203125 C78.2994792,24.0026042 78.7473958,22.9895833 78.8828125,21.78125 L78.8828125,21.78125 L77.3671875,21.78125 C77.2109375,22.5364583 76.9739583,23.1458333 76.65625,23.609375 C76.0572917,24.4895833 75.1848958,24.9296875 74.0390625,24.9296875 C72.7942708,24.9296875 71.8580729,24.5117188 71.2304688,23.6757812 C70.6028646,22.8398438 70.2890625,21.75 70.2890625,20.40625 C70.2890625,18.765625 70.6367188,17.5481771 71.3320312,16.7539062 C72.0273438,15.9596354 72.9401042,15.5625 74.0703125,15.5625 C74.9973958,15.5625 75.7174479,15.7786458 76.2304688,16.2109375 C76.7434896,16.6432292 77.0859375,17.2291667 77.2578125,17.96875 L77.2578125,17.96875 L78.7734375,17.96875 C78.6848958,16.9947917 78.2395833,16.125 77.4375,15.359375 C76.6354167,14.59375 75.5078125,14.2109375 74.0546875,14.2109375 C72.3515625,14.2109375 71.015625,14.7994792 70.046875,15.9765625 C69.1510417,17.0598958 68.703125,18.4479167 68.703125,20.140625 C68.703125,22.3697917 69.2994792,24.0182292 70.4921875,25.0859375 C71.3984375,25.8932292 72.5182292,26.296875 73.8515625,26.296875 Z M82.03125,26 L82.03125,14.5234375 L80.625,14.5234375 L80.625,26 L82.03125,26 Z M87.40625,26.296875 C87.8333333,26.296875 88.2161458,26.2552083 88.5546875,26.171875 C89.1848958,26.0260417 89.7135417,25.7447917 90.140625,25.328125 C90.3958333,25.0885417 90.6263021,24.7799479 90.8320312,24.4023438 C91.0377604,24.0247396 91.1588542,23.6822917 91.1953125,23.375 L91.1953125,23.375 L89.8125,23.375 C89.7083333,23.7447917 89.53125,24.0703125 89.28125,24.3515625 C88.84375,24.8359375 88.2578125,25.078125 87.5234375,25.078125 C86.7369792,25.078125 86.15625,24.8216146 85.78125,24.3085938 C85.40625,23.7955729 85.2057292,23.1145833 85.1796875,22.265625 L85.1796875,22.265625 L91.3125,22.265625 C91.3125,21.421875 91.2708333,20.8072917 91.1875,20.421875 C91.09375,19.859375 90.90625,19.3671875 90.625,18.9453125 C90.3333333,18.5026042 89.9088542,18.1419271 89.3515625,17.8632812 C88.7942708,17.5846354 88.21875,17.4453125 87.625,17.4453125 C86.4479167,17.4453125 85.4947917,17.8645833 84.765625,18.703125 C84.0364583,19.5416667 83.671875,20.6328125 83.671875,21.9765625 C83.671875,23.3411458 84.0338542,24.4023438 84.7578125,25.1601562 C85.4817708,25.9179688 86.3645833,26.296875 87.40625,26.296875 Z M89.8671875,21.1484375 L85.21875,21.1484375 C85.2447917,20.4296875 85.4765625,19.8372396 85.9140625,19.3710938 C86.3515625,18.9049479 86.8932292,18.671875 87.5390625,18.671875 C88.4401042,18.671875 89.0833333,19.0104167 89.46875,19.6875 C89.6770833,20.0520833 89.8098958,20.5390625 89.8671875,21.1484375 L89.8671875,21.1484375 Z M95.2890625,26.28125 C95.9348958,26.28125 96.5260417,26.1432292 97.0625,25.8671875 C97.5989583,25.5911458 98.0104167,25.265625 98.296875,24.890625 C98.34375,25.2239583 98.4244792,25.4817708 98.5390625,25.6640625 C98.7578125,26.0078125 99.109375,26.1796875 99.59375,26.1796875 C99.7916667,26.1796875 99.9479167,26.171875 100.0625,26.15625 C100.177083,26.140625 100.34375,26.1015625 100.5625,26.0390625 L100.5625,26.0390625 L100.5625,25 C100.473958,25.015625 100.390625,25.0273438 100.3125,25.0351562 C100.234375,25.0429688 100.164062,25.046875 100.101562,25.046875 C99.9088542,25.046875 99.7825521,25.0026042 99.7226562,24.9140625 C99.6627604,24.8255208 99.6328125,24.7083333 99.6328125,24.5625 L99.6328125,24.5625 L99.6328125,19.7421875 C99.6328125,18.9505208 99.328125,18.3671875 98.71875,17.9921875 C98.1041667,17.6171875 97.3046875,17.4296875 96.3203125,17.4296875 C95.4713542,17.4296875 94.7252604,17.6315104 94.0820312,18.0351562 C93.4388021,18.4388021 93.1041667,19.15625 93.078125,20.1875 L93.078125,20.1875 L94.390625,20.1875 C94.4427083,19.7552083 94.5546875,19.4296875 94.7265625,19.2109375 C95.0338542,18.8151042 95.5546875,18.6171875 96.2890625,18.6171875 C96.9244792,18.6171875 97.4127604,18.7252604 97.7539062,18.9414062 C98.0950521,19.1575521 98.265625,19.5052083 98.265625,19.984375 C98.265625,20.21875 98.234375,20.3984375 98.171875,20.5234375 C98.0625,20.7526042 97.8463542,20.8880208 97.5234375,20.9296875 L97.5234375,20.9296875 L95.28125,21.2109375 C94.4947917,21.3098958 93.859375,21.5729167 93.375,22 C92.890625,22.4270833 92.6484375,23.0286458 92.6484375,23.8046875 C92.6484375,24.5130208 92.8945312,25.1028646 93.3867188,25.5742188 C93.8789062,26.0455729 94.5130208,26.28125 95.2890625,26.28125 Z M95.6171875,25.0859375 C95.2109375,25.0859375 94.859375,24.96875 94.5625,24.734375 C94.265625,24.5 94.1171875,24.1796875 94.1171875,23.7734375 C94.1171875,23.2369792 94.3333333,22.8463542 94.765625,22.6015625 C95.0208333,22.4557292 95.4036458,22.3489583 95.9140625,22.28125 L95.9140625,22.28125 L96.765625,22.171875 C97.0260417,22.140625 97.2916667,22.0885417 97.5625,22.015625 C97.8333333,21.9427083 98.0546875,21.8515625 98.2265625,21.7421875 L98.2265625,21.7421875 L98.2265625,22.875 C98.2265625,23.7395833 97.8359375,24.3619792 97.0546875,24.7421875 C96.5911458,24.9713542 96.1119792,25.0859375 95.6171875,25.0859375 Z M103.382812,26 L103.382812,21.1875 C103.382812,20.59375 103.572917,20.0690104 103.953125,19.6132812 C104.333333,19.1575521 104.877604,18.9296875 105.585938,18.9296875 C105.669271,18.9296875 105.746094,18.9322917 105.816406,18.9375 C105.886719,18.9427083 105.963542,18.953125 106.046875,18.96875 L106.046875,18.96875 L106.046875,17.484375 C105.895833,17.46875 105.789062,17.4583333 105.726562,17.453125 C105.664062,17.4479167 105.619792,17.4453125 105.59375,17.4453125 C105.036458,17.4453125 104.544271,17.6471354 104.117188,18.0507812 C103.690104,18.4544271 103.421875,18.796875 103.3125,19.078125 L103.3125,19.078125 L103.3125,17.6328125 L101.976562,17.6328125 L101.976562,26 L103.382812,26 Z" id="Clear" fill="#333333" fill-rule="nonzero"></path>
        </g>
    </g>
</svg>