<?xml version="1.0" encoding="UTF-8"?>
<svg width="150px" height="40px" viewBox="0 0 150 40" version="1.1" xmlns="http://www.w3.org/2000/svg" xmlns:xlink="http://www.w3.org/1999/xlink">
    <title>Button - Email - FR - GRN</title>
    <g id="TransCon-Direction" stroke="none" stroke-width="1" fill="none" fill-rule="evenodd">
        <g id="Button---Email---FR---GRN">
            <rect id="button" fill="#00A651" x="0" y="0" width="150" height="40" rx="4"></rect>
            <path d="M50,12 L34,12 C32.9,12 32.01,12.9 32.01,14 L32,26 C32,27.1 32.9,28 34,28 L50,28 C51.1,28 52,27.1 52,26 L52,14 C52,12.9 51.1,12 50,12 Z M50,16 L42,21 L34,16 L34,14 L42,19 L50,14 L50,16 Z" id="icon-email" fill="#FFFFFF" fill-rule="nonzero"></path>
            <path d="M65.8515625,26.296875 C67.3984375,26.296875 68.6276042,25.8046875 69.5390625,24.8203125 C70.2994792,24.0026042 70.7473958,22.9895833 70.8828125,21.78125 L70.8828125,21.78125 L69.3671875,21.78125 C69.2109375,22.5364583 68.9739583,23.1458333 68.65625,23.609375 C68.0572917,24.4895833 67.1848958,24.9296875 66.0390625,24.9296875 C64.7942708,24.9296875 63.8580729,24.5117188 63.2304688,23.6757812 C62.6028646,22.8398438 62.2890625,21.75 62.2890625,20.40625 C62.2890625,18.765625 62.6367188,17.5481771 63.3320312,16.7539062 C64.0273438,15.9596354 64.9401042,15.5625 66.0703125,15.5625 C66.9973958,15.5625 67.7174479,15.7786458 68.2304688,16.2109375 C68.7434896,16.6432292 69.0859375,17.2291667 69.2578125,17.96875 L69.2578125,17.96875 L70.7734375,17.96875 C70.6848958,16.9947917 70.2395833,16.125 69.4375,15.359375 C68.6354167,14.59375 67.5078125,14.2109375 66.0546875,14.2109375 C64.3515625,14.2109375 63.015625,14.7994792 62.046875,15.9765625 C61.1510417,17.0598958 60.703125,18.4479167 60.703125,20.140625 C60.703125,22.3697917 61.2994792,24.0182292 62.4921875,25.0859375 C63.3984375,25.8932292 64.5182292,26.296875 65.8515625,26.296875 Z M75.7734375,26.3046875 C77.1536458,26.3046875 78.171875,25.8645833 78.828125,24.984375 C79.484375,24.1041667 79.8125,22.9895833 79.8125,21.640625 C79.8125,20.2447917 79.4401042,19.1875 78.6953125,18.46875 C77.9505208,17.75 77.0390625,17.390625 75.9609375,17.390625 C74.7578125,17.390625 73.7994792,17.8072917 73.0859375,18.640625 C72.3723958,19.4739583 72.015625,20.59375 72.015625,22 C72.015625,23.3125 72.3541667,24.3580729 73.03125,25.1367188 C73.7083333,25.9153646 74.6223958,26.3046875 75.7734375,26.3046875 Z M75.90625,25.09375 C75.0572917,25.09375 74.4375,24.796875 74.046875,24.203125 C73.65625,23.609375 73.4609375,22.8671875 73.4609375,21.9765625 C73.4609375,21.0494792 73.65625,20.2578125 74.046875,19.6015625 C74.4375,18.9453125 75.0625,18.6171875 75.921875,18.6171875 C76.890625,18.6171875 77.5729167,19.0026042 77.96875,19.7734375 C78.21875,20.2630208 78.34375,20.8984375 78.34375,21.6796875 C78.34375,22.5442708 78.1705729,23.3294271 77.8242188,24.0351562 C77.4778646,24.7408854 76.8385417,25.09375 75.90625,25.09375 Z M84.2421875,26.2265625 C85.0078125,26.2265625 85.6588542,26.0078125 86.1953125,25.5703125 C86.4661458,25.3515625 86.6927083,25.0833333 86.875,24.765625 L86.875,24.765625 L86.859375,26 L88.1875,26 L88.1875,17.6328125 L86.78125,17.6328125 L86.78125,21.7421875 C86.78125,22.5598958 86.6848958,23.203125 86.4921875,23.671875 C86.1380208,24.546875 85.4713542,24.984375 84.4921875,24.984375 C83.8098958,24.984375 83.34375,24.734375 83.09375,24.234375 C82.9583333,23.9635417 82.890625,23.6145833 82.890625,23.1875 L82.890625,23.1875 L82.890625,17.6328125 L81.453125,17.6328125 L81.453125,23.3203125 C81.453125,24.0338542 81.5703125,24.6041667 81.8046875,25.03125 C82.2369792,25.828125 83.0494792,26.2265625 84.2421875,26.2265625 Z M91.828125,26 L91.828125,21.1875 C91.828125,20.59375 92.0182292,20.0690104 92.3984375,19.6132812 C92.7786458,19.1575521 93.3229167,18.9296875 94.03125,18.9296875 C94.1145833,18.9296875 94.1914062,18.9322917 94.2617188,18.9375 C94.3320312,18.9427083 94.4088542,18.953125 94.4921875,18.96875 L94.4921875,18.96875 L94.4921875,17.484375 C94.3411458,17.46875 94.234375,17.4583333 94.171875,17.453125 L94.1154514,17.4487847 C94.0818866,17.4464699 94.0564236,17.4453125 94.0390625,17.4453125 C93.4817708,17.4453125 92.9895833,17.6471354 92.5625,18.0507812 C92.1354167,18.4544271 91.8671875,18.796875 91.7578125,19.078125 L91.7578125,19.078125 L91.7578125,17.6328125 L90.421875,17.6328125 L90.421875,26 L91.828125,26 Z M97.15625,26 L97.15625,21.1875 C97.15625,20.59375 97.3463542,20.0690104 97.7265625,19.6132812 C98.1067708,19.1575521 98.6510417,18.9296875 99.359375,18.9296875 C99.4427083,18.9296875 99.5195312,18.9322917 99.5898438,18.9375 C99.6601562,18.9427083 99.7369792,18.953125 99.8203125,18.96875 L99.8203125,18.96875 L99.8203125,17.484375 C99.6692708,17.46875 99.5625,17.4583333 99.5,17.453125 C99.4375,17.4479167 99.3932292,17.4453125 99.3671875,17.4453125 C98.8098958,17.4453125 98.3177083,17.6471354 97.890625,18.0507812 C97.4635417,18.4544271 97.1953125,18.796875 97.0859375,19.078125 L97.0859375,19.078125 L97.0859375,17.6328125 L95.75,17.6328125 L95.75,26 L97.15625,26 Z M102.46875,16.1171875 L102.46875,14.5234375 L101.039062,14.5234375 L101.039062,16.1171875 L102.46875,16.1171875 Z M102.46875,26 L102.46875,17.671875 L101.039062,17.671875 L101.039062,26 L102.46875,26 Z M107.859375,26.296875 C108.286458,26.296875 108.669271,26.2552083 109.007812,26.171875 C109.638021,26.0260417 110.166667,25.7447917 110.59375,25.328125 C110.848958,25.0885417 111.079427,24.7799479 111.285156,24.4023438 C111.490885,24.0247396 111.611979,23.6822917 111.648438,23.375 L111.648438,23.375 L110.265625,23.375 C110.161458,23.7447917 109.984375,24.0703125 109.734375,24.3515625 C109.296875,24.8359375 108.710938,25.078125 107.976562,25.078125 C107.190104,25.078125 106.609375,24.8216146 106.234375,24.3085938 C105.859375,23.7955729 105.658854,23.1145833 105.632812,22.265625 L105.632812,22.265625 L111.765625,22.265625 C111.765625,21.421875 111.723958,20.8072917 111.640625,20.421875 C111.546875,19.859375 111.359375,19.3671875 111.078125,18.9453125 C110.786458,18.5026042 110.361979,18.1419271 109.804688,17.8632812 C109.247396,17.5846354 108.671875,17.4453125 108.078125,17.4453125 C106.901042,17.4453125 105.947917,17.8645833 105.21875,18.703125 C104.489583,19.5416667 104.125,20.6328125 104.125,21.9765625 C104.125,23.3411458 104.486979,24.4023438 105.210938,25.1601562 C105.934896,25.9179688 106.817708,26.296875 107.859375,26.296875 Z M110.320312,21.1484375 L105.671875,21.1484375 C105.697917,20.4296875 105.929688,19.8372396 106.367188,19.3710938 C106.804688,18.9049479 107.346354,18.671875 107.992188,18.671875 C108.893229,18.671875 109.536458,19.0104167 109.921875,19.6875 C110.130208,20.0520833 110.263021,20.5390625 110.320312,21.1484375 L110.320312,21.1484375 Z M114.9375,26 L114.9375,14.5234375 L113.53125,14.5234375 L113.53125,26 L114.9375,26 Z" id="Courriel" fill="#FFFFFF" fill-rule="nonzero"></path>
        </g>
    </g>
</svg>