<?xml version="1.0" encoding="UTF-8"?>
<svg width="150px" height="40px" viewBox="0 0 150 40" version="1.1" xmlns="http://www.w3.org/2000/svg" xmlns:xlink="http://www.w3.org/1999/xlink">
    <title>Button - Email - ENG - GRN</title>
    <g id="TransCon-Direction" stroke="none" stroke-width="1" fill="none" fill-rule="evenodd">
        <g id="Button---Email---ENG---GRN">
            <rect id="button" fill="#00A651" x="0" y="0" width="150" height="40" rx="4"></rect>
            <path d="M56,12 L40,12 C38.9,12 38.01,12.9 38.01,14 L38,26 C38,27.1 38.9,28 40,28 L56,28 C57.1,28 58,27.1 58,26 L58,14 C58,12.9 57.1,12 56,12 Z M56,16 L48,21 L40,16 L40,14 L48,19 L56,14 L56,16 Z" id="icon-email" fill="#FFFFFF" fill-rule="nonzero"></path>
            <path d="M75.8515625,26 L75.8515625,24.6328125 L68.8828125,24.6328125 L68.8828125,20.7421875 L75.21875,20.7421875 L75.21875,19.4140625 L68.8828125,19.4140625 L68.8828125,15.9296875 L75.734375,15.9296875 L75.734375,14.5234375 L67.3671875,14.5234375 L67.3671875,26 L75.8515625,26 Z M79.109375,26 L79.109375,21.5625 C79.109375,20.484375 79.3268229,19.7395833 79.7617188,19.328125 C80.1966146,18.9166667 80.6796875,18.7109375 81.2109375,18.7109375 C81.7942708,18.7109375 82.1927083,18.90625 82.40625,19.296875 C82.5416667,19.5572917 82.609375,19.9713542 82.609375,20.5390625 L82.609375,20.5390625 L82.609375,26 L84.0390625,26 L84.0390625,21.1328125 C84.0390625,20.2682292 84.2382812,19.6510417 84.6367188,19.28125 C85.0351562,18.9114583 85.5104167,18.7265625 86.0625,18.7265625 C86.4635417,18.7265625 86.8033854,18.8307292 87.0820312,19.0390625 C87.3606771,19.2473958 87.5,19.6302083 87.5,20.1875 L87.5,20.1875 L87.5,26 L88.9609375,26 L88.9609375,20.4296875 C88.9609375,19.6901042 88.8515625,19.1015625 88.6328125,18.6640625 C88.2265625,17.8515625 87.4609375,17.4453125 86.3359375,17.4453125 C85.8098958,17.4453125 85.3359375,17.5533854 84.9140625,17.7695312 C84.4921875,17.9856771 84.125,18.3177083 83.8125,18.765625 C83.625,18.4010417 83.4166667,18.125 83.1875,17.9375 C82.78125,17.609375 82.2447917,17.4453125 81.578125,17.4453125 C80.9895833,17.4453125 80.4635417,17.6041667 80,17.921875 C79.7291667,18.109375 79.4270833,18.4088542 79.09375,18.8203125 L79.09375,18.8203125 L79.09375,17.6328125 L77.703125,17.6328125 L77.703125,26 L79.109375,26 Z M93.28125,26.28125 C93.9270833,26.28125 94.5182292,26.1432292 95.0546875,25.8671875 C95.5911458,25.5911458 96.0026042,25.265625 96.2890625,24.890625 C96.3359375,25.2239583 96.4166667,25.4817708 96.53125,25.6640625 C96.75,26.0078125 97.1015625,26.1796875 97.5859375,26.1796875 C97.7838542,26.1796875 97.9401042,26.171875 98.0546875,26.15625 C98.1692708,26.140625 98.3359375,26.1015625 98.5546875,26.0390625 L98.5546875,26.0390625 L98.5546875,25 C98.4661458,25.015625 98.3828125,25.0273438 98.3046875,25.0351562 C98.2265625,25.0429688 98.15625,25.046875 98.09375,25.046875 C97.9010417,25.046875 97.7747396,25.0026042 97.7148438,24.9140625 C97.6549479,24.8255208 97.625,24.7083333 97.625,24.5625 L97.625,24.5625 L97.625,19.7421875 C97.625,18.9505208 97.3203125,18.3671875 96.7109375,17.9921875 C96.0963542,17.6171875 95.296875,17.4296875 94.3125,17.4296875 C93.4635417,17.4296875 92.7174479,17.6315104 92.0742188,18.0351562 C91.4309896,18.4388021 91.0963542,19.15625 91.0703125,20.1875 L91.0703125,20.1875 L92.3828125,20.1875 C92.4348958,19.7552083 92.546875,19.4296875 92.71875,19.2109375 C93.0260417,18.8151042 93.546875,18.6171875 94.28125,18.6171875 C94.9166667,18.6171875 95.4049479,18.7252604 95.7460938,18.9414062 C96.0872396,19.1575521 96.2578125,19.5052083 96.2578125,19.984375 C96.2578125,20.21875 96.2265625,20.3984375 96.1640625,20.5234375 C96.0546875,20.7526042 95.8385417,20.8880208 95.515625,20.9296875 L95.515625,20.9296875 L93.2734375,21.2109375 C92.4869792,21.3098958 91.8515625,21.5729167 91.3671875,22 C90.8828125,22.4270833 90.640625,23.0286458 90.640625,23.8046875 C90.640625,24.5130208 90.8867188,25.1028646 91.3789062,25.5742188 C91.8710938,26.0455729 92.5052083,26.28125 93.28125,26.28125 Z M93.609375,25.0859375 C93.203125,25.0859375 92.8515625,24.96875 92.5546875,24.734375 C92.2578125,24.5 92.109375,24.1796875 92.109375,23.7734375 C92.109375,23.2369792 92.3255208,22.8463542 92.7578125,22.6015625 C93.0130208,22.4557292 93.3958333,22.3489583 93.90625,22.28125 L93.90625,22.28125 L94.7578125,22.171875 C95.0182292,22.140625 95.2838542,22.0885417 95.5546875,22.015625 C95.8255208,21.9427083 96.046875,21.8515625 96.21875,21.7421875 L96.21875,21.7421875 L96.21875,22.875 C96.21875,23.7395833 95.828125,24.3619792 95.046875,24.7421875 C94.5833333,24.9713542 94.1041667,25.0859375 93.609375,25.0859375 Z M101.359375,16.1171875 L101.359375,14.5234375 L99.9296875,14.5234375 L99.9296875,16.1171875 L101.359375,16.1171875 Z M101.359375,26 L101.359375,17.671875 L99.9296875,17.671875 L99.9296875,26 L101.359375,26 Z M104.929688,26 L104.929688,14.5234375 L103.523438,14.5234375 L103.523438,26 L104.929688,26 Z" id="Email" fill="#FFFFFF" fill-rule="nonzero"></path>
        </g>
    </g>
</svg>