<svg width="24" height="17" xmlns="http://www.w3.org/2000/svg">
    <g fill-rule="nonzero" fill="none">
        <path d="M23.53 1.38h-1.58V.86c.01-.2-.13-.39-.33-.45C20.52.14 19.4 0 18.26 0 16.4 0 13.86.4 12 2.25 10.13.39 7.58 0 5.72 0 4.6 0 3.46.14 2.37.41a.45.45 0 00-.34.45v.52H.47c-.26 0-.47.2-.47.45v14.35c0 .25.2.45.47.45.08 0 .15-.02.22-.06.05-.02 4.7-2.48 11.2-.9H12.1c6.52-1.6 11.17.86 11.2.9.15.08.32.08.47 0a.45.45 0 00.23-.39V1.83c0-.24-.2-.45-.47-.45z" fill="#545454"/>
        <g fill="#FFF">
            <path d="M5.36 12.6a19 19 0 00-2.36.16V1.3C3.84 1.09 4.7 1 5.57 1 7.2 1 9.43 1.38 11 3.14L11 14c-.9-.6-2.66-1.4-5.64-1.4zM13 3.14C14.56 1.39 16.8 1 18.42 1a12 12 0 012.58.29v11.48c-.78-.1-1.56-.16-2.35-.16-2.96 0-4.73.8-5.65 1.39V3.14z"/>
        </g>
    </g>
</svg>