<?xml version="1.0" encoding="UTF-8"?>
<svg width="34px" height="34px" viewBox="0 0 34 34" version="1.1" xmlns="http://www.w3.org/2000/svg" xmlns:xlink="http://www.w3.org/1999/xlink">
    <title>icon - list</title>
    <g id="-Symbols" stroke="none" stroke-width="1" fill="none" fill-rule="evenodd">
        <g id="SuperC-header---English" transform="translate(-1868.000000, -23.000000)">
            <g id="icon---list" transform="translate(1868.000000, 23.000000)">
                <path d="M30,0 C32.209139,0 34,1.790861 34,4 L34,30 C34,32.209139 32.209139,34 30,34 L4,34 C1.790861,34 0,32.209139 0,30 L0,4 C0,1.790861 1.790861,0 4,0 L30,0 Z M30,1 L4,1 C2.40231912,1 1.09633912,2.24891996 1.00509269,3.82372721 L1,4 L1,30 C1,31.5976809 2.24891996,32.9036609 3.82372721,32.9949073 L4,33 L30,33 C31.5976809,33 32.9036609,31.75108 32.9949073,30.1762728 L33,30 L33,4 C33,2.40231912 31.75108,1.09633912 30.1762728,1.00509269 L30,1 Z" id="Rectangle-Copy-14" fill="#BBBBBB" fill-rule="nonzero"></path>
                <g id="Group" transform="translate(7.000000, 9.000000)" fill="#545454">
                    <rect id="Rectangle-Copy-34" x="6" y="0" width="14" height="3" rx="1.5"></rect>
                    <rect id="Rectangle-Copy-37" x="0" y="0" width="3" height="3" rx="1.5"></rect>
                    <rect id="Rectangle-Copy-35" x="6" y="7" width="14" height="3" rx="1.5"></rect>
                    <rect id="Rectangle-Copy-38" x="0" y="7" width="3" height="3" rx="1.5"></rect>
                    <rect id="Rectangle-Copy-36" x="6" y="14" width="14" height="3" rx="1.5"></rect>
                    <rect id="Rectangle-Copy-39" x="0" y="14" width="3" height="3" rx="1.5"></rect>
                </g>
            </g>
        </g>
    </g>
</svg>