<?xml version="1.0" encoding="UTF-8"?>
<svg width="16px" height="16px" viewBox="0 0 16 16" version="1.1" xmlns="http://www.w3.org/2000/svg" xmlns:xlink="http://www.w3.org/1999/xlink">
    <title>010F5B54-E4C3-4839-9E00-3BF63508A681</title>
    <g id="Search-&amp;-Filter" stroke="none" stroke-width="1" fill="none" fill-rule="evenodd">
        <g id="CT-Digital-CTC-Flyer---Vertical-Scrolling---FilteredSearch-Copy" transform="translate(-1410.000000, -32.000000)" fill="#545454" fill-rule="nonzero">
            <path d="M1418,48 C1422.40288,48 1426,44.4029162 1426,40.0000857 C1426,35.5972552 1422.40288,32.0001715 1418,32.0001715 C1413.59712,31.9713948 1410,35.5684785 1410,39.9713091 C1410,44.4029162 1413.59712,48 1418,48 Z M1414.54676,39.453329 L1417.48201,39.453329 L1417.48201,36.5181087 C1417.48201,36.230342 1417.71223,35.9713519 1418.02878,35.9713519 C1418.34532,35.9713519 1418.57554,36.2015653 1418.57554,36.5181087 L1418.57554,39.453329 L1421.51079,39.453329 C1421.79856,39.453329 1422.05755,39.6835424 1422.05755,40.0000857 C1422.05755,40.3166291 1421.82734,40.5468425 1421.51079,40.5468425 L1418.54676,40.5468425 L1418.54676,43.4820628 C1418.54676,43.7698295 1418.31655,44.0288195 1418,44.0288195 C1417.68345,44.0288195 1417.45324,43.7986062 1417.45324,43.4820628 L1417.45324,40.5180658 L1414.54676,40.5180658 C1414.25899,40.5180658 1414,40.2878524 1414,39.9713091 C1414,39.6547657 1414.23022,39.453329 1414.54676,39.453329 Z" id="icon-increase"></path>
        </g>
    </g>
</svg>