<?xml version="1.0" encoding="UTF-8"?>
<svg width="18px" height="17px" viewBox="0 0 18 17" version="1.1" xmlns="http://www.w3.org/2000/svg" xmlns:xlink="http://www.w3.org/1999/xlink">
    <title>icon-hamburger</title>
    <g id="TransCon-Direction" stroke="none" stroke-width="1" fill="none" fill-rule="evenodd">
        <g id="SuperC---Mobile---4-Column---FR" transform="translate(-24.000000, -137.000000)" fill="#545454">
            <path d="M40.5,151 C41.3284271,151 42,151.671573 42,152.5 C42,153.328427 41.3284271,154 40.5,154 L25.5,154 C24.6715729,154 24,153.328427 24,152.5 C24,151.671573 24.6715729,151 25.5,151 L40.5,151 Z M40.5,144 C41.3284271,144 42,144.671573 42,145.5 C42,146.328427 41.3284271,147 40.5,147 L25.5,147 C24.6715729,147 24,146.328427 24,145.5 C24,144.671573 24.6715729,144 25.5,144 L40.5,144 Z M40.5,137 C41.3284271,137 42,137.671573 42,138.5 C42,139.328427 41.3284271,140 40.5,140 L25.5,140 C24.6715729,140 24,139.328427 24,138.5 C24,137.671573 24.6715729,137 25.5,137 L40.5,137 Z" id="icon-hamburger"></path>
        </g>
    </g>
</svg>