<?xml version="1.0" encoding="UTF-8"?>
<svg width="27px" height="24px" viewBox="0 0 27 24" version="1.1" xmlns="http://www.w3.org/2000/svg" xmlns:xlink="http://www.w3.org/1999/xlink">
    <title>icon-flyer</title>
    <g id="-Metro-UI" stroke="none" stroke-width="1" fill="none" fill-rule="evenodd">
        <path d="M25.3831139,0.00331050176 C25.9412452,-0.00839772627 26.3331781,0.482645357 26.3435399,0.881427604 L26.3435399,21.956241 C26.3406128,22.3867818 25.9763991,22.7848323 25.5477316,22.8252257 L13.2540922,23.9960485 C13.1994148,24.0013172 13.1441519,24.0013172 13.0894745,23.9960485 L0.795834942,22.8252257 C0.367167443,22.7848323 0.0026610343,22.3867818 1.32804262e-05,21.956241 L1.32804262e-05,0.881427604 C-0.00290037401,0.392901789 0.474092836,-0.0424393993 0.960452628,0.00331050176 L13.1717833,1.16500089 L25.3831139,0.00331050176 Z M24.5873057,1.84185355 L14.0499004,2.84805867 L14.0499004,22.1574762 L24.5873057,21.1513003 L24.5873057,1.84185355 Z M1.756261,1.84185355 L1.756261,21.1513003 L12.2936662,22.1574762 L12.2936662,2.84805867 L1.756261,1.84185355 Z M22.1541895,3.80848461 C22.6587556,3.77619917 23.0990728,4.1916071 23.1237772,4.68660171 L23.1237772,12.2969529 C23.1208501,12.724713 22.7625783,13.1213292 22.3371306,13.1659375 L16.4830166,13.7513489 C15.9968031,13.8022212 15.5159169,13.3712121 15.5134113,12.8823643 L15.5134113,5.27201312 C15.5105019,4.84120887 15.8716129,4.43879707 16.3000755,4.39389601 L22.1541895,3.80848461 Z M4.18937714,4.97930741 L10.0434912,5.56471882 C10.5259399,5.61523668 10.8760891,6.04729145 10.8255714,6.52974022 C10.7750536,7.012189 10.3429989,7.36233829 9.86055009,7.3118206 L4.00643608,6.7264092 C3.52398731,6.67589134 3.1738381,6.24383657 3.22435588,5.76138779 C3.27487365,5.27893902 3.70692836,4.92878973 4.18937714,4.97930741 L4.18937714,4.97930741 Z M21.367543,5.65618935 L17.2696631,6.05865969 L17.2696631,11.9036149 L21.367543,11.5011446 L21.367543,5.65618935 Z M4.18937714,9.07718723 L10.0434912,9.66259863 C10.5259408,9.71311641 10.8760908,10.1451719 10.825573,10.6276215 C10.7750552,11.1100712 10.3429997,11.4602211 9.86055009,11.4097033 L4.00643608,10.824289 C3.6943464,10.7916097 3.42339784,10.594915 3.29565408,10.3082978 C3.16791032,10.0216805 3.20277869,9.68868482 3.38712461,9.43474687 C3.57147053,9.18080892 3.87728747,9.04450795 4.18937714,9.07718723 L4.18937714,9.07718723 Z M4.18937714,13.17507 L10.0434912,13.7604814 C10.5252264,13.8118122 10.8744336,14.2435082 10.8239809,14.7253362 C10.7735281,15.2071642 10.3424692,15.5571577 9.86055009,15.5075832 L4.00643608,14.9221717 C3.69390753,14.8900223 3.42235152,14.6933899 3.294278,14.4065017 C3.16620449,14.1196135 3.20112026,13.7861651 3.38584492,13.5320303 C3.57056958,13.2778955 3.87696786,13.1417815 4.18937714,13.17507 L4.18937714,13.17507 Z M4.18937714,17.2729498 L10.0434912,17.8583612 C10.3555808,17.8910404 10.6265294,18.0877352 10.7542732,18.3743524 C10.8820169,18.6609696 10.8471485,18.9939654 10.6628026,19.2479033 C10.4784567,19.5018413 10.1726398,19.6381422 9.86055009,19.605463 L4.00643608,19.0200516 C3.6943464,18.9873723 3.42339784,18.7906775 3.29565408,18.5040603 C3.16791032,18.2174431 3.20277869,17.8844474 3.38712461,17.6305094 C3.57147053,17.3765715 3.87728747,17.2402705 4.18937714,17.2729498 L4.18937714,17.2729498 Z" id="icon-flyer" fill="#FFFFFF" fill-rule="nonzero"></path>
    </g>
</svg>