<?xml version="1.0" encoding="UTF-8"?>
<svg width="84px" height="12px" viewBox="0 0 84 12" version="1.1" xmlns="http://www.w3.org/2000/svg" xmlns:xlink="http://www.w3.org/1999/xlink">
    <title>icon-Metro&amp;Moi</title>
    <g id="-Metro-UI" stroke="none" stroke-width="1" fill="none" fill-rule="evenodd">
        <g id="icon-Metro&amp;Moi" fill="#ED3124">
            <path d="M39.7867108,6.28380706 C39.6184933,6.46217107 39.4769769,6.68699518 39.3600256,6.96041547 C39.2414723,7.23330174 39.145348,7.55158004 39.0903435,7.92059063 C39.0428154,8.19187482 39.0203864,8.42898148 39.0203864,8.64045499 L39.0203864,8.65006742 C39.0203864,9.20064617 39.1635048,9.56378249 39.3888629,9.79074269 C39.4855213,9.88579897 39.590724,9.95362002 39.7103454,10.0038183 C39.8742907,10.0721733 40.0644033,10.1068849 40.2566519,10.1068849 L40.2700025,10.1068849 C40.5151196,10.1068849 40.7351374,10.0529485 40.9391346,9.95362002 C41.1425978,9.86176789 41.325768,9.71811543 41.4790329,9.52586679 C41.6413762,9.33735631 41.7727461,9.10452185 41.8843571,8.82736339 C41.9949001,8.55501115 42.0776738,8.23886894 42.1380185,7.87893676 C42.1786043,7.62901352 42.2037035,7.39511101 42.2037035,7.18470555 C42.2037035,6.96255157 42.1786043,6.76229257 42.1342803,6.58659867 C42.083014,6.41090477 42.0119888,6.26137805 41.9137284,6.13481436 C41.7823585,5.97140301 41.6018584,5.85551981 41.3732961,5.79677717 C41.259549,5.76847389 41.1308492,5.75245317 40.9941391,5.75245317 L40.9797204,5.75245317 C40.524198,5.75245317 40.1119314,5.92707902 39.7867108,6.28380706 L39.7867108,6.28380706 Z M39.94585,12 C39.5731012,12 39.2233155,11.9668905 38.8948907,11.9012056 C38.7037101,11.8696981 38.5157337,11.821636 38.343778,11.7634274 C37.8652924,11.6101625 37.4487537,11.3826683 37.1053763,11.0926932 C36.7684071,10.8016501 36.497657,10.4491943 36.3155548,10.0401319 C36.1297144,9.63267159 36.0335901,9.16326449 36.0335901,8.65594168 C36.0335901,8.41936905 36.054417,8.17211594 36.0966049,7.92059063 C36.209818,7.25412867 36.4410504,6.6651002 36.765737,6.16044751 C37.0914917,5.6552608 37.5058943,5.23124574 37.9854478,4.88733429 C38.9333405,4.20858978 40.1258161,3.85773601 41.3017369,3.85773601 L41.3145535,3.85773601 C41.8961056,3.85773601 42.5118353,3.95653045 43.0789688,4.1669359 C43.3737501,4.27641082 43.6578508,4.42006328 43.9152504,4.59949535 C44.2879991,4.86170113 44.6068115,5.19333004 44.8300335,5.61681108 C45.0553916,6.03762199 45.1878296,6.54921699 45.1878296,7.1457218 C45.1878296,7.39511101 45.1659346,7.65571472 45.1178724,7.93661135 C44.9897067,8.71041213 44.7146843,9.35497911 44.3408675,9.87939068 C43.9707889,10.4096765 43.506722,10.8182049 43.0036714,11.1300749 C41.9981042,11.754883 40.8446124,11.9967959 39.9581325,12 L39.94585,12 Z" id="Fill-1"></path>
            <path d="M73.3081986,6.28380706 C73.139981,6.46217107 72.9979307,6.68699518 72.8815134,6.96041547 C72.7629601,7.23330174 72.6673698,7.55158004 72.6112973,7.92059063 C72.5637691,8.19187482 72.5418742,8.42898148 72.5418742,8.64045499 L72.5418742,8.65006742 C72.5418742,9.20064617 72.6849926,9.56378249 72.9103507,9.79074269 C73.006475,9.88579897 73.1127458,9.95362002 73.2302311,10.0038183 L73.1586719,10.1725699 L73.2302311,10.0038183 C73.3952445,10.0727074 73.5858911,10.1068849 73.7781397,10.1068849 L73.7909563,10.1068849 C74.0366073,10.1068849 74.2555572,10.0529485 74.4600884,9.95362002 C74.6640856,9.86176789 74.8472558,9.71811543 74.9999866,9.52586679 C75.163398,9.33735631 75.2947679,9.10452185 75.4053109,8.82736339 C75.5158538,8.55501115 75.5986276,8.23886894 75.6595063,7.87893676 C75.7000921,7.62901352 75.7241232,7.39511101 75.7241232,7.18470555 C75.7241232,6.96255157 75.7000921,6.76229257 75.6547001,6.58659867 C75.6045018,6.41090477 75.5329426,6.26137805 75.4341482,6.13481436 C75.3038463,5.97140301 75.1233462,5.85551981 74.8953179,5.79677717 C74.7815708,5.76847389 74.652337,5.75245317 74.5156269,5.75245317 L74.5006742,5.75245317 C74.0451517,5.75245317 73.6328852,5.92707902 73.3081986,6.28380706 L73.3081986,6.28380706 Z M73.4668037,12 C73.094055,12 72.7448033,11.9668905 72.4158445,11.9012056 C72.2251979,11.8696981 72.0372215,11.821636 71.8647317,11.7634274 C71.3862462,11.6101625 70.9702415,11.3826683 70.6268641,11.0926932 C70.2893609,10.8016501 70.0191448,10.4491943 69.8365086,10.0401319 C69.6506682,9.63267159 69.5540099,9.16326449 69.5540099,8.65594168 C69.5540099,8.41936905 69.5759048,8.17211594 69.6186268,7.92059063 C69.7313058,7.25412867 69.9614702,6.6651002 70.2872248,6.16044751 C70.6124454,5.6552608 71.0273821,5.23124574 71.5058676,4.88733429 C72.4542942,4.20858978 73.6467698,3.85773601 74.8226907,3.85773601 L74.8355073,3.85773601 C75.4175934,3.85773601 76.0327891,3.95653045 76.6004566,4.1669359 C76.8947038,4.27641082 77.1788046,4.42006328 77.4367382,4.59949535 C77.8094869,4.86170113 78.1282993,5.19333004 78.3515213,5.61681108 C78.5768794,6.03762199 78.7098514,6.54921699 78.7098514,7.1457218 C78.7098514,7.39511101 78.6874224,7.65571472 78.6382922,7.93661135 C78.5111945,8.71041213 78.2356381,9.35497911 77.8612873,9.87939068 C77.4922767,10.4096765 77.0282098,10.8182049 76.5240912,11.1300749 C75.519058,11.754883 74.3661002,11.9967959 73.4796203,12 L73.4668037,12 Z" id="Fill-3"></path>
            <path d="M30.1059771,4.11588321 L33.0265543,4.11588321 C33.0265543,4.11588321 32.9042628,4.77326676 32.8556667,5.03654059 L32.8524625,5.06163972 L32.8695513,5.045619 C33.2166669,4.69316316 33.6444201,4.46086272 34.0054203,4.3070638 C34.3722948,4.15273087 34.6809607,4.07155922 34.7947078,4.05019826 C34.9340881,4.01708877 35.0942953,3.99252366 35.2598427,3.98024111 C35.4291283,3.96368637 35.6026861,3.95621003 35.7698357,3.95621003 C35.9311109,3.95621003 36.0859779,3.96368637 36.2157457,3.97383282 L36.4314914,4 L35.9129541,6.59642471 L35.7249776,6.59642471 C35.5823932,6.57880192 35.4291283,6.5739957 35.2705232,6.5739957 C35.043563,6.5739957 34.8133987,6.58360813 34.6029932,6.61137738 C34.3936558,6.63914663 34.2051453,6.6808005 34.0657651,6.73260083 C33.7506909,6.83726954 33.4884851,6.95368677 33.2706033,7.08612472 C33.0505854,7.21482451 32.8754256,7.35847696 32.730171,7.52242233 C32.5843825,7.68102746 32.4722374,7.86045953 32.3841235,8.06071853 C32.2933394,8.25990948 32.2249843,8.48206347 32.1641056,8.73038463 C31.9675847,9.56346208 31.5547842,11.7759235 31.5547842,11.7759235 L28.6528977,11.7791277 L30.1059771,4.11588321 Z" id="Fill-5"></path>
            <polygon id="Fill-7" points="81.7790476 11.7768314 78.8771611 11.7789675 80.3302404 4.115723 83.2502837 4.115723"></polygon>
            <path d="M24.0794094,11.2094309 C23.7958426,10.9872769 23.5549978,10.7181288 23.3894504,10.4073268 C23.2164266,10.0901166 23.1181662,9.71790182 23.1181662,9.29335274 C23.1181662,9.09416178 23.1395271,8.88268828 23.1875893,8.66053429 L23.7958426,5.94181808 L22.7229884,5.94181808 L23.0631617,4.11599001 L24.115189,4.11599001 L24.3571019,2.84234276 L27.2616584,2.06854198 L26.8590043,4.11599001 L28.7515854,4.11599001 L28.4183544,5.94181808 L26.5775737,5.94181808 L26.0440837,8.29098968 C26.0184505,8.41007703 26.006168,8.52863036 26.006168,8.63970735 C26.0093721,8.80632284 26.0301991,8.96385993 26.072387,9.10858043 C26.2929389,9.86369037 26.9551286,9.92563716 27.6279989,9.83485308 L27.2862235,11.7776324 C27.2862235,11.7776324 26.7714244,11.8988559 26.0900097,11.8988559 L26.0878736,11.8988559 C25.3989827,11.9186147 24.650281,11.6590791 24.0794094,11.2094309" id="Fill-9"></path>
            <path d="M19.5117953,6.84437205 L19.5139314,6.84009986 C19.5224757,6.75038383 19.5310201,6.66493999 19.5310201,6.58376834 L19.5310201,6.57896212 C19.5310201,6.23291457 19.4215452,5.94827978 19.2239563,5.75923528 C19.0872462,5.62733135 18.9083481,5.53921739 18.6893983,5.49702949 C18.5879337,5.47620256 18.4811289,5.46178391 18.3657797,5.46178391 L18.3508271,5.46178391 C17.5273621,5.46872622 16.8635702,5.97070878 16.5741292,6.83689572 L16.5735952,6.84437205 L19.5117953,6.84437205 Z M16.613113,11.9208042 C16.5153866,11.9111918 16.4165921,11.893569 16.3236719,11.8738101 C16.0673404,11.8225438 15.8232915,11.7632672 15.5952632,11.6810275 C14.4839593,11.2783734 13.5606318,10.0672069 13.5579616,8.53295596 L13.5579616,8.52868376 C13.5579616,8.35245584 13.5718463,8.16875159 13.5964114,7.98344526 C13.677583,7.39174666 13.8287118,6.83689572 14.055672,6.34025339 C14.2831662,5.84467912 14.5912981,5.39770103 14.9848738,5.03616678 C15.3773814,4.67036033 15.856935,4.37504506 16.4326128,4.17692215 C17.0040185,3.97345901 17.6710145,3.86932433 18.4458833,3.86665421 C18.5062281,3.86665421 18.570845,3.86932433 18.6295876,3.86932433 C19.0140849,3.87840273 19.4065925,3.94782585 19.7788073,4.07705966 C19.8060425,4.08880819 19.8306076,4.09521648 19.8562407,4.10376086 C20.2530206,4.24901539 20.6332457,4.4604889 20.9638065,4.74138553 C21.2879591,5.02014606 21.5629815,5.36138739 21.7600363,5.76831369 C21.9517509,6.17684205 22.0665661,6.6473172 22.0665661,7.1813412 C22.0665661,7.50068756 22.0238442,7.84139487 21.9367983,8.21093948 L21.9004846,8.35993218 L21.730131,8.35993218 L16.2083228,8.34017329 L16.2040506,8.34444548 C16.2019145,8.37755497 16.2019145,8.4047902 16.2019145,8.43896773 C16.2019145,8.8699251 16.4091158,9.31102893 16.7807965,9.64479393 C16.9960082,9.8397127 17.2694285,9.99938587 17.5887748,10.0987143 C17.814667,10.1697395 18.0667263,10.2071212 18.3406806,10.2071212 C18.4143759,10.2071212 18.4896733,10.2071212 18.570845,10.1985768 C19.3152744,10.1414363 20.0826669,10.0597306 20.929095,9.71368303 L21.3141263,9.5550779 L20.6332457,11.4546013 L20.5606184,11.4909149 C19.9128473,11.7995808 18.838391,11.9998398 17.7505841,11.9998398 L17.7361654,11.9998398 C17.3570084,11.9998398 16.9805215,11.9731386 16.613113,11.9208042 L16.613113,11.9208042 Z" id="Fill-11"></path>
            <path d="M4.42225278,11.7851621 L5.51646797,6.82034097 C5.5260804,6.7674726 5.53409076,6.72261458 5.53409076,6.67935864 L5.53409076,6.67241633 C5.53409076,6.51594729 5.46787178,6.37069276 5.36266905,6.27403442 C5.31941311,6.23291457 5.26707876,6.19766899 5.20833611,6.17150181 C5.12449435,6.13091598 5.027836,6.10955502 4.9210312,6.10955502 C4.50128833,6.11596331 4.10984874,6.42089102 4.02173478,6.81500073 L2.90402254,11.7851621 L1.89723439e-15,11.7851621 L1.01624768,7.04035886 C1.10809981,6.61901392 1.2325274,6.19980508 1.40982337,5.8131717 C1.58444922,5.43134454 1.81140942,5.07354846 2.10245251,4.77983525 C2.39402961,4.48184986 2.7496896,4.2313926 3.18865733,4.06157297 C3.6329653,3.88801517 4.15203663,3.79669706 4.77524265,3.79669706 C4.89272793,3.79669706 5.02035967,3.79669706 5.15226359,3.80577547 C5.30713056,3.81645595 5.45665728,3.83514679 5.59977571,3.86077994 C6.31964007,3.99642204 6.87182089,4.3536841 7.28462144,4.83911192 L7.28835961,4.84285009 L7.29797204,4.83911192 C7.67232287,4.55234103 8.12090303,4.29280536 8.60099061,4.1091011 C9.07734003,3.92379477 9.57878857,3.80844559 10.055672,3.80577547 L10.1128126,3.80577547 C10.4887655,3.80577547 10.8230645,3.83568081 11.1087673,3.90243381 C11.212368,3.92646489 11.3084923,3.94996195 11.4019465,3.98040132 C11.7554704,4.09468246 12.0427753,4.26183197 12.2643953,4.46422707 C12.4817431,4.66982631 12.6440864,4.92241966 12.7492891,5.20224824 C12.8528897,5.47780463 12.8993498,5.79074269 12.8993498,6.12557574 C12.8993498,6.41074456 12.8651723,6.72261458 12.7962832,7.03501862 L11.7885799,11.7851621 L8.85518604,11.7851621 L9.87356982,6.84437205 C9.88051213,6.79524185 9.88585237,6.75038383 9.88585237,6.70552581 L9.88585237,6.7007196 C9.88585237,6.54905678 9.82337156,6.40113213 9.71496469,6.2959294 C9.67651496,6.26816015 9.63859926,6.23932286 9.59000307,6.21315568 C9.50295716,6.16402547 9.39455029,6.13839232 9.27866708,6.13839232 L9.27439488,6.13839232 C8.85518604,6.14480061 8.46481449,6.4449221 8.37403041,6.84009986 L7.39516441,11.7851621 L4.42225278,11.7851621 Z" id="Fill-13"></path>
            <path d="M60.4452158,11.7851621 L61.540499,6.82034097 C61.5495775,6.7674726 61.5581218,6.72261458 61.5581218,6.67935864 L61.5581218,6.67241633 C61.5581218,6.51594729 61.4913688,6.37069276 61.3867001,6.27403442 C61.3429102,6.23291457 61.2900418,6.19766899 61.2323672,6.17150181 C61.1479914,6.13091598 61.0513331,6.10955502 60.9450623,6.10955502 C60.5242514,6.11596331 60.1333458,6.42089102 60.0446978,6.81500073 L58.9275196,11.7851621 L56.0234971,11.7851621 L57.0397447,7.04035886 C57.1326649,6.61901392 57.2554904,6.19980508 57.4333204,5.8131717 C57.6074123,5.43134454 57.8338384,5.07354846 58.1254155,4.77983525 C58.4175267,4.48184986 58.7721186,4.2313926 59.2121544,4.06157297 C59.6559283,3.88801517 60.1760677,3.79669706 60.7987397,3.79669706 C60.916759,3.79669706 61.0438567,3.79669706 61.1752266,3.80577547 C61.3306276,3.81645595 61.4796203,3.83514679 61.6238068,3.86077994 C62.3436711,3.99642204 62.8953179,4.3536841 63.3081185,4.83911192 L63.3113226,4.84285009 L63.3209351,4.83911192 C63.696354,4.55234103 64.1438661,4.29280536 64.6244877,4.1091011 C65.1003031,3.92379477 65.6017516,3.80844559 66.0797031,3.80577547 L66.1357756,3.80577547 C66.5117285,3.80577547 66.8465616,3.83568081 67.1317304,3.90243381 C67.235331,3.92646489 67.3314553,3.94996195 67.4254436,3.98040132 C67.7789675,4.09468246 68.0657384,4.26183197 68.2878923,4.46422707 C68.5057741,4.66982631 68.6675834,4.92241966 68.7733202,5.20224824 C68.8769208,5.47780463 68.9228469,5.79074269 68.9228469,6.12557574 C68.9228469,6.41074456 68.8886693,6.72261458 68.8197802,7.03501862 L67.812077,11.7851621 L64.8792171,11.7851621 L65.8970669,6.84437205 C65.9045432,6.79524185 65.9093494,6.75038383 65.9093494,6.70552581 L65.9093494,6.7007196 C65.9093494,6.54905678 65.8468686,6.40113213 65.7384617,6.2959294 C65.700012,6.26816015 65.6615623,6.23932286 65.6124321,6.21315568 C65.5264542,6.16402547 65.4175133,6.13839232 65.3021641,6.13839232 L65.298426,6.13839232 C64.8792171,6.14480061 64.4877775,6.4449221 64.3969934,6.84009986 L63.4186615,11.7851621 L60.4452158,11.7851621 Z" id="Fill-15"></path>
            <path d="M51.6692789,0.896092279 C50.7058996,0.896092279 49.6773694,1.49366514 49.6773694,2.60603714 C49.6773694,3.22069877 50.0421078,3.96726433 50.7390091,4.93010961 C51.9176001,4.51517296 53.5282165,3.86740184 53.5282165,2.4404897 C53.5282165,1.39380265 52.7645622,0.896092279 51.6692789,0.896092279 L51.6692789,0.896092279 Z M50.224744,5.87640014 C48.6637918,6.34100103 47.1375512,7.15431959 47.1375512,8.96359291 C47.1375512,10.3573956 48.3818272,11.0884744 49.5940617,11.0884744 C50.8057621,11.0884744 51.9176001,10.5240111 52.8147604,9.67704898 L50.224744,5.87640014 Z M53.2798953,10.4732788 C52.1013044,11.635849 50.8559604,11.9845667 49.5940617,11.9845667 C47.4857349,11.9845667 45.9915357,10.8390852 45.9915357,8.96359291 C45.9915357,6.83817738 47.8178978,5.67720919 49.7270336,5.17896479 C49.112906,4.315982 48.6312164,3.65165614 48.6312164,2.62312591 C48.6312164,0.747099582 50.2578535,0 51.7515186,0 C53.295382,0 54.5738355,0.78020907 54.5738355,2.4404897 C54.5738355,4.19956477 52.7485414,5.12930056 51.204144,5.62701093 L53.5282165,8.94703817 C54.473973,7.93452866 54.8723549,6.67316396 55.2045178,5.44490875 L56.2004726,5.44490875 C55.8683097,7.02081359 55.1377648,8.53210152 54.0419476,9.7598227 L55.3711333,11.7853758 L54.1257894,11.7853758 L53.2798953,10.4732788 Z" id="Fill-17"></path>
        </g>
    </g>
</svg>