<?xml version="1.0" encoding="UTF-8"?>
<svg width="22px" height="16px" viewBox="0 0 22 16" version="1.1" xmlns="http://www.w3.org/2000/svg" xmlns:xlink="http://www.w3.org/1999/xlink">
    <title>7E8A30AB-503B-4094-B1D2-3ACD81E6F45C</title>
    <g id="Search-&amp;-Filter" stroke="none" stroke-width="1" fill="none" fill-rule="evenodd">
        <g id="CT-Digital-CTC-Flyer---Vertical-Scrolling---FilteredSearch-Copy" transform="translate(-1442.000000, -32.000000)" fill="#545454" fill-rule="nonzero">
            <path d="M1460,36 L1456,40 L1459,40 C1459,43.31 1456.31,46 1453,46 C1451.99,46 1451.03,45.75 1450.2,45.3 L1448.74,46.76 C1449.97,47.54 1451.43,48 1453,48 C1457.42,48 1461,44.42 1461,40 L1464,40 L1460,36 Z M1447,40 C1447,36.69 1449.69,34 1453,34 C1454.01,34 1454.97,34.25 1455.8,34.7 L1457.26,33.24 C1456.03,32.46 1454.57,32 1453,32 C1448.58,32 1445,35.58 1445,40 L1442,40 L1446,44 L1450,40 L1447,40 Z" id="icon-reset"></path>
        </g>
    </g>
</svg>