<?xml version="1.0" encoding="UTF-8"?>
<svg width="53px" height="64px" viewBox="0 0 53 64" version="1.1" xmlns="http://www.w3.org/2000/svg" xmlns:xlink="http://www.w3.org/1999/xlink">
    <title>icon - list</title>
    <g id="TransCon-Direction" stroke="none" stroke-width="1" fill="none" fill-rule="evenodd" opacity="0.3">
        <g id="SuperC---ShoppingList---FR---Email-Confirmation" transform="translate(-1448.000000, -423.000000)" fill="#545454" fill-rule="nonzero">
            <g id="icon---list" transform="translate(1448.000000, 423.000000)">
                <path d="M46.4450846,13.6 C46.3259043,12.2798667 45.7167607,11.3466667 44.9619523,11.3466667 C44.1939016,11.3466667 43.6112424,12.2933333 43.4920621,13.6 L39.1618453,13.6 C39.042665,12.2798667 38.4335214,11.3466667 37.678713,11.3466667 C36.9106623,11.3466667 36.3280031,12.2933333 36.2088228,13.6 L31.878606,13.6 C31.7594257,12.2798667 31.1502821,11.3466667 30.3954736,11.3466667 C29.627423,11.3466667 29.0447638,12.2933333 28.9255835,13.6 L24.5953667,13.6 C24.4761864,12.2798667 23.8670428,11.3466667 23.1122343,11.3466667 C22.3441837,11.3466667 21.7615245,12.2933333 21.629102,13.6 L17.3121274,13.6 C17.1797049,12.2798667 16.5838035,11.3466667 15.828995,11.3466667 C15.0609443,11.3466667 14.4650429,12.2933333 14.3458627,13.6 L10.0156458,13.6 C9.89646557,12.2798667 9.30056417,11.3466667 8.54575573,11.3466667 C7.77770504,11.3466667 7.18180364,12.2933333 7.06262337,13.6 L0.295831938,13.6 L0.295831938,64 L52.7086704,64 L52.7086704,13.6 L46.4450846,13.6 Z M44.9619523,11.96 C45.3194931,11.96 45.7300029,12.64 45.835941,13.6 L44.0879635,13.6 C44.1939016,12.64 44.5911692,11.96 44.9619523,11.96 Z M45.6637917,15.4 C45.1960753,16.8496 44.3824713,16.3356 44.1276903,14.8666667 C44.8128445,14.7137333 45.3041321,14.9342667 45.6637917,15.4 Z M43.5582734,15.1466667 C43.9633539,17.11 45.30347,17.2924 45.9683635,16.2 C45.9683635,18.4308 42.9756143,18.2561333 42.9756143,16.3066667 C42.9756143,15.8266667 43.2139748,15.4133333 43.5582734,15.1466667 Z M37.678713,11.96 C38.0362538,11.96 38.4467636,12.64 38.5394594,13.6 L36.8045918,13.6 C36.9106623,12.64 37.3079299,11.96 37.678713,11.96 Z M38.3674425,15.4 C37.9428959,16.8249333 37.1049261,16.368 36.8445834,14.8666667 C37.5523819,14.7085333 38.0394319,14.9541333 38.3674425,15.4 Z M36.2750341,15.1466667 C36.6801146,17.11 38.0202307,17.2924 38.6851242,16.2 C38.6851242,18.4308 35.692375,18.2561333 35.692375,16.3066667 C35.692375,15.8266667 35.9307355,15.4133333 36.2750341,15.1466667 Z M30.3954736,11.96 C30.7530145,11.96 31.1635243,12.64 31.2562201,13.6 L29.5213525,13.6 C29.627423,12.64 30.0246906,11.96 30.3954736,11.96 Z M31.0842032,15.4 C30.6596566,16.8249333 29.8216868,16.368 29.5613441,14.8666667 C30.2691426,14.7085333 30.7561926,14.9541333 31.0842032,15.4 Z M28.9917948,15.1466667 C29.2036709,16.1733333 29.733361,16.8666667 30.3954736,16.8666667 C30.7927412,16.8666667 31.1502821,16.6133333 31.4018849,16.2 C31.4018849,16.24 31.4151272,16.2666667 31.4151272,16.3066667 C31.4151272,18.324 28.4091357,18.3110667 28.4091357,16.3066667 C28.4091357,15.8266667 28.6474962,15.4133333 28.9917948,15.1466667 Z M23.1122343,11.96 C23.4697752,11.96 23.880285,12.64 23.9729808,13.6 L22.2381132,13.6 C22.3441837,12.64 22.7414513,11.96 23.1122343,11.96 Z M23.8009639,15.4 C23.3817142,16.8073333 22.5440093,16.4005333 22.2781048,14.8666667 C22.9835196,14.7090667 23.4771908,14.9598667 23.8009639,15.4 Z M21.7085555,15.1466667 C22.1109876,17.0972 23.4352129,17.3009333 24.1054033,16.2 C24.6799847,17.9354667 21.1258964,18.6576 21.1258964,16.3066667 C21.1258964,15.8266667 21.3642569,15.4133333 21.7085555,15.1466667 Z M15.828995,11.96 C16.1865359,11.96 16.5970457,12.64 16.6897415,13.6 L14.9548739,13.6 C15.0609443,12.64 15.4582119,11.96 15.828995,11.96 Z M16.5177246,15.4 C16.090662,16.8333333 15.2305776,16.3621333 14.9948655,14.8666667 C15.6650559,14.7169333 16.1519736,14.9266667 16.5177246,15.4 Z M8.54575573,11.96 C8.90329657,11.96 9.31380642,12.64 9.4065022,13.6 L7.67163459,13.6 C7.77770504,12.64 8.17497264,11.96 8.54575573,11.96 Z M9.23448533,15.4 C8.7647826,16.8550667 7.94151172,16.3252 7.7116262,14.8666667 C7.83080648,14.84 7.9367445,14.8 8.06916704,14.8 C8.54575573,14.8 8.95626558,15.04 9.23448533,15.4 Z M7.14207689,15.1466667 C7.54450896,17.0972 8.86873429,17.3009333 9.53892473,16.2 C10.1135061,17.9354667 6.55941774,18.6576 6.55941774,16.3066667 C6.55941774,15.8266667 6.7977783,15.4133333 7.14207689,15.1466667 Z M10.2672487,57.4 L5.46031072,57.4 L5.46031072,56.2 L10.2672487,56.2 L10.2672487,57.4 L10.2672487,57.4 Z M10.2672487,51.0533333 L5.46031072,51.0533333 L5.46031072,49.84 L10.2672487,49.84 L10.2672487,51.0533333 L10.2672487,51.0533333 Z M10.2672487,44.6933333 L5.46031072,44.6933333 L5.46031072,43.48 L10.2672487,43.48 L10.2672487,44.6933333 L10.2672487,44.6933333 Z M10.2672487,38.3333333 L5.46031072,38.3333333 L5.46031072,37.1333333 L10.2672487,37.1333333 L10.2672487,38.3333333 L10.2672487,38.3333333 Z M10.2672487,31.9866667 L5.46031072,31.9866667 L5.46031072,30.7733333 L10.2672487,30.7733333 L10.2672487,31.9866667 L10.2672487,31.9866667 Z M10.2672487,25.6266667 L5.46031072,25.6266667 L5.46031072,24.4133333 L10.2672487,24.4133333 L10.2672487,25.6266667 L10.2672487,25.6266667 Z M14.4253162,15.1466667 C14.8277483,17.0972 16.1519736,17.3009333 16.822164,16.2 C17.3967454,17.9354667 13.842657,18.6576 13.842657,16.3066667 C13.842657,15.8266667 14.0810176,15.4133333 14.4253162,15.1466667 Z M47.5441916,57.4 L13.8823838,57.4 L13.8823838,56.2 L47.5441916,56.2 L47.5441916,57.4 Z M47.5441916,51.0533333 L13.8823838,51.0533333 L13.8823838,49.84 L47.5441916,49.84 L47.5441916,51.0533333 Z M47.5441916,44.6933333 L13.8823838,44.6933333 L13.8823838,43.48 L47.5441916,43.48 L47.5441916,44.6933333 Z M47.5441916,38.3333333 L13.8823838,38.3333333 L13.8823838,37.1333333 L47.5441916,37.1333333 L47.5441916,38.3333333 Z M47.5441916,31.9866667 L13.8823838,31.9866667 L13.8823838,30.7733333 L47.5441916,30.7733333 L47.5441916,31.9866667 Z M47.5441916,25.6266667 L13.8823838,25.6266667 L13.8823838,24.4133333 L47.5441916,24.4133333 L47.5441916,25.6266667 Z M3.61963751,6.76 L5.95027409,8.32 C6.70508253,7.54666667 6.70508253,6.32 5.95027409,5.54666667 C6.70018289,4.842 6.69832898,3.476 5.95027409,2.77333333 C6.70508253,2.01333333 6.70508253,0.773333333 5.95027409,0 L3.61963751,1.56 C3.67062019,1.6936 4.28175018,2.6412 4.28175018,4.16 C4.28175018,5.64773333 3.67062019,6.6264 3.61963751,6.76 Z M51.7022592,0 L7.53934448,0 C7.93661208,0.866666667 7.93661208,1.89333333 7.53934448,2.77333333 C7.94760315,3.5944 7.91277603,4.79573333 7.53934448,5.54666667 C7.94985434,6.42666667 7.94985434,7.44 7.53934448,8.32 L51.7022592,8.32 C52.4173409,8.32 53,7.73333333 53,7 L53,1.32 C53,0.586666667 52.4173409,0 51.7022592,0 Z M2.95236037,4.1568 C2.95236037,3.4988 2.79543967,2.85373333 2.50795035,2.30093333 L0.145797209,3.8828 C-0.0485990695,4.01306667 -0.0485990695,4.30066667 0.145797209,4.4308 L2.50795035,6.01253333 C2.79543967,5.45973333 2.95236037,4.8148 2.95236037,4.1568 Z" id="Shape"></path>
            </g>
        </g>
    </g>
</svg>