<?xml version="1.0" encoding="UTF-8"?>
<svg width="16px" height="16px" viewBox="0 0 16 16" version="1.1" xmlns="http://www.w3.org/2000/svg" xmlns:xlink="http://www.w3.org/1999/xlink">
    <title>81F9690B-A807-4855-943F-49F04B94CEA9</title>
    <g id="Search-&amp;-Filter" stroke="none" stroke-width="1" fill="none" fill-rule="evenodd">
        <g id="CT-Digital-CTC-Flyer---Vertical-Scrolling---FilteredSearch-Copy" transform="translate(-1344.000000, -32.000000)" fill="#545454" fill-rule="nonzero">
            <path d="M1352,48 C1356.40288,48 1360,44.4029162 1360,40.0000857 C1360,35.5972552 1356.40288,32.0001715 1352,32.0001715 C1347.59712,31.9713948 1344,35.5684785 1344,39.9713091 C1344,44.4029162 1347.59712,48 1352,48 Z M1348.54676,39.453329 L1355.48201,39.453329 C1355.76978,39.453329 1356.02878,39.6835424 1356.02878,40.0000857 C1356.02878,40.3166291 1355.79856,40.5468425 1355.48201,40.5468425 L1348.54676,40.5468425 C1348.25899,40.5468425 1348,40.3166291 1348,40.0000857 C1348,39.6835424 1348.23022,39.453329 1348.54676,39.453329 Z" id="icon-decrease"></path>
        </g>
    </g>
</svg>