<?xml version="1.0" encoding="UTF-8"?>
<svg width="14px" height="14px" viewBox="0 0 14 14" version="1.1" xmlns="http://www.w3.org/2000/svg" xmlns:xlink="http://www.w3.org/1999/xlink">
    <title>6B3ED62D-CD5B-4501-A0C6-698D61F982FA</title>
    <g id="Page-1" stroke="none" stroke-width="1" fill="none" fill-rule="evenodd">
        <g id="CT---Digital-CTC-Flyer---revised-header" transform="translate(-1774.000000, -36.000000)" fill="#333333" fill-rule="nonzero">
            <g id="Button---FullScreen-" transform="translate(1762.000000, 28.000000)">
                <path d="M14,17 L12,17 L12,22 L17,22 L17,20 L14,20 L14,17 Z M12,13 L14,13 L14,10 L17,10 L17,8 L12,8 L12,13 Z M24,20 L21,20 L21,22 L26,22 L26,17 L24,17 L24,20 Z M21,8 L21,10 L24,10 L24,13 L26,13 L26,8 L21,8 Z" id="Icon---full-screen"></path>
            </g>
        </g>
    </g>
</svg>