<?xml version="1.0" encoding="UTF-8"?>
<svg width="33px" height="33px" viewBox="0 0 33 33" version="1.1" xmlns="http://www.w3.org/2000/svg" xmlns:xlink="http://www.w3.org/1999/xlink">
    <title>Trash</title>
    <g id="TransCon-Direction" stroke="none" stroke-width="1" fill="none" fill-rule="evenodd">
        <g id="SuperC---ShoppingList---FR" transform="translate(-1863.000000, -213.000000)">
            <g id="Trash" transform="translate(1863.954673, 213.500445)">
                <rect id="Rectangle" x="0" y="0" width="32" height="32"></rect>
                <path d="M26.9995112,6 L22,6 L22,5 C21.9981277,3.34392191 20.6560781,2.00187233 19,2 L13,2 C11.3439219,2.00187233 10.0018723,3.34392191 10,5 L10,6 L4.99951125,6 C4.4472265,6 3.99951125,6.44771525 3.99951125,7 C3.99951125,7.55228475 4.4472265,8 4.99951125,8 L5.99951125,8 L5.99951125,26 C6.0007739,27.1040461 6.89546518,27.9987373 7.99951125,28 L23.9995112,28 C25.1035573,27.9987373 25.9982486,27.1040461 25.9995112,26 L25.9995112,8 L26.9995112,8 C27.551796,8 27.9995112,7.55228475 27.9995112,7 C27.9995112,6.44771525 27.551796,6 26.9995112,6 L26.9995112,6 Z M14,21 C14,21.5522847 13.5522847,22 13,22 C12.4477153,22 12,21.5522847 12,21 L12,13 C12,12.4477153 12.4477153,12 13,12 C13.5522847,12 14,12.4477153 14,13 L14,21 Z M20,21 C20,21.5522847 19.5522847,22 19,22 C18.4477153,22 18,21.5522847 18,21 L18,13 C18,12.4477153 18.4477153,12 19,12 C19.5522847,12 20,12.4477153 20,13 L20,21 Z M20,6 L12,6 L12,5 C12.0006317,4.44797711 12.4479771,4.00063167 13,4 L19,4 C19.5520229,4.00063167 19.9993683,4.44797711 20,5 L20,6 Z" id="Shape" fill="#ADADAD" fill-rule="nonzero"></path>
            </g>
        </g>
    </g>
</svg>