<?xml version="1.0" encoding="UTF-8"?>
<svg width="47px" height="50px" viewBox="0 0 47 50" version="1.1" xmlns="http://www.w3.org/2000/svg" xmlns:xlink="http://www.w3.org/1999/xlink">
    <title>6B291818-3357-40CB-A476-304A82AB05D1</title>
    <g id="Tutorial---Tool-tips" stroke="none" stroke-width="1" fill="none" fill-rule="evenodd">
        <g id="Mobile---APP---Help" transform="translate(-68.000000, -485.000000)" fill="#000000" fill-rule="nonzero">
            <g id="icon-navigation" transform="translate(68.084084, 485.000000)">
                <g id="noun_Pinch-Zoom-In_2620518" transform="translate(22.467267, 16.200000)">
                    <path d="M20.6343917,16.6663813 C20.1976716,16.667745 19.7732414,16.8103362 19.4251263,17.072645 C19.4220015,15.9581867 18.5137289,15.0559236 17.39332,15.0542817 C16.9561086,15.055118 16.5310514,15.1974897 16.1823848,15.4598811 C16.1792593,14.3452934 15.2707838,13.442977 14.1502445,13.4415179 C13.7142147,13.4433372 13.2905619,13.5859035 12.9429828,13.8477816 L12.9429828,9.82168508 C12.9429828,8.70513924 12.0330131,7.8 10.9105085,7.8 C9.788004,7.8 8.87803428,8.70513924 8.87803428,9.82168508 L8.87803428,20.7506103 C7.79233369,18.7956947 6.52195378,18.239615 5.76720652,18.0931209 C5.0324968,17.9516096 4.34186966,18.1103946 4.00757673,18.4973915 C2.96929831,19.6989089 4.24902907,21.2920738 4.6694834,21.8159314 C5.77922904,23.1984903 6.23909054,24.5375327 6.68125221,25.8327267 C7.24263723,27.473062 7.82339187,29.1695368 9.69589979,30.8743163 C11.1212997,32.1161058 12.9517379,32.8004553 14.8465489,32.8 C19.5981171,32.8 22.6678679,28.7058049 22.6678679,22.3693536 L22.6678679,18.6880663 C22.6667625,17.5715872 21.7568297,16.6669305 20.6343917,16.6663813 Z M21.8429892,22.3693536 C21.8429892,28.2978803 19.1616327,31.9808295 14.8452131,31.9808295 C13.1537868,31.9817667 11.5194622,31.3722517 10.2455962,30.265419 C8.53505842,28.7081302 8.01341452,27.1837278 7.46138035,25.5699674 C6.9938378,24.2080041 6.51327085,22.8008634 5.31302233,21.3060256 C4.03896888,19.7195044 4.48580597,19.2029549 4.63208,19.0332078 C4.92271557,18.8482318 5.28039021,18.7996452 5.61024581,18.9003333 C6.23541699,19.0209169 7.8076958,19.64742 8.89974161,22.8503592 C8.89974161,22.8556741 8.90575288,22.858996 8.90742267,22.8639788 C8.93174821,22.9394317 8.98293131,23.0034548 9.05135898,23.0440237 C9.07204186,23.0614666 9.09441566,23.0768225 9.11815078,23.0898654 C9.13988957,23.0976341 9.16222699,23.1036332 9.18494257,23.1078034 C9.21384629,23.1172726 9.2437782,23.1232941 9.27410961,23.1257415 C9.279119,23.1257415 9.28346047,23.1287312 9.28846985,23.1287312 C9.33236836,23.1181036 9.37703061,23.1108845 9.42205344,23.1071391 C9.42706282,23.1071391 9.43040241,23.1014919 9.43541179,23.0994988 C9.46148685,23.0878882 9.4862308,23.0735215 9.50921673,23.0566468 C9.53127655,23.0447513 9.55218244,23.030851 9.57166705,23.0151235 C9.58834162,22.9967929 9.60331919,22.9770029 9.61641755,22.9559944 C9.63407364,22.935513 9.64952033,22.9132454 9.66250389,22.8895571 C9.6780561,22.838722 9.69010655,22.7868916 9.69857146,22.7344262 C9.69857146,22.7294434 9.70157709,22.725125 9.70157709,22.7201422 L9.70157709,9.82168508 C9.70157707,9.39218688 9.93193445,8.99531418 10.3058758,8.78056508 C10.6798172,8.56581597 11.140532,8.56581597 11.5144733,8.78056508 C11.8884147,8.99531418 12.1187721,9.39218688 12.1187721,9.82168508 L12.1187721,19.49395 C12.1145016,19.643122 12.1920693,19.782817 12.3212804,19.8586563 C12.4504916,19.9344955 12.6109293,19.9344955 12.7401405,19.8586563 C12.8693517,19.782817 12.9469193,19.643122 12.9426488,19.49395 L12.9426488,15.4638673 C12.9426488,14.7999206 13.4837564,14.2616855 14.1512463,14.2616855 C14.8187363,14.2616855 15.3598438,14.7999206 15.3598438,15.4638673 L15.3598438,19.49395 C15.3555734,19.643122 15.433141,19.782817 15.5623522,19.8586563 C15.6915633,19.9344955 15.8520011,19.9344955 15.9812123,19.8586563 C16.1104234,19.782817 16.187991,19.643122 16.1837206,19.49395 L16.1837206,17.076299 C16.1837206,16.4121689 16.7249776,15.873785 17.3926521,15.873785 C18.0603265,15.873785 18.6015835,16.4121689 18.6015835,17.076299 L18.6015835,20.3114602 C18.6015835,20.457791 18.6800667,20.5930063 18.8074692,20.6661717 C18.9348717,20.7393371 19.0918381,20.7393371 19.2192406,20.6661717 C19.3466431,20.5930063 19.4251263,20.457791 19.4251263,20.3114602 L19.4251263,18.6880663 C19.4360929,18.0318188 19.9740499,17.5055382 20.6338908,17.5055382 C21.2937317,17.5055382 21.8316887,18.0318188 21.8426553,18.6880663 L21.8429892,22.3693536 Z" id="Shape"></path>
                    <path d="M7.84760612,12.7946304 C8.00909214,12.7946647 8.15681633,12.7083405 8.22947465,12.5714813 C8.30213297,12.4346221 8.28732318,12.2705889 8.19119118,12.1474537 C7.7248673,11.5536198 7.4732539,10.8326741 7.47385768,10.092084 C7.45569943,8.84057889 8.14886255,7.67669566 9.28803568,7.04591586 C10.4272088,6.41513605 11.8359908,6.41513605 12.9751639,7.04591586 C14.1143371,7.67669566 14.8075002,8.84057889 14.7893419,10.092084 C14.7903237,10.8324161 14.5394701,11.5532753 14.0740887,12.1474537 C13.9802586,12.2639662 13.9599257,12.41944 14.0208964,12.5541843 C14.0818671,12.6889287 14.2146654,12.7820017 14.3683062,12.79767 C14.5219471,12.8133384 14.6725518,12.7491669 14.7622989,12.6297928 C16.1415573,10.859785 15.8823352,8.3858048 14.1627943,6.90820206 C12.4432534,5.43059931 9.82341327,5.43059931 8.10387235,6.90820206 C6.38433144,8.3858048 6.12510938,10.859785 7.50436775,12.6297928 C7.58483089,12.7332057 7.71214681,12.7943481 7.84760612,12.7946304 Z" id="Path"></path>
                    <path d="M4.15950081,23.948645 C2.41746095,23.5400335 1.24633096,21.8154126 1.44146292,19.9460279 C1.63659488,18.0766432 3.13546177,16.6615102 4.92013481,16.6616914 C5.65336475,16.6611313 6.36795271,16.905123 6.96153978,17.3587165 C7.07972645,17.4559702 7.2389159,17.4773424 7.37646771,17.4144232 C7.51401952,17.351504 7.60791505,17.2143653 7.62120677,17.0569705 C7.6344985,16.8995758 7.56505874,16.74712 7.44021176,16.659594 C6.12616786,15.6603784 4.39158434,15.521416 2.94929669,16.2998142 C1.50700904,17.0782123 0.600306809,18.6426684 0.601801802,20.3502616 C0.612125452,22.4781007 2.0127244,24.3177607 3.98169889,24.7896893 C4.12438751,24.8231588 4.27318167,24.7738682 4.37203204,24.6603848 C4.47088241,24.5469014 4.50477127,24.386466 4.46093301,24.2395131 C4.41709474,24.0925601 4.30218944,23.9814153 4.15950081,23.9479458 L4.15950081,23.948645 Z" id="Path"></path>
                    <path d="M12.8502793,4.75182865 C12.9443614,4.80235601 13.05488,4.8136624 13.1573948,4.78324749 C13.2599096,4.75283257 13.3459741,4.68320233 13.3965557,4.58975501 L14.6722909,2.24001125 L14.8564547,2.84778744 C14.9078196,3.01686762 15.0649105,3.13263037 15.2431006,3.13271291 C15.2824234,3.13263012 15.3215305,3.12695366 15.3592252,3.11585725 C15.57266,3.05217853 15.693717,2.82922997 15.6297465,2.61764285 L15.1652481,1.08507444 C15.1652481,1.08183296 15.1616498,1.07956393 15.1606685,1.07664661 C15.0939512,0.869552452 14.8716918,0.754013951 14.6618233,0.81732877 L13.1162211,1.27761793 C12.9758809,1.31691575 12.8678441,1.42817079 12.8336106,1.56864698 C12.7993771,1.70912316 12.8442706,1.85697435 12.9510465,1.9554069 C13.0578223,2.05383945 13.2098751,2.08754563 13.3487974,2.04357799 L13.9618045,1.86108306 L12.6860693,4.21050267 C12.6353091,4.30384652 12.6240947,4.41336247 12.6548982,4.51490775 C12.6857018,4.61645302 12.7559941,4.70169017 12.8502793,4.75182865 Z" id="Path"></path>
                    <path d="M3.39929923,24.8478054 C3.20314312,24.7433115 2.95863544,24.8158014 2.8526452,25.0098735 L1.57679199,27.3598622 L1.39228399,26.7530789 C1.35073438,26.6162 1.23863985,26.5116815 1.09822533,26.4788945 C0.9578108,26.4461075 0.810408582,26.4900331 0.71154366,26.594125 C0.612678739,26.6982169 0.577371048,26.846661 0.618920653,26.9835398 L1.08346208,28.5154083 C1.09807852,28.5613143 1.12090532,28.6042429 1.1508533,28.6421456 C1.15903185,28.652518 1.16950039,28.6599731 1.17866036,28.6696972 C1.20302476,28.6962009 1.23099059,28.719219 1.26175439,28.73809 C1.26829722,28.7419796 1.27222293,28.7487865 1.27909291,28.752352 C1.28596288,28.7559175 1.29316001,28.7542968 1.29970284,28.7575381 C1.35227485,28.7837583 1.41000486,28.7982518 1.46883518,28.8 L1.46883518,28.8 L1.47341516,28.8 C1.50950609,28.7995533 1.54537418,28.7943206 1.58006341,28.7844415 L1.58529768,28.7844415 L3.13137006,28.3241678 C3.27172324,28.2848713 3.37977002,28.17362 3.4140067,28.0331486 C3.44824338,27.8926772 3.40334564,27.744831 3.29655993,27.6464017 C3.18977423,27.5479725 3.03770731,27.5142674 2.8987722,27.5582336 L2.28570838,27.7407224 L3.56156159,25.3907338 C3.61290854,25.2974576 3.62465636,25.1877627 3.59420927,25.085887 C3.56376218,24.9840113 3.49362647,24.8983409 3.39929923,24.8478054 L3.39929923,24.8478054 Z" id="Path"></path>
                </g>
                <g id="noun_Horizontal-Scroll_2620508">
                    <path d="M19.6130551,14.602 C19.1326926,14.6042298 18.6672734,14.7687362 18.2927688,15.0686667 L18.2927688,15.0136667 C18.2920318,13.8330244 17.3325356,12.8759535 16.1483483,12.8746667 C15.6679859,12.8768964 15.2025667,13.0414029 14.8280621,13.3413333 L14.8280621,13.2863333 C14.8267719,12.1057675 13.8670842,11.1491023 12.682973,11.148 C12.2028355,11.150354 11.7376678,11.3148549 11.3633554,11.6146667 L11.3633554,7.24033333 C11.3633553,6.05918037 10.4029662,5.10166673 9.21826627,5.10166673 C8.0335663,5.10166673 7.07317721,6.05918037 7.07317718,7.24033333 L7.07317718,19.0566667 C5.90701902,16.8943333 4.52822422,16.29 3.71478879,16.132 C2.9387988,15.9816667 2.21028428,16.1483333 1.86023624,16.556 C0.765625626,17.8253333 2.12202002,19.5196667 2.56835636,20.076 C3.75791792,21.5616667 4.24905506,23 4.72347548,24.3883333 C5.3226026,26.143 5.94245846,27.9573333 7.93843443,29.7786667 C9.45710215,31.1037553 11.4067497,31.8338983 13.4248609,31.8333337 C18.4866827,31.8333337 21.7578098,27.4573333 21.7578098,20.6843333 L21.7578098,16.7406667 C21.7567042,15.5601007 20.7971661,14.6032863 19.6130551,14.602 L19.6130551,14.602 Z M20.933007,20.6843333 C20.933007,27.054 18.0557257,31.0110019 13.4248609,31.0110019 C11.6097992,31.0122792 9.85591377,30.3569558 8.48874875,29.1666667 C6.65492492,27.4933333 6.09591792,25.8566667 5.50414615,24.124 C5.00665666,22.6673333 4.49278478,21.161 3.21261862,19.5636667 C1.8364985,17.8453333 2.32496096,17.279 2.48577578,17.0926667 C2.8030824,16.886881 3.19524426,16.8310256 3.55765165,16.94 C4.231001,17.07 5.92273273,17.745 7.09490891,21.1913333 C7.09658058,21.1963333 7.10092693,21.1996667 7.10293293,21.2046667 C7.11450414,21.230578 7.12885253,21.2551654 7.14572773,21.278 C7.15770008,21.3000185 7.17169032,21.3208852 7.18751952,21.3403333 C7.20637653,21.3576001 7.22686658,21.3730053 7.2487027,21.3863333 C7.26927568,21.4036294 7.29170037,21.418609 7.31556957,21.431 C7.33806901,21.4392397 7.36121823,21.445595 7.38477678,21.45 C7.41303674,21.4589015 7.44218363,21.4647135 7.4717037,21.4673333 C7.47705305,21.4673333 7.48106507,21.4703333 7.48641441,21.4703333 C7.50814975,21.4678661 7.52962829,21.4635163 7.55060661,21.4573333 C7.57310195,21.4563426 7.59547177,21.4534432 7.61747347,21.4486667 C7.62248849,21.4486667 7.62583183,21.443 7.63084685,21.441 C7.65699008,21.4294248 7.68176986,21.4150039 7.70473473,21.398 C7.72681935,21.3860635 7.74774875,21.3721151 7.76725526,21.3563333 C7.78395248,21.3378607 7.79905143,21.318012 7.81239039,21.297 C7.82996165,21.2764412 7.84531412,21.254096 7.85819419,21.2303333 C7.86616254,21.2086823 7.87220387,21.186374 7.87624825,21.1636667 C7.8856668,21.134543 7.89183358,21.1044722 7.89463664,21.074 C7.89463664,21.069 7.89731131,21.0646667 7.89731131,21.0596667 L7.89731131,7.24033333 C7.89731131,6.51315841 8.4885733,5.92366667 9.21793193,5.92366667 C9.94729056,5.92366667 10.5385526,6.51315841 10.5385526,7.24033333 L10.5385526,17.604 C10.5342773,17.7536872 10.6119321,17.8938646 10.7412885,17.9699657 C10.8706449,18.0460669 11.031263,18.0460669 11.1606194,17.9699657 C11.2899758,17.8938646 11.3676306,17.7536872 11.3633554,17.604 L11.3633554,13.2856667 C11.3633554,12.5584917 11.9546173,11.969 12.683976,11.969 C13.4133346,11.969 14.0045966,12.5584917 14.0045966,13.2856667 L14.0045966,17.604 C14.0003213,17.7536872 14.0779762,17.8938646 14.2073326,17.9699657 C14.336689,18.0460669 14.497307,18.0460669 14.6266634,17.9699657 C14.7560198,17.8938646 14.8336746,17.7536872 14.8293994,17.604 L14.8293994,15.013 C14.8293994,14.2858251 15.4206614,13.6963333 16.15002,13.6963333 C16.8793786,13.6963333 17.4706406,14.2858251 17.4706406,15.013 L17.4706406,18.4796667 C17.4769962,18.70219 17.65976,18.8792917 17.883042,18.8792917 C18.1063241,18.8792917 18.2890879,18.70219 18.2954434,18.4796667 L18.2954434,16.7406667 C18.2954434,16.0134917 18.8867054,15.424 19.6160641,15.424 C20.3454227,15.424 20.9366847,16.0134917 20.9366847,16.7406667 L20.933007,20.6843333 Z" id="Shape"></path>
                    <path d="M9.21826627,3.45666667 C10.1295029,3.45666667 10.8682062,2.72017508 10.8682062,1.81166667 C10.8682062,0.903158253 10.1295029,0.166666667 9.21826627,0.166666667 C8.3070296,0.166666667 7.56832633,0.903158253 7.56832633,1.81166667 C7.56924778,2.71979427 8.30741155,3.45574797 9.21826627,3.45666667 Z M9.21826627,0.99 C9.67393258,0.990736644 10.0427415,1.35958571 10.0420655,1.81388785 C10.0413875,2.26818999 9.67148089,2.63594481 9.21581439,2.63533227 C8.76014789,2.6347182 8.3912385,2.26596898 8.39179117,1.81166667 C8.39234538,1.35702853 8.76226255,0.988815675 9.21826627,0.988999931 L9.21826627,0.99 Z" id="Shape"></path>
                    <path d="M0.429285285,2.10266667 L1.59644645,3.266 C1.75822188,3.42308638 2.01660661,3.42131155 2.17619577,3.26201773 C2.33578494,3.10272391 2.33726895,2.84511093 2.17952553,2.684 L1.71680681,2.223 L6.33062062,2.223 C6.55381217,2.21666349 6.73144577,2.03444685 6.73144577,1.81183333 C6.73144577,1.58921982 6.55381217,1.40700317 6.33062062,1.40066667 L1.71680681,1.40066667 L2.17952553,0.939666667 C2.33726895,0.778555737 2.33578494,0.520942753 2.17619577,0.361648933 C2.01660661,0.202355114 1.75822188,0.200580283 1.59644645,0.357666667 L0.429285285,1.521 C0.42427027,1.526 0.422264264,1.533 0.417583584,1.53833333 C0.270643021,1.6912392 0.270643021,1.93242747 0.417583584,2.08533333 C0.422264264,2.09066667 0.42427027,2.09766667 0.429285285,2.10266667 Z" id="Path"></path>
                    <path d="M12.1055776,2.223 L16.7193914,2.223 L16.257007,2.684 C16.0956249,2.84453077 16.0953255,3.10510104 16.2563383,3.26599999 C16.4173512,3.42689895 16.6787039,3.42719743 16.8400861,3.26666667 L18.0069129,2.10333333 C18.0099219,2.10033333 18.0105906,2.09666667 18.0135996,2.09366667 C18.166225,1.93723444 18.166225,1.68809889 18.0135996,1.53166667 C18.0105906,1.52833333 18.0099219,1.52433333 18.0069129,1.52166667 L16.8400861,0.358333333 C16.6783107,0.201246949 16.4199259,0.20302178 16.2603368,0.3623156 C16.1007476,0.52160942 16.0992636,0.779222403 16.257007,0.940333333 L16.7193914,1.4 L12.1055776,1.4 C11.9554409,1.39573755 11.8148425,1.47315988 11.7385129,1.60212897 C11.6621832,1.73109807 11.6621832,1.89123527 11.7385129,2.02020436 C11.8148425,2.14917346 11.9554409,2.22659578 12.1055776,2.22233333 L12.1055776,2.223 Z" id="Path"></path>
                </g>
            </g>
        </g>
    </g>
</svg>