<?xml version="1.0" encoding="UTF-8"?>
<svg id="Layer_2" data-name="Layer 2" xmlns="http://www.w3.org/2000/svg" viewBox="0 0 17.6 8.7">
  <defs>
    <style>
      .cls-1 {
        fill: #fff;
      }

      .cls-2 {
        fill: #ee3124;
      }
    </style>
  </defs>
  <g id="Layer_1-2" data-name="Layer 1">
    <path class="cls-2" d="m16.39,0c-.67,0-1.21.54-1.21,1.2s.54,1.2,1.21,1.2,1.21-.54,1.21-1.2-.54-1.2-1.21-1.2h0Z"/>
    <polygon class="cls-1" points="15.51 8.6 15.51 2.95 17.27 2.95 17.27 8.6 15.51 8.6"/>
    <path class="cls-1" d="m14.91,5.78c0,1.61-1.32,2.92-2.94,2.92s-2.94-1.31-2.94-2.92,1.32-2.92,2.94-2.92,2.94,1.31,2.94,2.92h0Zm-2.94-1.2c-.67,0-1.21.54-1.21,1.2s.54,1.2,1.21,1.2,1.21-.54,1.21-1.2-.54-1.2-1.21-1.2h0Z"/>
    <path class="cls-1" d="m1.74,8.6v-3.02c0-.65.28-.99.79-.99s.79.34.79.99v3.02h1.77v-3.02c0-.65.24-.99.79-.99s.79.34.79.99v3.02h1.77v-3.23c0-1.47-.75-2.51-2.23-2.51-.59,0-1.2.2-1.61.68-.38-.49-.93-.68-1.48-.68-.65,0-1.1.3-1.39.65v-.54H0v5.64h1.74Z"/>
  </g>
</svg>