<?xml version="1.0" encoding="UTF-8"?>
<svg width="150px" height="40px" viewBox="0 0 150 40" version="1.1" xmlns="http://www.w3.org/2000/svg" xmlns:xlink="http://www.w3.org/1999/xlink">
    <title>Button - Print - FR - GRN</title>
    <g id="TransCon-Direction" stroke="none" stroke-width="1" fill="none" fill-rule="evenodd">
        <g id="Button---Print---FR---GRN">
            <rect id="button" fill="#00A651" x="0" y="0" width="150" height="40" rx="4"></rect>
            <path d="M60.140625,26 L60.140625,14.5234375 L58.5703125,14.5234375 L58.5703125,26 L60.140625,26 Z M63.8828125,26 L63.8828125,21.5625 C63.8828125,20.484375 64.1002604,19.7395833 64.5351562,19.328125 C64.9700521,18.9166667 65.453125,18.7109375 65.984375,18.7109375 C66.5677083,18.7109375 66.9661458,18.90625 67.1796875,19.296875 C67.3151042,19.5572917 67.3828125,19.9713542 67.3828125,20.5390625 L67.3828125,20.5390625 L67.3828125,26 L68.8125,26 L68.8125,21.1328125 C68.8125,20.2682292 69.0117188,19.6510417 69.4101562,19.28125 C69.8085938,18.9114583 70.2838542,18.7265625 70.8359375,18.7265625 C71.2369792,18.7265625 71.5768229,18.8307292 71.8554688,19.0390625 C72.1341146,19.2473958 72.2734375,19.6302083 72.2734375,20.1875 L72.2734375,20.1875 L72.2734375,26 L73.734375,26 L73.734375,20.4296875 C73.734375,19.6901042 73.625,19.1015625 73.40625,18.6640625 C73,17.8515625 72.234375,17.4453125 71.109375,17.4453125 C70.5833333,17.4453125 70.109375,17.5533854 69.6875,17.7695312 C69.265625,17.9856771 68.8984375,18.3177083 68.5859375,18.765625 C68.3984375,18.4010417 68.1901042,18.125 67.9609375,17.9375 C67.5546875,17.609375 67.0182292,17.4453125 66.3515625,17.4453125 C65.7630208,17.4453125 65.2369792,17.6041667 64.7734375,17.921875 C64.5026042,18.109375 64.2005208,18.4088542 63.8671875,18.8203125 L63.8671875,18.8203125 L63.8671875,17.6328125 L62.4765625,17.6328125 L62.4765625,26 L63.8828125,26 Z M77.1015625,29.3359375 L77.1015625,25.0625 C77.4088542,25.4427083 77.6875,25.7109375 77.9375,25.8671875 C78.3645833,26.1432292 78.8932292,26.28125 79.5234375,26.28125 C80.3255208,26.28125 81.0286458,26.0338542 81.6328125,25.5390625 C82.5859375,24.7578125 83.0625,23.4557292 83.0625,21.6328125 C83.0625,20.2838542 82.7317708,19.2460938 82.0703125,18.5195312 C81.4088542,17.7929688 80.6041667,17.4296875 79.65625,17.4296875 C79.015625,17.4296875 78.4583333,17.5859375 77.984375,17.8984375 C77.6510417,18.1067708 77.34375,18.4010417 77.0625,18.78125 L77.0625,18.78125 L77.0625,17.671875 L75.6953125,17.671875 L75.6953125,29.3359375 L77.1015625,29.3359375 Z M79.3359375,25.0546875 C78.3671875,25.0546875 77.7005208,24.6223958 77.3359375,23.7578125 C77.1432292,23.3046875 77.046875,22.7552083 77.046875,22.109375 C77.046875,21.3072917 77.1432292,20.6458333 77.3359375,20.125 C77.6953125,19.1510417 78.3619792,18.6640625 79.3359375,18.6640625 C80.3046875,18.6640625 80.9713542,19.125 81.3359375,20.046875 C81.5286458,20.5260417 81.625,21.0989583 81.625,21.765625 C81.625,22.859375 81.4075521,23.6809896 80.9726562,24.2304688 C80.5377604,24.7799479 79.9921875,25.0546875 79.3359375,25.0546875 Z M86.1484375,26 L86.1484375,21.1875 C86.1484375,20.59375 86.3385417,20.0690104 86.71875,19.6132812 C87.0989583,19.1575521 87.6432292,18.9296875 88.3515625,18.9296875 C88.4348958,18.9296875 88.5117188,18.9322917 88.5820312,18.9375 C88.6523438,18.9427083 88.7291667,18.953125 88.8125,18.96875 L88.8125,18.96875 L88.8125,17.484375 C88.6614583,17.46875 88.5546875,17.4583333 88.4921875,17.453125 C88.4296875,17.4479167 88.3854167,17.4453125 88.359375,17.4453125 C87.8020833,17.4453125 87.3098958,17.6471354 86.8828125,18.0507812 C86.4557292,18.4544271 86.1875,18.796875 86.078125,19.078125 L86.078125,19.078125 L86.078125,17.6328125 L84.7421875,17.6328125 L84.7421875,26 L86.1484375,26 Z M91.4609375,16.1171875 L91.4609375,14.5234375 L90.03125,14.5234375 L90.03125,16.1171875 L91.4609375,16.1171875 Z M91.4609375,26 L91.4609375,17.671875 L90.03125,17.671875 L90.03125,26 L91.4609375,26 Z M94.9921875,26 L94.9921875,21.5625 C94.9921875,20.484375 95.2096354,19.7395833 95.6445312,19.328125 C96.0794271,18.9166667 96.5625,18.7109375 97.09375,18.7109375 C97.6770833,18.7109375 98.0755208,18.90625 98.2890625,19.296875 C98.4244792,19.5572917 98.4921875,19.9713542 98.4921875,20.5390625 L98.4921875,20.5390625 L98.4921875,26 L99.921875,26 L99.921875,21.1328125 C99.921875,20.2682292 100.121094,19.6510417 100.519531,19.28125 C100.917969,18.9114583 101.393229,18.7265625 101.945312,18.7265625 C102.346354,18.7265625 102.686198,18.8307292 102.964844,19.0390625 C103.24349,19.2473958 103.382812,19.6302083 103.382812,20.1875 L103.382812,20.1875 L103.382812,26 L104.84375,26 L104.84375,20.4296875 C104.84375,19.6901042 104.734375,19.1015625 104.515625,18.6640625 C104.109375,17.8515625 103.34375,17.4453125 102.21875,17.4453125 C101.692708,17.4453125 101.21875,17.5533854 100.796875,17.7695312 C100.375,17.9856771 100.007812,18.3177083 99.6953125,18.765625 C99.5078125,18.4010417 99.2994792,18.125 99.0703125,17.9375 C98.6640625,17.609375 98.1276042,17.4453125 97.4609375,17.4453125 C96.8723958,17.4453125 96.3463542,17.6041667 95.8828125,17.921875 C95.6119792,18.109375 95.3098958,18.4088542 94.9765625,18.8203125 L94.9765625,18.8203125 L94.9765625,17.6328125 L93.5859375,17.6328125 L93.5859375,26 L94.9921875,26 Z M110.179688,26.296875 C110.606771,26.296875 110.989583,26.2552083 111.328125,26.171875 C111.958333,26.0260417 112.486979,25.7447917 112.914062,25.328125 C113.169271,25.0885417 113.39974,24.7799479 113.605469,24.4023438 C113.811198,24.0247396 113.932292,23.6822917 113.96875,23.375 L113.96875,23.375 L112.585938,23.375 C112.481771,23.7447917 112.304688,24.0703125 112.054688,24.3515625 C111.617188,24.8359375 111.03125,25.078125 110.296875,25.078125 C109.510417,25.078125 108.929688,24.8216146 108.554688,24.3085938 C108.179688,23.7955729 107.979167,23.1145833 107.953125,22.265625 L107.953125,22.265625 L114.085938,22.265625 C114.085938,21.421875 114.044271,20.8072917 113.960938,20.421875 C113.867188,19.859375 113.679688,19.3671875 113.398438,18.9453125 C113.106771,18.5026042 112.682292,18.1419271 112.125,17.8632812 C111.567708,17.5846354 110.992188,17.4453125 110.398438,17.4453125 C109.221354,17.4453125 108.268229,17.8645833 107.539062,18.703125 C106.809896,19.5416667 106.445312,20.6328125 106.445312,21.9765625 C106.445312,23.3411458 106.807292,24.4023438 107.53125,25.1601562 C108.255208,25.9179688 109.138021,26.296875 110.179688,26.296875 Z M112.640625,21.1484375 L107.992188,21.1484375 C108.018229,20.4296875 108.25,19.8372396 108.6875,19.3710938 C109.125,18.9049479 109.666667,18.671875 110.3125,18.671875 C111.213542,18.671875 111.856771,19.0104167 112.242188,19.6875 C112.450521,20.0520833 112.583333,20.5390625 112.640625,21.1484375 L112.640625,21.1484375 Z M117.257812,26 L117.257812,21.1875 C117.257812,20.59375 117.447917,20.0690104 117.828125,19.6132812 C118.208333,19.1575521 118.752604,18.9296875 119.460938,18.9296875 C119.544271,18.9296875 119.621094,18.9322917 119.691406,18.9375 C119.761719,18.9427083 119.838542,18.953125 119.921875,18.96875 L119.921875,18.96875 L119.921875,17.484375 C119.770833,17.46875 119.664062,17.4583333 119.601562,17.453125 C119.539062,17.4479167 119.494792,17.4453125 119.46875,17.4453125 C118.911458,17.4453125 118.419271,17.6471354 117.992188,18.0507812 C117.565104,18.4544271 117.296875,18.796875 117.1875,19.078125 L117.1875,19.078125 L117.1875,17.6328125 L115.851562,17.6328125 L115.851562,26 L117.257812,26 Z" id="Imprimer" fill="#FFFFFF" fill-rule="nonzero"></path>
            <path d="M46,16 L32,16 C30.34,16 29,17.34 29,19 L29,25 L33,25 L33,29 L45,29 L45,25 L49,25 L49,19 C49,17.34 47.66,16 46,16 Z M43,27 L35,27 L35,22 L43,22 L43,27 Z M46,20 C45.45,20 45,19.55 45,19 C45,18.45 45.45,18 46,18 C46.55,18 47,18.45 47,19 C47,19.55 46.55,20 46,20 Z M45,11 L33,11 L33,15 L45,15 L45,11 Z" id="icon-print" fill="#FFFFFF" fill-rule="nonzero"></path>
        </g>
    </g>
</svg>