<?xml version="1.0" encoding="UTF-8"?>
<svg width="150px" height="40px" viewBox="0 0 150 40" version="1.1" xmlns="http://www.w3.org/2000/svg" xmlns:xlink="http://www.w3.org/1999/xlink">
    <title>Button - Print - ENG - Grey</title>
    <g id="TransCon-Direction" stroke="none" stroke-width="1" fill="none" fill-rule="evenodd">
        <g id="Button---Print---ENG---Grey">
            <rect id="button-grey" fill="#F3F3F3" x="0" y="0" width="150" height="40" rx="4"></rect>
            <path d="M61,16 L47,16 C45.34,16 44,17.34 44,19 L44,25 L48,25 L48,29 L60,29 L60,25 L64,25 L64,19 C64,17.34 62.66,16 61,16 Z M58,27 L50,27 L50,22 L58,22 L58,27 Z M61,20 C60.45,20 60,19.55 60,19 C60,18.45 60.45,18 61,18 C61.55,18 62,18.45 62,19 C62,19.55 61.55,20 61,20 Z M60,11 L48,11 L48,15 L60,15 L60,11 Z" id="icon-print" fill="#333333" fill-rule="nonzero"></path>
            <path d="M74.921875,26 L74.921875,21.1484375 L78.53125,21.1484375 C79.6875,21.1484375 80.5442708,20.8164062 81.1015625,20.1523438 C81.6588542,19.4882812 81.9375,18.7083333 81.9375,17.8125 C81.9375,16.7708333 81.625,15.9622396 81,15.3867188 C80.375,14.8111979 79.5520833,14.5234375 78.53125,14.5234375 L78.53125,14.5234375 L73.3671875,14.5234375 L73.3671875,26 L74.921875,26 Z M78.015625,19.8359375 L74.921875,19.8359375 L74.921875,15.859375 L78.015625,15.859375 C78.6145833,15.859375 79.0859375,15.9401042 79.4296875,16.1015625 C80.0546875,16.4036458 80.3671875,16.9765625 80.3671875,17.8203125 C80.3671875,18.5703125 80.1497396,19.09375 79.7148438,19.390625 C79.2799479,19.6875 78.7135417,19.8359375 78.015625,19.8359375 L78.015625,19.8359375 Z M85.1484375,26 L85.1484375,21.1875 C85.1484375,20.59375 85.3385417,20.0690104 85.71875,19.6132812 C86.0989583,19.1575521 86.6432292,18.9296875 87.3515625,18.9296875 C87.4348958,18.9296875 87.5117188,18.9322917 87.5820312,18.9375 C87.6523438,18.9427083 87.7291667,18.953125 87.8125,18.96875 L87.8125,18.96875 L87.8125,17.484375 C87.6614583,17.46875 87.5546875,17.4583333 87.4921875,17.453125 C87.4296875,17.4479167 87.3854167,17.4453125 87.359375,17.4453125 C86.8020833,17.4453125 86.3098958,17.6471354 85.8828125,18.0507812 C85.4557292,18.4544271 85.1875,18.796875 85.078125,19.078125 L85.078125,19.078125 L85.078125,17.6328125 L83.7421875,17.6328125 L83.7421875,26 L85.1484375,26 Z M90.4609375,16.1171875 L90.4609375,14.5234375 L89.03125,14.5234375 L89.03125,16.1171875 L90.4609375,16.1171875 Z M90.4609375,26 L90.4609375,17.671875 L89.03125,17.671875 L89.03125,26 L90.4609375,26 Z M93.9921875,26 L93.9921875,21.6171875 C93.9921875,21.0703125 94.0273438,20.6497396 94.0976562,20.3554688 C94.1679688,20.0611979 94.3203125,19.7760417 94.5546875,19.5 C94.8463542,19.15625 95.1848958,18.9270833 95.5703125,18.8125 C95.7838542,18.7447917 96.0572917,18.7109375 96.390625,18.7109375 C97.046875,18.7109375 97.5,18.9713542 97.75,19.4921875 C97.9010417,19.8046875 97.9765625,20.2161458 97.9765625,20.7265625 L97.9765625,20.7265625 L97.9765625,26 L99.40625,26 L99.40625,20.6328125 C99.40625,19.7890625 99.2916667,19.140625 99.0625,18.6875 C98.6458333,17.859375 97.84375,17.4453125 96.65625,17.4453125 C96.1145833,17.4453125 95.6223958,17.5520833 95.1796875,17.765625 C94.7369792,17.9791667 94.3177083,18.3307292 93.921875,18.8203125 L93.921875,18.8203125 L93.921875,17.6328125 L92.5859375,17.6328125 L92.5859375,26 L93.9921875,26 Z M103.453125,26.1328125 C103.65625,26.1328125 103.845052,26.1223958 104.019531,26.1015625 C104.19401,26.0807292 104.361979,26.046875 104.523438,26 L104.523438,26 L104.523438,24.890625 C104.419271,24.9010417 104.328125,24.9075521 104.25,24.9101562 C104.171875,24.9127604 104.098958,24.9140625 104.03125,24.9140625 C103.776042,24.9140625 103.59375,24.8854167 103.484375,24.828125 C103.286458,24.7291667 103.1875,24.5338542 103.1875,24.2421875 L103.1875,24.2421875 L103.1875,18.78125 L104.523438,18.78125 L104.523438,17.6328125 L103.1875,17.6328125 L103.1875,15.296875 L101.765625,15.296875 L101.765625,17.6328125 L100.632812,17.6328125 L100.632812,18.78125 L101.765625,18.78125 L101.765625,24.3203125 C101.765625,24.8567708 101.882812,25.2929688 102.117188,25.6289062 C102.351562,25.9648438 102.796875,26.1328125 103.453125,26.1328125 Z" id="Print" fill="#333333" fill-rule="nonzero"></path>
        </g>
    </g>
</svg>