<?xml version="1.0" encoding="UTF-8"?>
<svg width="12px" height="16px" viewBox="0 0 12 16" version="1.1" xmlns="http://www.w3.org/2000/svg" xmlns:xlink="http://www.w3.org/1999/xlink">
    <title>Path</title>
    <g id="TransCon-Direction" stroke="none" stroke-width="1" fill="none" fill-rule="evenodd">
        <g id="SuperC---Search-&amp;-Filter-On/Off-States---FR-" transform="translate(-1386.000000, -537.000000)" fill="#FFFFFF" fill-rule="nonzero">
            <g id="Group-7" transform="translate(331.000000, 527.000000)">
                <g id="Group-6" transform="translate(912.000000, 6.000000)">
                    <path d="M153.005582,14.8736142 C153.259696,14.4833703 153.241545,13.6496674 152.715166,13.3658537 C152.315844,13.1707317 151.862069,13.2416851 151.644257,13.4190687 C151.299388,13.6141907 150.97267,14.27051 150.97267,14.9268293 L152.152485,14.9268293 L152.152485,16.2039911 L149.7021,16.2039911 C149.738402,16.8603104 150.101422,17.3924612 150.79116,17.6940133 C150.700405,17.9778271 150.282932,18.5454545 149.720251,18.5099778 C149.611345,19.113082 149.502439,19.4501109 148.994211,20 C148.485983,19.4501109 148.377077,19.113082 148.268171,18.5099778 C147.70549,18.5454545 147.288017,17.9778271 147.197262,17.6940133 C147.887,17.3924612 148.25002,16.8780488 148.286322,16.2039911 L145.835937,16.2039911 L145.835937,14.9268293 L147.015752,14.9268293 C147.015752,14.27051 146.689034,13.631929 146.344165,13.4190687 C146.126353,13.2416851 145.672578,13.1707317 145.273256,13.3658537 C144.746877,13.6674058 144.728726,14.5011086 144.98284,14.8736142 C142.496153,14.4301552 142.750267,12.0886918 143.585213,11.2372506 C144.274951,10.5454545 145.019142,10.4390244 145.581823,10.6518847 C146.888695,11.113082 147.759943,12.6385809 147.814396,14.9090909 L148.504134,14.9090909 C148.504134,12.8337029 148.141114,12.1773836 147.179111,9.58758315 C146.725336,8.345898 147.015752,6.83813747 147.868849,5.4368071 C148.177416,4.94013304 148.558587,4.4789357 149.012362,4 C149.447986,4.4789357 149.847308,4.94013304 150.155875,5.4368071 C151.008972,6.83813747 151.299388,8.345898 150.827462,9.58758315 C149.865459,12.1773836 149.502439,12.8514412 149.502439,14.9090909 L150.192177,14.9090909 C150.228479,12.6385809 151.117878,11.113082 152.42475,10.6518847 C153.005582,10.4390244 153.749773,10.5454545 154.42136,11.2372506 C155.256306,12.0709534 155.492269,14.4124169 153.005582,14.8736142 Z" id="Path"></path>
                </g>
            </g>
        </g>
    </g>
</svg>