<svg id="Layer_1" data-name="Layer 1" xmlns="http://www.w3.org/2000/svg" xmlns:xlink="http://www.w3.org/1999/xlink" viewBox="0 0 57 13.8"><defs><style>.cls-1,.cls-5{fill:none;}.cls-2{clip-path:url(#clip-path);}.cls-3{fill:#ed1c24;}.cls-4{fill:#fff;}.cls-5{stroke:#fff;stroke-miterlimit:3.73;stroke-width:0.12px;}</style><clipPath id="clip-path" transform="translate(-388 -154.2)"><rect class="cls-1" x="388" y="154.2" width="57" height="13.8"/></clipPath></defs><title>Great Value_Red_BI</title><g class="cls-2"><path class="cls-3" d="M444.88,160.68l-2.61-5.88a1,1,0,0,0-.88-.6H391.44a1,1,0,0,0-.87.6l-2.46,5.87a1.67,1.67,0,0,0,0,1.2l2.44,5.53a1,1,0,0,0,.88.6h49.95a1,1,0,0,0,.89-.59l2.59-5.54a1.54,1.54,0,0,0,0-1.19" transform="translate(-388 -154.2)"/><path class="cls-4" d="M432.84,166.05l.13-.64h-1.44l.25-1.21h1.29l.14-.64h-1.29l.22-1h1.4l.13-.64H431.4l-.88,4.15Zm-3.27-4.15-.61,2.89c-.09.46-.32.71-.7.71s-.49-.2-.38-.71l.61-2.89h-.87l-.62,2.94c-.17.79.18,1.28,1.14,1.28a1.6,1.6,0,0,0,1.68-1.28l.62-2.94Zm-3.21,4.15.15-.69h-1.3l.73-3.46h-.87l-.88,4.15Zm-3.76-1.56h-.83l.78-1.79h0ZM421,166.05l.43-.92h1.19l0,.92h.91l-.24-4.15H422.2l-2,4.15Zm-3,0h1l2-4.15h-.86l-1.36,3h0v-3h-.9Zm-4.52-4.15-.14.69h1l-.73,3.46h.86l.74-3.46h1l.14-.69Zm-1.89,2.59h-.83l.77-1.79h0Zm-1.57,1.56.43-.92h1.18l0,.92h.91l-.25-4.15h-1.14l-2,4.15Zm-1.22,0,.14-.64h-1.44l.25-1.21h1.29l.14-.64h-1.29l.22-1h1.4l.13-.64h-2.27l-.88,4.15Zm-4.56-1.72h.23c.67,0,.53.42.42.92a2,2,0,0,0-.08.8h.85a5.92,5.92,0,0,1,.17-1.22c.16-.75-.4-.79-.59-.82h0a1.16,1.16,0,0,0,1-1c.15-.71-.15-1.09-.74-1.09h-1.6l-.88,4.15h.87Zm.38-1.79h.39c.28,0,.41.15.33.54s-.23.61-.58.61h-.38Zm-2,.64c.24-.87-.19-1.35-1-1.35-1.42,0-1.69,1.06-1.92,2.11-.33,1.58-.3,2.18,1.16,2.18a8.07,8.07,0,0,0,1.21-.14l.44-2.1H401.2l-.13.63h.47l-.19.93a1.86,1.86,0,0,1-.45.08c-.5,0-.58-.23-.3-1.53.17-.81.33-1.54.87-1.54s.45.34.36.73Z" transform="translate(-388 -154.2)"/><path class="cls-5" d="M432.84,166.05l.13-.64h-1.44l.25-1.21h1.29l.14-.64h-1.29l.22-1h1.4l.13-.64H431.4l-.88,4.15Zm-3.27-4.15-.61,2.89c-.09.46-.32.71-.7.71s-.49-.2-.38-.71l.61-2.89h-.87l-.62,2.94c-.17.79.18,1.28,1.14,1.28a1.6,1.6,0,0,0,1.68-1.28l.62-2.94Zm-3.21,4.15.15-.69h-1.3l.73-3.46h-.87l-.88,4.15Zm-3.76-1.56h-.83l.78-1.79h0ZM421,166.05l.43-.92h1.19l0,.92h.91l-.24-4.15H422.2l-2,4.15Zm-3,0h1l2-4.15h-.86l-1.36,3h0v-3h-.9Zm-4.52-4.15-.14.69h1l-.73,3.46h.86l.74-3.46h1l.14-.69Zm-1.89,2.59h-.83l.77-1.79h0Zm-1.57,1.56.43-.92h1.18l0,.92h.91l-.25-4.15h-1.14l-2,4.15Zm-1.22,0,.14-.64h-1.44l.25-1.21h1.29l.14-.64h-1.29l.22-1h1.4l.13-.64h-2.27l-.88,4.15Zm-4.56-1.72h.23c.67,0,.53.42.42.92a2,2,0,0,0-.08.8h.85a5.92,5.92,0,0,1,.17-1.22c.16-.75-.4-.79-.59-.82h0a1.16,1.16,0,0,0,1-1c.15-.71-.15-1.09-.74-1.09h-1.6l-.88,4.15h.87Zm.38-1.79h.39c.28,0,.41.15.33.54s-.23.61-.58.61h-.38Zm-2,.64c.24-.87-.19-1.35-1-1.35-1.42,0-1.69,1.06-1.92,2.11-.33,1.58-.3,2.18,1.16,2.18a8.07,8.07,0,0,0,1.21-.14l.44-2.1H401.2l-.13.63h.47l-.19.93a1.86,1.86,0,0,1-.45.08c-.5,0-.58-.23-.3-1.53.17-.81.33-1.54.87-1.54s.45.34.36.73Z" transform="translate(-388 -154.2)"/><path class="cls-4" d="M438.13,158.13l-1.54,2.17h.9l.94-1.43.33,1.43h1l-.61-2.1,1.47-2h-.9l-.87,1.36-.31-1.36h-1Zm-2.05-2-.61,2.89c-.1.46-.33.71-.71.71s-.48-.2-.37-.71l.6-2.89h-.86l-.62,2.94c-.17.79.18,1.28,1.13,1.28a1.6,1.6,0,0,0,1.69-1.28l.62-2.94Zm-3.56,4.15.14-.64h-1.45l.26-1.21h1.29l.13-.64h-1.28l.21-1h1.4l.13-.64h-2.26l-.88,4.15Zm-2.68-2.87c.24-.87-.18-1.35-1-1.35-1.42,0-1.69,1.06-1.92,2.11-.33,1.58-.29,2.18,1.17,2.18a7.93,7.93,0,0,0,1.2-.14l.45-2.1h-1.34l-.14.64h.48l-.2.92a1.78,1.78,0,0,1-.45.08c-.49,0-.57-.23-.3-1.53.17-.81.33-1.54.87-1.54s.45.34.36.73ZM425,158.74h-.83l.78-1.79h0Zm-1.57,1.56.43-.92H425l0,.92H426l-.25-4.15h-1.15l-2,4.15Zm-2.8-4.15-.14.69h1l-.74,3.46h.87l.73-3.46h1l.14-.69ZM417,160.3l.64-3h0l.48,3h1.15l.88-4.15h-.81l-.61,2.87h0l-.5-2.87H417l-.88,4.15Zm-2.4-1.56h-.83l.78-1.79h0ZM413,160.3l.43-.92h1.18l0,.92h.91l-.24-4.15h-1.15l-2,4.15Zm-3,0h1l2-4.15h-.86l-1.36,3h0v-3h-.9Zm-2-1.56h-.83L408,157h0Zm-1.57,1.56.43-.92h1.19l0,.92H409l-.24-4.15h-1.15l-2,4.15Zm-4-2.17-1.54,2.17h.9l.94-1.43.34,1.43h1l-.61-2.1,1.47-2H404l-.87,1.36-.3-1.36h-1Zm-2.09,2.17.88-4.15h-.87l-.88,4.15Zm-3.12-1.72h.23c.66,0,.53.42.42.92a2,2,0,0,0-.08.8h.85a6.6,6.6,0,0,1,.16-1.22c.16-.75-.39-.79-.58-.81v0a1.15,1.15,0,0,0,1-1c.15-.71-.15-1.09-.74-1.09h-1.6L396,160.3h.86Zm.38-1.79H398c.27,0,.41.15.33.54s-.23.61-.58.61h-.38Zm-5,3.51h.87l.35-1.69h.65a1.39,1.39,0,0,0,1.42-1.22c.16-.76-.06-1.24-.85-1.24h-1.56Zm1.61-3.51h.44c.39,0,.42.29.35.62s-.3.56-.56.56H394Z" transform="translate(-388 -154.2)"/><path class="cls-5" d="M438.13,158.13l-1.54,2.17h.9l.94-1.43.33,1.43h1l-.61-2.1,1.47-2h-.9l-.87,1.36-.31-1.36h-1Zm-2.05-2-.61,2.89c-.1.46-.33.71-.71.71s-.48-.2-.37-.71l.6-2.89h-.86l-.62,2.94c-.17.79.18,1.28,1.13,1.28a1.6,1.6,0,0,0,1.69-1.28l.62-2.94Zm-3.56,4.15.14-.64h-1.45l.26-1.21h1.29l.13-.64h-1.28l.21-1h1.4l.13-.64h-2.26l-.88,4.15Zm-2.68-2.87c.24-.87-.18-1.35-1-1.35-1.42,0-1.69,1.06-1.92,2.11-.33,1.58-.29,2.18,1.17,2.18a7.93,7.93,0,0,0,1.2-.14l.45-2.1h-1.34l-.14.64h.48l-.2.92a1.78,1.78,0,0,1-.45.08c-.49,0-.57-.23-.3-1.53.17-.81.33-1.54.87-1.54s.45.34.36.73ZM425,158.74h-.83l.78-1.79h0Zm-1.57,1.56.43-.92H425l0,.92H426l-.25-4.15h-1.15l-2,4.15Zm-2.8-4.15-.14.69h1l-.74,3.46h.87l.73-3.46h1l.14-.69ZM417,160.3l.64-3h0l.48,3h1.15l.88-4.15h-.81l-.61,2.87h0l-.5-2.87H417l-.88,4.15Zm-2.4-1.56h-.83l.78-1.79h0ZM413,160.3l.43-.92h1.18l0,.92h.91l-.24-4.15h-1.15l-2,4.15Zm-3,0h1l2-4.15h-.86l-1.36,3h0v-3h-.9Zm-2-1.56h-.83L408,157h0Zm-1.57,1.56.43-.92h1.19l0,.92H409l-.24-4.15h-1.15l-2,4.15Zm-4-2.17-1.54,2.17h.9l.94-1.43.34,1.43h1l-.61-2.1,1.47-2H404l-.87,1.36-.3-1.36h-1Zm-2.09,2.17.88-4.15h-.87l-.88,4.15Zm-3.12-1.72h.23c.66,0,.53.42.42.92a2,2,0,0,0-.08.8h.85a6.6,6.6,0,0,1,.16-1.22c.16-.75-.39-.79-.58-.81v0a1.15,1.15,0,0,0,1-1c.15-.71-.15-1.09-.74-1.09h-1.6L396,160.3h.86Zm.38-1.79H398c.27,0,.41.15.33.54s-.23.61-.58.61h-.38Zm-5,3.51h.87l.35-1.69h.65a1.39,1.39,0,0,0,1.42-1.22c.16-.76-.06-1.24-.85-1.24h-1.56Zm1.61-3.51h.44c.39,0,.42.29.35.62s-.3.56-.56.56H394Z" transform="translate(-388 -154.2)"/></g></svg>