<svg id="Layer_1" data-name="Layer 1" xmlns="http://www.w3.org/2000/svg" xmlns:xlink="http://www.w3.org/1999/xlink" viewBox="0 0 54.39 12.13"><defs><style>.cls-1,.cls-5{fill:none;}.cls-2{clip-path:url(#clip-path);}.cls-3{fill:#ed1c24;}.cls-4{fill:#fff;}.cls-5{stroke:#fff;stroke-miterlimit:3.73;stroke-width:0.12px;}</style><clipPath id="clip-path" transform="translate(-390 -155.87)"><rect class="cls-1" x="390" y="155.87" width="54.39" height="12.13"/></clipPath></defs><title>Great Value_Red_EN</title><g class="cls-2"><path class="cls-3" d="M444.28,161.56l-2.49-5.16a1,1,0,0,0-.84-.53H393.28a1,1,0,0,0-.83.53l-2.34,5.16a1.33,1.33,0,0,0,0,1.06l2.32,4.85a1,1,0,0,0,.84.53H441a1,1,0,0,0,.85-.52l2.47-4.87a1.26,1.26,0,0,0,0-1.05" transform="translate(-390 -155.87)"/><path class="cls-4" d="M438.09,165l.18-.93h-1.89l.33-1.78h1.69l.18-.93h-1.69l.29-1.5H439l.18-.93h-3L435.05,165Zm-4.25-6.07-.8,4.22c-.13.67-.43,1-.93,1s-.64-.29-.5-1l.8-4.22h-1.14l-.81,4.3c-.22,1.15.24,1.87,1.49,1.87a2.17,2.17,0,0,0,2.22-1.87l.81-4.3ZM429.67,165l.2-1h-1.71l1-5.06H428L426.82,165Zm-4.9-2.28h-1.09l1-2.62h0ZM422.71,165l.57-1.35h1.55l.05,1.35h1.2l-.33-6.07h-1.5L421.58,165Zm-3.78,0h1.34l2.6-6.07h-1.13L420,163.31h0V158.9h-1.19ZM413,158.9l-.19,1h1.27l-1,5.06h1.14l1-5.06h1.27l.19-1Zm-2.44,3.79h-1.08l1-2.62h0ZM408.49,165l.57-1.35h1.56l0,1.35h1.2l-.32-6.07H410L407.37,165ZM407,165l.18-.93h-1.9l.33-1.78h1.7l.18-.93h-1.7l.29-1.5h1.84l.17-.93h-3L403.91,165Zm-6-2.51h.3c.87,0,.69.61.55,1.33a3.21,3.21,0,0,0-.1,1.18h1.12a8.56,8.56,0,0,1,.21-1.78c.21-1.1-.52-1.16-.76-1.2h0a1.62,1.62,0,0,0,1.29-1.49c.2-1-.19-1.59-1-1.59h-2.11L399.37,165h1.14Zm.5-2.63H402c.36,0,.53.22.43.8-.08.39-.31.89-.76.89h-.51Zm-2.55.94c.31-1.27-.25-2-1.37-2-1.86,0-2.23,1.56-2.52,3.08-.44,2.31-.39,3.19,1.52,3.19a11.09,11.09,0,0,0,1.59-.2l.58-3.08H397l-.17.93h.62l-.26,1.35a1.77,1.77,0,0,1-.59.12c-.65,0-.75-.34-.39-2.24.23-1.17.43-2.24,1.14-2.24s.6.49.48,1.06Z" transform="translate(-390 -155.87)"/><path class="cls-5" d="M438.09,165l.18-.93h-1.89l.33-1.78h1.69l.18-.93h-1.69l.29-1.5H439l.18-.93h-3L435.05,165Zm-4.25-6.07-.8,4.22c-.13.67-.43,1-.93,1s-.64-.29-.5-1l.8-4.22h-1.14l-.81,4.3c-.22,1.15.24,1.87,1.49,1.87a2.17,2.17,0,0,0,2.22-1.87l.81-4.3ZM429.67,165l.2-1h-1.71l1-5.06H428L426.82,165Zm-4.9-2.28h-1.09l1-2.62h0ZM422.71,165l.57-1.35h1.55l.05,1.35h1.2l-.33-6.07h-1.5L421.58,165Zm-3.78,0h1.34l2.6-6.07h-1.13L420,163.31h0V158.9h-1.19ZM413,158.9l-.19,1h1.27l-1,5.06h1.14l1-5.06h1.27l.19-1Zm-2.44,3.79h-1.08l1-2.62h0ZM408.49,165l.57-1.35h1.56l0,1.35h1.2l-.32-6.07H410L407.37,165ZM407,165l.18-.93h-1.9l.33-1.78h1.7l.18-.93h-1.7l.29-1.5h1.84l.17-.93h-3L403.91,165Zm-6-2.51h.3c.87,0,.69.61.55,1.33a3.21,3.21,0,0,0-.1,1.18h1.12a8.56,8.56,0,0,1,.21-1.78c.21-1.1-.52-1.16-.76-1.2h0a1.62,1.62,0,0,0,1.29-1.49c.2-1-.19-1.59-1-1.59h-2.11L399.37,165h1.14Zm.5-2.63H402c.36,0,.53.22.43.8-.08.39-.31.89-.76.89h-.51Zm-2.55.94c.31-1.27-.25-2-1.37-2-1.86,0-2.23,1.56-2.52,3.08-.44,2.31-.39,3.19,1.52,3.19a11.09,11.09,0,0,0,1.59-.2l.58-3.08H397l-.17.93h.62l-.26,1.35a1.77,1.77,0,0,1-.59.12c-.65,0-.75-.34-.39-2.24.23-1.17.43-2.24,1.14-2.24s.6.49.48,1.06Z" transform="translate(-390 -155.87)"/></g></svg>