<?xml version="1.0" encoding="UTF-8"?>
<svg width="56px" height="56px" viewBox="0 0 56 56" version="1.1" xmlns="http://www.w3.org/2000/svg" xmlns:xlink="http://www.w3.org/1999/xlink">
    <title>icon-flyerdrawer_v1</title>
    <defs>
        <rect id="path-1" x="0" y="0" width="48" height="48" rx="4"></rect>
        <filter x="-14.6%" y="-10.4%" width="129.2%" height="129.2%" filterUnits="objectBoundingBox" id="filter-2">
            <feOffset dx="0" dy="2" in="SourceAlpha" result="shadowOffsetOuter1"></feOffset>
            <feGaussianBlur stdDeviation="2" in="shadowOffsetOuter1" result="shadowBlurOuter1"></feGaussianBlur>
            <feComposite in="shadowBlurOuter1" in2="SourceAlpha" operator="out" result="shadowBlurOuter1"></feComposite>
            <feColorMatrix values="0 0 0 0 0   0 0 0 0 0   0 0 0 0 0  0 0 0 0.5 0" type="matrix" in="shadowBlurOuter1"></feColorMatrix>
        </filter>
        <rect id="path-3" x="0" y="0" width="40" height="39"></rect>
        <path d="M0,0 L36,0 C38.209139,-4.05812251e-16 40,1.790861 40,4 L40,40 L40,40 L4,40 C1.790861,40 -1.73547709e-16,38.209139 0,36 L0,0 L0,0 Z" id="path-5"></path>
        <filter x="-15.0%" y="-15.0%" width="130.0%" height="130.0%" filterUnits="objectBoundingBox" id="filter-6">
            <feOffset dx="0" dy="0" in="SourceAlpha" result="shadowOffsetOuter1"></feOffset>
            <feGaussianBlur stdDeviation="2" in="shadowOffsetOuter1" result="shadowBlurOuter1"></feGaussianBlur>
            <feColorMatrix values="0 0 0 0 0   0 0 0 0 0   0 0 0 0 0  0 0 0 0.72380354 0" type="matrix" in="shadowBlurOuter1"></feColorMatrix>
        </filter>
    </defs>
    <g id="Help-and-Tool-Tips" stroke="none" stroke-width="1" fill="none" fill-rule="evenodd">
        <g id="icon-flyerdrawer_v1" transform="translate(4.000000, 2.000000)">
            <g id="Rectangle-Copy-5">
                <use fill="black" fill-opacity="1" filter="url(#filter-2)" xlink:href="#path-1"></use>
                <rect stroke="#BBBBBB" stroke-width="0.5" stroke-linejoin="square" fill="#FFFFFF" fill-rule="evenodd" x="0.25" y="0.25" width="47.5" height="47.5" rx="4"></rect>
            </g>
            <g id="Group-3" transform="translate(0.000000, 9.000000)">
                <mask id="mask-4" fill="white">
                    <use xlink:href="#path-3"></use>
                </mask>
                <g id="Rectangle-Copy-12"></g>
                <g id="Rectangle-Copy-8" mask="url(#mask-4)">
                    <use fill="black" fill-opacity="1" filter="url(#filter-6)" xlink:href="#path-5"></use>
                    <use fill="#333333" fill-rule="evenodd" xlink:href="#path-5"></use>
                </g>
                <path d="M29.2708452,11.0024829 C29.6945781,10.9937017 29.9921333,11.361984 30,11.6610707 L30,27.4671807 C29.9977778,27.7900864 29.721267,28.0886242 29.3958228,28.1189193 L20.062499,28.9970364 C20.0209879,29.0009879 19.9790324,29.0009879 19.9375213,28.9970364 L10.6041974,28.1189193 C10.2787533,28.0886242 10.0020203,27.7900864 10.0000101,27.4671807 L10.0000101,11.6610707 C9.99779804,11.2946763 10.359931,10.9681705 10.7291751,11.0024829 L20.0000101,11.8737507 L29.2708452,11.0024829 Z M28.6666762,12.3813902 L20.6666762,13.136044 L20.6666762,27.6181071 L28.6666762,26.8634752 L28.6666762,12.3813902 Z M11.3333523,12.3813902 L11.3333523,26.8634752 L19.3333523,27.6181071 L19.3333523,13.136044 L11.3333523,12.3813902 Z M26.8194477,13.8563635 C27.202514,13.8321494 27.5368025,14.1437053 27.555558,14.5149513 L27.555558,20.2227146 C27.5533358,20.5435347 27.2813361,20.8409969 26.9583364,20.8744532 L22.5138965,21.3135117 C22.1447635,21.3516659 21.779675,21.028409 21.7777727,20.6617732 L21.7777727,14.9540098 C21.7755639,14.6309066 22.0497192,14.3290978 22.3750078,14.295422 L26.8194477,13.8563635 Z M13.1805727,14.7344806 L17.6250126,15.1735391 C17.9912874,15.2114275 18.2571205,15.5354686 18.2187674,15.8973052 C18.1804144,16.2591417 17.8523987,16.5217537 17.4861238,16.4838655 L13.0416839,16.0448069 C12.6754091,16.0069185 12.409576,15.6828774 12.4479291,15.3210408 C12.4862822,14.9592043 12.8142978,14.6965923 13.1805727,14.7344806 L13.1805727,14.7344806 Z M26.2222261,15.242142 L23.1111181,15.5439948 L23.1111181,19.9277112 L26.2222261,19.6258585 L26.2222261,15.242142 Z M13.1805727,17.8078904 L17.6250126,18.246949 C17.9912881,18.2848373 18.2571217,18.6088789 18.2187687,18.9707161 C18.1804156,19.3325534 17.8523993,19.5951658 17.4861238,19.5572775 L13.0416839,19.1182168 C12.8047456,19.0937073 12.5990416,18.9461862 12.5020586,18.7312233 C12.4050757,18.5162604 12.4315477,18.2665136 12.571503,18.0760602 C12.7114583,17.8856067 12.9436344,17.783381 13.1805727,17.8078904 L13.1805727,17.8078904 Z M13.1805727,20.8813025 L17.6250126,21.320361 C17.9907457,21.3588592 18.2558636,21.6826312 18.2175599,22.0440022 C18.1792562,22.4053732 17.8519966,22.6678683 17.4861238,22.6306874 L13.0416839,22.1916288 C12.8044124,22.1675167 12.5982473,22.0200425 12.5010139,21.8048763 C12.4037806,21.5897101 12.4302886,21.3396238 12.5705315,21.1490227 C12.7107743,20.9584217 12.9433917,20.8563361 13.1805727,20.8813025 L13.1805727,20.8813025 Z M13.1805727,23.9547123 L17.6250126,24.3937709 C17.8619509,24.4182803 18.0676549,24.5658014 18.1646379,24.7807643 C18.2616209,24.9957272 18.2351488,25.245474 18.0951935,25.4359275 C17.9552382,25.626381 17.7230621,25.7286067 17.4861238,25.7040972 L13.0416839,25.2650387 C12.8047456,25.2405292 12.5990416,25.0930081 12.5020586,24.8780452 C12.4050757,24.6630823 12.4315477,24.4133355 12.571503,24.2228821 C12.7114583,24.0324286 12.9436344,23.9302029 13.1805727,23.9547123 L13.1805727,23.9547123 Z" id="icon---flyer" fill="#FFFFFF" fill-rule="nonzero" mask="url(#mask-4)"></path>
            </g>
        </g>
    </g>
</svg>