<?xml version="1.0" encoding="UTF-8"?>
<svg width="26px" height="32px" viewBox="0 0 26 32" version="1.1" xmlns="http://www.w3.org/2000/svg" xmlns:xlink="http://www.w3.org/1999/xlink">
    <title>icon-twofinger-dragright</title>
    <g id="Help-and-Tips" stroke="none" stroke-width="1" fill="none" fill-rule="evenodd">
        <g id="Mobile---APP---Help" transform="translate(-60.000000, -614.000000)" fill="#000000" fill-rule="nonzero">
            <g id="icon-twofinger-dragright" transform="translate(60.000000, 614.000000)">
                <path d="M18.291,14.602 C17.8120757,14.6042298 17.3480501,14.7687362 16.9746667,15.0686667 L16.9746667,15.014 C16.9795364,14.1943427 16.5129154,13.4448453 15.7752523,13.087473 C15.0375891,12.7301007 14.1602043,12.8284737 13.52,13.3403333 L13.52,7.24033333 C13.523581,6.25929698 12.85693,5.40257396 11.9050903,5.16498935 C10.9532507,4.92740474 9.96219387,5.37035441 9.50433333,6.238 C8.91327711,5.58028854 7.97744141,5.35593581 7.1524183,5.67416323 C6.32739519,5.99239066 5.78462074,6.78707204 5.78833333,7.67133333 L5.78833333,19.0566667 C4.62566667,16.8943333 3.251,16.29 2.44,16.1316667 C1.667,15.9816667 0.94,16.1483333 0.591,16.5556667 C-0.500333333,17.8253333 0.852,19.5193333 1.297,20.076 C2.483,21.5613333 2.97266667,22.9983333 3.44566667,24.3883333 C4.043,26.143 4.661,27.9573333 6.651,29.7786667 C8.16512081,31.1037553 10.1089311,31.8338983 12.121,31.8333337 C17.1676667,31.8333337 20.429,27.4573333 20.429,20.6843333 L20.429,16.7403333 C20.4277144,15.5600275 19.4713056,14.6034696 18.291,14.602 Z M19.6066667,20.6843333 C19.6066667,27.054 16.738,31.011002 12.121,31.011002 C10.3114655,31.0123197 8.56292212,30.3569861 7.2,29.1666667 C5.37166667,27.4936667 4.81433333,25.857 4.22433333,24.1243333 C3.72833333,22.6676667 3.216,21.1613333 1.93966667,19.564 C0.567666667,17.8456667 1.05466667,17.279 1.215,17.093 C1.5313566,16.8872143 1.92234433,16.8313589 2.28366667,16.9403333 C2.955,17.0703333 4.64166667,17.7453333 5.81033333,21.1913333 C5.81033333,21.1966667 5.81633333,21.2 5.818,21.205 C5.82987618,21.2312573 5.84451424,21.2561755 5.86166667,21.2793333 C5.87338261,21.300912 5.88711022,21.321336 5.90266667,21.3403333 C5.92154928,21.3578412 5.94209049,21.3734704 5.964,21.387 C5.98464814,21.4040181 6.00698724,21.4188736 6.03066667,21.4313333 C6.05293139,21.4396584 6.0759181,21.4459072 6.09933333,21.45 C6.12760241,21.4590435 6.15677591,21.4649676 6.18633333,21.4676667 C6.19166667,21.4676667 6.19566667,21.4706667 6.201,21.4706667 C6.22277463,21.4681677 6.24429686,21.4638186 6.26533333,21.4576667 C6.28776287,21.4566938 6.31006724,21.4537942 6.332,21.449 C6.337,21.449 6.34033333,21.443 6.34533333,21.4413333 C6.37133289,21.4296308 6.39602514,21.4152177 6.419,21.3983333 C6.44109791,21.3863999 6.46197516,21.3723329 6.48133333,21.3563333 C6.49805543,21.3380418 6.51311494,21.3182971 6.52633333,21.2973333 C6.56143857,21.260959 6.58378142,21.2141677 6.59,21.164 C6.59945469,21.1348933 6.60560448,21.1048152 6.60833333,21.0743333 C6.60833333,21.0696667 6.611,21.0653333 6.611,21.0603333 L6.611,7.67 C6.611,6.94282508 7.20049175,6.35333333 7.92766667,6.35333333 C8.65484159,6.35333333 9.24433333,6.94282508 9.24433333,7.67 L9.24433333,17.6033333 C9.25066984,17.8258566 9.43288649,18.0029584 9.6555,18.0029584 C9.87811351,18.0029584 10.0603302,17.8258566 10.0666667,17.6033333 L10.0666667,7.24033333 C10.0666667,6.51315841 10.6561584,5.92366667 11.3833333,5.92366667 C12.1105083,5.92366667 12.7,6.51315841 12.7,7.24033333 L12.7,17.604 C12.7063365,17.8265233 12.8885532,18.0036251 13.1111667,18.0036251 C13.3337802,18.0036251 13.5159968,17.8265233 13.5223333,17.604 L13.5223333,15.013 C13.5223333,14.2858251 14.1118251,13.6963333 14.839,13.6963333 C15.5661749,13.6963333 16.1556667,14.2858251 16.1556667,15.013 L16.1556667,18.4796667 C16.1514042,18.6293538 16.2288265,18.7695312 16.3577956,18.8456324 C16.4867647,18.9217335 16.6469019,18.9217335 16.775871,18.8456324 C16.9048401,18.7695312 16.9822624,18.6293538 16.978,18.4796667 L16.978,16.7403333 C16.978,16.0131584 17.5674917,15.4236667 18.2946667,15.4236667 C19.0218416,15.4236667 19.6113333,16.0131584 19.6113333,16.7403333 L19.6066667,20.6843333 Z" id="Shape"></path>
                <path d="M4.295,15.795 C4.4715719,15.9318548 4.72509732,15.9027578 4.86607298,15.7294583 C5.00704864,15.5561587 4.98393106,15.3020183 4.814,15.157 C1.55639703,12.5192164 0.893046863,7.8115116 3.29491557,4.37626693 C5.69678428,0.941022258 10.3460986,-0.0521516194 13.9419333,2.10187997 C17.537768,4.25591157 18.8558357,8.82375742 16.9603333,12.5623333 C16.8673563,12.7633138 16.9501767,13.0018304 17.1477015,13.1019395 C17.3452263,13.2020487 17.5865536,13.1278161 17.6936667,12.934 C18.3206508,11.7058541 18.646724,10.3462635 18.6450068,8.96733333 C18.6456975,4.87160624 15.820663,1.31688481 11.830553,0.392761761 C7.84044304,-0.53136129 3.74030458,1.4194665 1.94034601,5.0984786 C0.140387437,8.77749071 1.11654571,13.2118993 4.295,15.795 Z" id="Path"></path>
                <path d="M25.1266667,9.12466667 C25.1899354,8.97535673 25.1576314,8.80267488 25.0446667,8.68633333 C25.0416667,8.68333333 25.041,8.67933333 25.038,8.67633333 L23.875,7.51333333 C23.7131794,7.36013346 23.4587928,7.36364998 23.3012688,7.52126432 C23.1437448,7.67887866 23.1403741,7.93326728 23.2936667,8.095 L23.7546667,8.55633333 L19.8796667,8.55633333 C19.6571434,8.56266984 19.4800416,8.74488649 19.4800416,8.9675 C19.4800416,9.19011351 19.6571434,9.37233016 19.8796667,9.37866667 L23.7546667,9.37866667 L23.2936667,9.83966667 C23.1363955,10.0007776 23.1378751,10.2583906 23.2969865,10.4176844 C23.4560978,10.5769782 23.7137089,10.5787531 23.875,10.4216667 L25.038,9.25833333 C25.041,9.25533333 25.0416667,9.25133333 25.0446667,9.24833333 C25.0793233,9.21246501 25.1071154,9.1705509 25.1266667,9.12466667 L25.1266667,9.12466667 Z" id="Path"></path>
            </g>
        </g>
    </g>
</svg>