<?xml version="1.0" encoding="UTF-8"?>
<svg width="22px" height="32px" viewBox="0 0 22 32" version="1.1" xmlns="http://www.w3.org/2000/svg" xmlns:xlink="http://www.w3.org/1999/xlink">
    <title>icon-onefinger-dragleft</title>
    <g id="Help-and-Tips" stroke="none" stroke-width="1" fill="none" fill-rule="evenodd">
        <g id="Mobile---APP---Help" transform="translate(-68.000000, -534.000000)" fill="#000000" fill-rule="nonzero">
            <g id="icon-onefinger-dragleft" transform="translate(68.000000, 534.000000)">
                <path d="M18.4233333,14.602 C17.9444091,14.6042298 17.4803834,14.7687362 17.107,15.0686667 L17.107,15.014 C17.1114815,14.1945232 16.6447135,13.4453799 15.9071311,13.0882602 C15.1695487,12.7311405 14.2923967,12.82959 13.6523333,13.3413333 L13.6523333,13.2866667 C13.651047,12.1061009 12.6942326,11.1494356 11.5136667,11.1483333 C11.0349622,11.1506611 10.5711787,11.3151649 10.198,11.615 L10.198,7.24033333 C10.198,6.05936444 9.24063556,5.102 8.05966667,5.102 C6.87869778,5.102 5.92133333,6.05936444 5.92133333,7.24033333 L5.92133333,19.057 C4.75833333,16.8943333 3.38333333,16.2903333 2.57233333,16.1316667 C1.799,15.9816667 1.07233333,16.1483333 0.723333333,16.5556667 C-0.368,17.8253333 0.984333333,19.5193333 1.429,20.076 C2.61533333,21.5613333 3.105,22.9983333 3.57766667,24.3883333 C4.17533333,26.143 4.79333333,27.9573333 6.78333333,29.7786667 C8.29745414,31.1037553 10.2412644,31.8338983 12.2533333,31.8333337 C17.3006667,31.8333337 20.5616667,27.4573333 20.5616667,20.6843333 L20.5616667,16.7403333 C20.5601974,15.5599736 19.6036931,14.6034693 18.4233333,14.602 Z M19.7393333,20.6843333 C19.7393333,27.054 16.871,31.0110013 12.2533333,31.0110013 C10.444143,31.0120775 8.69599621,30.3567593 7.33333333,29.1666667 C5.505,27.4936667 4.94766667,25.857 4.35766667,24.1243333 C3.86166667,22.6676667 3.34933333,21.1613333 2.073,19.564 C0.701,17.8456667 1.188,17.279 1.348,17.093 C1.66422826,16.8865429 2.05562244,16.8306468 2.417,16.9403333 C3.08833333,17.0703333 4.77533333,17.7453333 5.94433333,21.1913333 C5.946,21.1966667 5.95,21.2 5.952,21.205 C5.96375948,21.2312485 5.97828615,21.2561673 5.99533333,21.2793333 C6.0071675,21.3008402 6.02088805,21.3212537 6.03633333,21.3403333 C6.05526761,21.3579226 6.07592773,21.3735573 6.098,21.387 C6.11869427,21.4039558 6.14102685,21.4188069 6.16466667,21.4313333 C6.18705913,21.439616 6.21015255,21.4458635 6.23366667,21.45 C6.26192757,21.4590748 6.29110456,21.4649997 6.32066667,21.4676667 C6.32566667,21.4676667 6.33,21.4706667 6.335,21.4706667 C6.35678478,21.4682321 6.37831254,21.4638819 6.39933333,21.4576667 C6.42176459,21.4567137 6.44407067,21.4538139 6.466,21.449 C6.47133333,21.449 6.47433333,21.443 6.47933333,21.4413333 C6.50539986,21.4295572 6.53019523,21.4151491 6.55333333,21.3983333 C6.5753257,21.3863977 6.59609213,21.3723302 6.61533333,21.3563333 C6.63225879,21.3382127 6.6473335,21.3184481 6.66033333,21.2973333 C6.67785053,21.2767 6.69326053,21.2543667 6.70633333,21.2306667 C6.71414591,21.2089739 6.72016609,21.186677 6.72433333,21.164 C6.73383818,21.1349229 6.73987993,21.104826 6.74233333,21.0743333 C6.74233333,21.0696667 6.74533333,21.0653333 6.74533333,21.0603333 L6.74533333,7.24033333 C6.74533333,6.51315841 7.33482508,5.92366667 8.062,5.92366667 C8.78917492,5.92366667 9.37866667,6.51315841 9.37866667,7.24033333 L9.37866667,17.604 C9.38500317,17.8265233 9.56721982,18.0036251 9.78983333,18.0036251 C10.0124468,18.0036251 10.1946635,17.8265233 10.201,17.604 L10.201,13.2856667 C10.201,12.5584917 10.7904917,11.969 11.5176667,11.969 C12.2448416,11.969 12.8343333,12.5584917 12.8343333,13.2856667 L12.8343333,17.604 C12.8406698,17.8265233 13.0228865,18.0036251 13.2455,18.0036251 C13.4681135,18.0036251 13.6503302,17.8265233 13.6566667,17.604 L13.6566667,15.013 C13.6566667,14.2858251 14.2461584,13.6963333 14.9733333,13.6963333 C15.7005083,13.6963333 16.29,14.2858251 16.29,15.013 L16.29,18.4796667 C16.2857376,18.6293538 16.3631599,18.7695312 16.492129,18.8456324 C16.6210981,18.9217335 16.7812353,18.9217335 16.9102044,18.8456324 C17.0391735,18.7695312 17.1165958,18.6293538 17.1123333,18.4796667 L17.1123333,16.7403333 C17.1123333,16.0131584 17.7018251,15.4236667 18.429,15.4236667 C19.1561749,15.4236667 19.7456667,16.0131584 19.7456667,16.7403333 L19.7393333,20.6843333 Z" id="Shape"></path>
                <path d="M4.47833333,13.33 C4.67393418,13.4453355 4.92599787,13.3802675 5.04133333,13.1846667 C5.1566688,12.9890658 5.09160085,12.7370021 4.896,12.6216667 C2.69821752,11.3367422 1.49814554,8.84826427 1.86107842,6.32843126 C2.22401129,3.80859826 4.07756992,1.75993633 6.54863482,1.14746844 C9.01969971,0.535000545 11.6154705,1.48087015 13.1132084,3.53952502 C14.6109463,5.59817989 14.7119599,8.35906591 13.3686667,10.5216667 C13.249005,10.7149663 13.3087004,10.9686716 13.502,11.0883333 C13.6952997,11.207995 13.949005,11.1482996 14.0686667,10.955 C15.5824769,8.51070478 15.4654858,5.39315288 13.7727389,3.06918888 C12.0799921,0.745224873 9.14859141,-0.322345697 6.35779517,0.36878159 C3.56699893,1.05990888 1.47257991,3.37209956 1.05998672,6.21744092 C0.647393524,9.06278227 1.99879198,11.8746391 4.47833333,13.33 Z" id="Path"></path>
                <path d="M21.2813333,6.829 L17.3586667,6.829 L17.8203333,6.36666667 C17.9808641,6.2061359 17.9808641,5.9458641 17.8203333,5.78533333 C17.6598026,5.62480257 17.3995308,5.62480257 17.239,5.78533333 L16.076,6.94866667 C16.0378489,6.98682186 16.0076042,7.03213225 15.987,7.082 C15.9664511,7.13157818 15.9556976,7.18466658 15.9553333,7.23833333 L15.9553333,7.23833333 L15.9553333,7.23833333 C15.9555682,7.29233692 15.9663242,7.34577726 15.987,7.39566667 C16.0066395,7.44140405 16.0344238,7.48319353 16.069,7.519 C16.0716667,7.522 16.0726667,7.526 16.0756667,7.529 L17.239,8.69233333 C17.3425174,8.79837809 17.4950752,8.84054194 17.6383578,8.80270761 C17.7816404,8.76487328 17.8934952,8.65289025 17.9311653,8.50956439 C17.9688353,8.36623852 17.9264967,8.2137291 17.8203333,8.11033333 L17.359,7.64933333 L21.2813333,7.64933333 C21.5038566,7.64299683 21.6809584,7.46078018 21.6809584,7.23816667 C21.6809584,7.01555315 21.5038566,6.83333651 21.2813333,6.827 L21.2813333,6.829 Z" id="Path"></path>
            </g>
        </g>
    </g>
</svg>