<?xml version="1.0" encoding="UTF-8"?>
<svg width="22px" height="32px" viewBox="0 0 22 32" version="1.1" xmlns="http://www.w3.org/2000/svg" xmlns:xlink="http://www.w3.org/1999/xlink">
    <title>icon-twofinger-scroll</title>
    <g id="Help-and-Tips" stroke="none" stroke-width="1" fill="none" fill-rule="evenodd">
        <g id="Mobile---APP---Help" transform="translate(-56.000000, -574.000000)" fill="#000000" fill-rule="nonzero">
            <g id="icon-twofinger-scroll" transform="translate(56.000000, 574.000000)">
                <path d="M19.5543333,14.602 C19.0754091,14.6042298 18.6113834,14.7687362 18.238,15.0686667 L18.238,15.014 C18.2372655,13.8333037 17.2806957,12.8761373 16.1,12.8746667 C15.6211902,12.8769717 15.1572941,13.0414739 14.784,13.3413333 L14.784,7.24133333 C14.7888924,6.25919947 14.1220103,5.40088055 13.1691329,5.16289839 C12.2162555,4.92491623 11.2241233,5.36889455 10.7666667,6.238 C10.1755626,5.58054623 9.23989116,5.35636406 8.41502661,5.67455887 C7.59016207,5.99275369 7.04744263,6.78723107 7.051,7.67133333 L7.051,19.0566667 C5.88833333,16.8943333 4.51366667,16.29 3.70266667,16.1316667 C2.92966667,15.9816667 2.20266667,16.1483333 1.85366667,16.5556667 C0.762333333,17.8253333 2.11466667,19.5193333 2.55966667,20.076 C3.74566667,21.5613333 4.23533333,22.9983333 4.70833333,24.3883333 C5.30566667,26.143 5.92366667,27.9573333 7.91366667,29.7786667 C9.42796019,31.1039065 11.3720349,31.8340598 13.3843333,31.8333339 C18.4313333,31.8333339 21.6923333,27.4573333 21.6923333,20.6843333 L21.6923333,16.7403333 C21.6910477,15.5600275 20.734639,14.6034696 19.5543333,14.602 L19.5543333,14.602 Z M20.87,20.6843333 C20.87,27.054 18.0013333,31.0110022 13.3843333,31.0110022 C11.574684,31.0124004 9.82600853,30.3570617 8.463,29.1666667 C6.63466667,27.4936667 6.07733333,25.857 5.48766667,24.1243333 C4.99166667,22.6676667 4.479,21.1613333 3.20266667,19.564 C1.83066667,17.8456667 2.31766667,17.279 2.478,17.093 C2.7943566,16.8872143 3.18534433,16.8313589 3.54666667,16.9403333 C4.218,17.0703333 5.90466667,17.7453333 7.07333333,21.1913333 C7.075,21.1966667 7.07933333,21.2 7.08133333,21.205 C7.0928699,21.2309113 7.10717532,21.2554987 7.124,21.2783333 C7.13593651,21.3003518 7.14988486,21.3212186 7.16566667,21.3406667 C7.18446722,21.3579334 7.20489592,21.3733387 7.22666667,21.3866667 C7.24740252,21.4036624 7.26972793,21.4186205 7.29333333,21.4313333 C7.31572579,21.439616 7.33881922,21.4458635 7.36233333,21.45 C7.39045585,21.4591675 7.41953298,21.4650948 7.449,21.4676667 C7.45433333,21.4676667 7.45833333,21.4706667 7.46366667,21.4706667 C7.48533693,21.4681994 7.50675116,21.4638496 7.52766667,21.4576667 C7.55009466,21.4566759 7.5723975,21.4537766 7.59433333,21.449 C7.59933333,21.449 7.60266667,21.443 7.60766667,21.4413333 C7.63373319,21.4295572 7.65852856,21.4151491 7.68166667,21.3983333 C7.70361054,21.3863181 7.72436953,21.3722556 7.74366667,21.3563333 C7.76038876,21.3380418 7.77544827,21.3182971 7.78866667,21.2973333 C7.80618531,21.2767746 7.82149183,21.2544293 7.83433333,21.2306667 C7.84225769,21.2089833 7.84838938,21.1866863 7.85266667,21.164 C7.86201365,21.1348816 7.86805169,21.1048032 7.87066667,21.0743333 C7.87066667,21.0696667 7.87333333,21.0653333 7.87333333,21.0603333 L7.87333333,7.67 C7.87333333,6.94282508 8.46282508,6.35333333 9.19,6.35333333 C9.91717492,6.35333333 10.5066667,6.94282508 10.5066667,7.67 L10.5066667,17.6033333 C10.5130032,17.8258566 10.6952198,18.0029584 10.9178333,18.0029584 C11.1404468,18.0029584 11.3226635,17.8258566 11.329,17.6033333 L11.329,7.24033333 C11.329,6.51315841 11.9184917,5.92366667 12.6456667,5.92366667 C13.3728416,5.92366667 13.9623333,6.51315841 13.9623333,7.24033333 L13.9623333,17.604 C13.9623333,17.830989 14.1463443,18.015 14.3733333,18.015 C14.6003224,18.015 14.7843333,17.830989 14.7843333,17.604 L14.7843333,15.013 C14.7843333,14.2858251 15.3738251,13.6963333 16.101,13.6963333 C16.8281749,13.6963333 17.4176667,14.2858251 17.4176667,15.013 L17.4176667,18.4796667 C17.4134042,18.6293538 17.4908265,18.7695312 17.6197956,18.8456324 C17.7487647,18.9217335 17.9089019,18.9217335 18.037871,18.8456324 C18.1668401,18.7695312 18.2442624,18.6293538 18.24,18.4796667 L18.24,16.7403333 C18.24,16.0131584 18.8294917,15.4236667 19.5566667,15.4236667 C20.2838416,15.4236667 20.8733333,16.0131584 20.8733333,16.7403333 L20.87,20.6843333 Z" id="Shape"></path>
                <path d="M10.1256667,3.45633337 C10.7910677,3.45646815 11.3910178,3.05572619 11.645718,2.44100157 C11.9004183,1.82627696 11.7597002,1.11865231 11.2891906,0.648142712 C10.818681,0.177633114 10.1110564,0.0369150814 9.49633176,0.291615318 C8.88160714,0.546315555 8.48086518,1.14626563 8.48099997,1.81166667 C8.48210201,2.71953413 9.21779921,3.45523133 10.1256667,3.45633337 L10.1256667,3.45633337 Z M10.1256667,0.989666667 C10.4584952,0.989531918 10.7586137,1.18995491 10.8860128,1.49743555 C11.0134119,1.80491618 10.942988,2.15886672 10.707595,2.39416436 C10.4722019,2.62946199 10.1182229,2.69974232 9.8107939,2.57221861 C9.50336494,2.44469489 9.30306365,2.14449514 9.30333306,1.81166667 C9.30388392,1.35767876 9.67167902,0.989734572 10.1256667,0.989 L10.1256667,0.989666667 Z" id="Shape"></path>
                <path d="M0.427666667,2.10233333 L1.59066667,3.26566667 C1.75195774,3.42275305 2.00956886,3.42097822 2.16868022,3.2616844 C2.32779157,3.10239058 2.32927114,2.8447776 2.172,2.68366667 L1.711,2.22266667 L7.247,2.22266667 C7.39668716,2.22692911 7.53686457,2.14950679 7.61296573,2.0205377 C7.68906688,1.8915686 7.68906688,1.7314314 7.61296573,1.6024623 C7.53686457,1.47349321 7.39668716,1.39607089 7.247,1.40033333 L1.711,1.40033333 L2.172,0.939333333 C2.27816334,0.835937567 2.32050201,0.683428144 2.28283192,0.540102282 C2.24516184,0.396776419 2.13330708,0.284793385 1.99002448,0.246959054 C1.84674189,0.209124724 1.69418404,0.251288573 1.59066667,0.357333333 L0.427666667,1.52066667 C0.424666667,1.52366667 0.423666667,1.52766667 0.421,1.53066667 C0.268872124,1.68698592 0.268872124,1.93601408 0.421,2.09233333 C0.423666667,2.09533333 0.424666667,2.1 0.427666667,2.10233333 Z" id="Path"></path>
                <path d="M13.0046667,2.22266667 L18.5406667,2.22266667 L18.0796667,2.68366667 C17.9755237,2.78751186 17.9346925,2.93902837 17.9725536,3.08114138 C18.0104147,3.2232544 18.1212162,3.33437357 18.2632203,3.37264138 C18.4052243,3.4109092 18.5568571,3.37051186 18.661,3.26666667 L19.8243333,2.10333333 C19.8273333,2.10066667 19.828,2.09666667 19.831,2.09366667 C19.9829931,1.93716327 19.9829931,1.68817006 19.831,1.53166667 C19.828,1.52866667 19.8273333,1.52466667 19.8243333,1.52166667 L18.661,0.358333333 C18.4997089,0.201246949 18.2420978,0.20302178 18.0829865,0.3623156 C17.9238751,0.52160942 17.9223955,0.779222403 18.0796667,0.940333333 L18.5406667,1.4 L13.0046667,1.4 C12.7821434,1.40633651 12.6050416,1.58855315 12.6050416,1.81116667 C12.6050416,2.03378018 12.7821434,2.21599683 13.0046667,2.22233333 L13.0046667,2.22266667 Z" id="Path"></path>
            </g>
        </g>
    </g>
</svg>