<?xml version="1.0" encoding="UTF-8"?>
<svg width="80px" height="96px" viewBox="0 0 80 96" version="1.1" xmlns="http://www.w3.org/2000/svg" xmlns:xlink="http://www.w3.org/1999/xlink">
    <title>icon-flyerdrawer_v2</title>
    <defs>
        <rect id="path-1" x="0" y="0" width="72" height="88" rx="4"></rect>
        <filter x="-9.7%" y="-5.7%" width="119.4%" height="115.9%" filterUnits="objectBoundingBox" id="filter-2">
            <feOffset dx="0" dy="2" in="SourceAlpha" result="shadowOffsetOuter1"></feOffset>
            <feGaussianBlur stdDeviation="2" in="shadowOffsetOuter1" result="shadowBlurOuter1"></feGaussianBlur>
            <feComposite in="shadowBlurOuter1" in2="SourceAlpha" operator="out" result="shadowBlurOuter1"></feComposite>
            <feColorMatrix values="0 0 0 0 0   0 0 0 0 0   0 0 0 0 0  0 0 0 0.5 0" type="matrix" in="shadowBlurOuter1"></feColorMatrix>
        </filter>
        <rect id="path-3" x="0" y="0" width="60" height="76"></rect>
        <path d="M0,0 L46,0 C50.418278,-8.11624501e-16 54,3.581722 54,8 L54,906 C54,910.418278 50.418278,914 46,914 L0,914 L0,914 L0,0 Z" id="path-5"></path>
        <filter x="-9.3%" y="-0.8%" width="125.9%" height="101.5%" filterUnits="objectBoundingBox" id="filter-6">
            <feOffset dx="2" dy="0" in="SourceAlpha" result="shadowOffsetOuter1"></feOffset>
            <feGaussianBlur stdDeviation="2" in="shadowOffsetOuter1" result="shadowBlurOuter1"></feGaussianBlur>
            <feColorMatrix values="0 0 0 0 0   0 0 0 0 0   0 0 0 0 0  0 0 0 0.359211101 0" type="matrix" in="shadowBlurOuter1"></feColorMatrix>
        </filter>
    </defs>
    <g id="Help-and-Tool-Tips" stroke="none" stroke-width="1" fill="none" fill-rule="evenodd">
        <g id="icon-flyerdrawer_v2" transform="translate(4.000000, 2.000000)">
            <g id="Rectangle-Copy-5">
                <use fill="black" fill-opacity="1" filter="url(#filter-2)" xlink:href="#path-1"></use>
                <rect stroke="#BBBBBB" stroke-width="1" stroke-linejoin="square" fill="#FFFFFF" fill-rule="evenodd" x="0.5" y="0.5" width="71" height="87" rx="4"></rect>
            </g>
            <g id="Group-3" transform="translate(0.000000, 12.000000)">
                <mask id="mask-4" fill="white">
                    <use xlink:href="#path-3"></use>
                </mask>
                <g id="Rectangle-Copy-12"></g>
                <g id="Rectangle-Copy-8" mask="url(#mask-4)">
                    <use fill="black" fill-opacity="1" filter="url(#filter-6)" xlink:href="#path-5"></use>
                    <use fill="#333333" fill-rule="evenodd" xlink:href="#path-5"></use>
                </g>
                <path d="M38.1250142,18.0028967 C38.6334937,17.992652 38.99056,18.4223147 39,18.7712492 L39,37.2117109 C38.9973333,37.5884341 38.6655203,37.9367282 38.2749874,37.9720725 L27.0749988,38.9965424 C27.0251855,39.0011525 26.9748389,39.0011525 26.9250256,38.9965424 L15.7250369,37.9720725 C15.334504,37.9367282 15.0024243,37.5884341 15.0000121,37.2117109 L15.0000121,18.7712492 C14.9973576,18.3437891 15.4319172,17.9628655 15.8750101,18.0028967 L27.0000121,19.0193758 L38.1250142,18.0028967 Z M37.4000016,19.6116219 L27.8000114,20.4920513 L27.8000114,37.3877916 L37.4000016,36.5073878 L37.4000016,19.6116219 Z M16.6000228,19.6116219 L16.6000228,36.5073878 L26.200013,37.3877916 L26.200013,20.4920513 L16.6000228,19.6116219 Z M35.1833372,21.332424 C35.6430167,21.3041743 36.044163,21.6676562 36.0666697,22.1007765 L36.0666697,28.7598338 C36.064003,29.1341239 35.7376033,29.481163 35.3500037,29.5201954 L30.0166758,30.0324303 C29.5737163,30.0769435 29.13561,29.6998105 29.1333273,29.2720687 L29.1333273,22.6130115 C29.1306767,22.2360578 29.459663,21.8839474 29.8500093,21.844659 L35.1833372,21.332424 Z M18.8166872,22.356894 L24.1500151,22.869129 C24.5895449,22.9133321 24.9085446,23.29138 24.8625209,23.7135227 C24.8164972,24.1356654 24.4228784,24.442046 23.9833486,24.397843 L18.6500207,23.8856081 C18.2104909,23.8414049 17.8914912,23.463357 17.9375149,23.0412143 C17.9835386,22.6190716 18.3771574,22.312691 18.8166872,22.356894 L18.8166872,22.356894 Z M34.4666713,22.9491657 L30.7333417,23.3013272 L30.7333417,28.4156631 L34.4666713,28.0635015 L34.4666713,22.9491657 Z M18.8166872,25.9425388 L24.1500151,26.4547738 C24.5895457,26.4989769 24.9085461,26.8770254 24.8625224,27.2991688 C24.8164987,27.7213123 24.4228792,28.0276935 23.9833486,27.9834904 L18.6500207,27.4712529 C18.3656947,27.4426585 18.11885,27.2705506 18.0024704,27.0197605 C17.8860908,26.7689705 17.9178572,26.4775992 18.0858036,26.2554035 C18.25375,26.0332078 18.5323612,25.9139445 18.8166872,25.9425388 L18.8166872,25.9425388 Z M18.8166872,29.5281862 L24.1500151,30.0404212 C24.5888948,30.0853357 24.9070363,30.4630697 24.8610719,30.8846692 C24.8151074,31.3062687 24.4223959,31.612513 23.9833486,31.5691353 L18.6500207,31.0569003 C18.3652949,31.0287695 18.1178967,30.8567162 18.0012167,30.605689 C17.8845367,30.3546618 17.9163463,30.0628944 18.0846378,29.8405265 C18.2529292,29.6181586 18.5320701,29.4990588 18.8166872,29.5281862 L18.8166872,29.5281862 Z M18.8166872,33.1138311 L24.1500151,33.626066 C24.4343411,33.6546604 24.6811859,33.8267683 24.7975654,34.0775584 C24.913945,34.3283484 24.8821786,34.6197197 24.7142322,34.8419154 C24.5462858,35.0641111 24.2676746,35.1833745 23.9833486,35.1547801 L18.6500207,34.6425451 C18.3656947,34.6139508 18.11885,34.4418428 18.0024704,34.1910528 C17.8860908,33.9402627 17.9178572,33.6488914 18.0858036,33.4266957 C18.25375,33.2045 18.5323612,33.0852367 18.8166872,33.1138311 L18.8166872,33.1138311 Z" id="icon---flyer" fill="#FFFFFF" fill-rule="nonzero" mask="url(#mask-4)"></path>
            </g>
        </g>
    </g>
</svg>