<svg xmlns="http://www.w3.org/2000/svg" viewBox="0 0 20.25 26.73"><g id="Layer_2" data-name="Layer 2"><g id="Layer_1-2" data-name="Layer 1"><g id="Help-and-Tips"><g id="Mobile---APP---Help"><g id="icon-onefinger-dragright"><path id="Shape" d="M18.12,9.5A2.11,2.11,0,0,0,16.8,10V9.91a2.13,2.13,0,0,0-3.46-1.67V8.18a2.13,2.13,0,0,0-2.13-2.13,2.1,2.1,0,0,0-1.32.46V2.14a2.14,2.14,0,0,0-4.28,0V14C4.45,11.79,3.08,11.19,2.26,11a2,2,0,0,0-1.84.42c-1.1,1.27.26,3,.7,3.52a13,13,0,0,1,2.15,4.32,11.45,11.45,0,0,0,3.21,5.39A8.3,8.3,0,0,0,12,26.73c5,0,8.3-4.37,8.3-11.15V11.64A2.13,2.13,0,0,0,18.12,9.5Zm1.31,6.08c0,6.37-2.87,10.33-7.48,10.33A7.48,7.48,0,0,1,7,24.06a10.51,10.51,0,0,1-3-5,14,14,0,0,0-2.28-4.56C.39,12.74.88,12.18,1,12a1.27,1.27,0,0,1,1.07-.15c.67.13,2.36.8,3.53,4.25h0l.05.08a.21.21,0,0,0,0,.06l.06,0a.18.18,0,0,0,.07,0l.07,0,.08,0h.16l.08,0,.06-.05,0-.05.05-.07s0-.05,0-.07a.28.28,0,0,0,0-.09h0V2.14a1.32,1.32,0,1,1,2.63,0V12.5a.42.42,0,0,0,.41.4.41.41,0,0,0,.41-.4V8.18a1.32,1.32,0,0,1,2.64,0V12.5a.41.41,0,0,0,.41.4.42.42,0,0,0,.41-.4V9.91a1.32,1.32,0,1,1,2.63,0v3.47a.42.42,0,0,0,.2.36.4.4,0,0,0,.42,0,.38.38,0,0,0,.2-.36V11.64a1.32,1.32,0,0,1,2.64,0Z"/></g></g></g></g></g></svg>