<?xml version="1.0" encoding="utf-8"?>
<!-- Generator: Adobe Illustrator 25.1.0, SVG Export Plug-In . SVG Version: 6.00 Build 0)  -->
<svg width="22px" height="32px" version="1.1" id="Layer_1" xmlns="http://www.w3.org/2000/svg" xmlns:xlink="http://www.w3.org/1999/xlink" x="0px" y="0px"
	 viewBox="0 0 22 32" style="enable-background:new 0 0 22 32;" xml:space="preserve">
<g id="Help-and-Tips">
	<g id="Mobile---APP---Help" transform="translate(-68.000000, -534.000000)">
		<g id="icon-onefinger-dragleft" transform="translate(68.000000, 534.000000)">
			<path id="Shape" d="M19.31141,17.0538c-0.38299,0.00178-0.75406,0.13334-1.05264,0.37318v-0.04371
				c0.00358-0.65532-0.36968-1.25439-0.95951-1.53997c-0.58983-0.28558-1.29127-0.20685-1.80311,0.20238v-0.04372
				c-0.00103-0.94407-0.76617-1.7091-1.71025-1.70998c-0.38281,0.00186-0.75369,0.13341-1.05211,0.37318v-3.49833
				c0-0.9444-0.76558-1.70998-1.70998-1.70998s-1.70998,0.76558-1.70998,1.70998v9.44954
				c-0.93003-1.72944-2.02959-2.21244-2.67813-2.33933c-0.61842-0.11995-1.19952,0.01333-1.47861,0.33906
				c-0.87272,1.01533,0.20872,2.36998,0.56431,2.81514c0.94869,1.18779,1.34026,2.33693,1.71824,3.44848
				c0.47794,1.40317,0.97214,2.85406,2.5635,4.31054c1.21081,1.05965,2.76523,1.64353,4.37424,1.64307
				c4.03625,0,6.644-3.4994,6.644-8.91562v-3.15393C21.02022,17.81987,20.25532,17.05497,19.31141,17.0538z M20.36379,21.91771
				c0,5.09369-2.29375,8.25802-5.9864,8.25802c-1.44677,0.00086-2.84473-0.52318-3.93442-1.47488
				c-1.46208-1.33786-1.90777-2.64667-2.37958-4.03225c-0.39664-1.16487-0.80634-2.36945-1.827-3.6468
				c-1.09716-1.37411-0.70772-1.82727-0.57977-1.97601c0.25288-0.1651,0.56587-0.2098,0.85486-0.12209
				c0.53685,0.10396,1.88591,0.64374,2.82073,3.39944c0.00133,0.00426,0.00453,0.00693,0.00613,0.01093
				c0.0094,0.02099,0.02102,0.04092,0.03465,0.05944c0.00946,0.0172,0.02044,0.03352,0.03279,0.04878
				c0.01514,0.01406,0.03166,0.02657,0.04931,0.03732c0.01655,0.01356,0.03441,0.02543,0.05331,0.03545
				C9.52632,22.5217,9.54479,22.52669,9.56359,22.53c0.0226,0.00726,0.04593,0.012,0.06957,0.01413
				c0.004,0,0.00746,0.0024,0.01146,0.0024c0.01742-0.00195,0.03464-0.00542,0.05145-0.0104
				c0.01794-0.00076,0.03578-0.00308,0.05331-0.00693c0.00426,0,0.00666-0.0048,0.01066-0.00613
				c0.02084-0.00942,0.04067-0.02094,0.05918-0.03439c0.01759-0.00954,0.03419-0.02079,0.04958-0.03358
				c0.01353-0.01449,0.02559-0.0303,0.03598-0.04718c0.01401-0.0165,0.02633-0.03436,0.03679-0.05331
				c0.00625-0.01735,0.01106-0.03518,0.01439-0.05331c0.0076-0.02325,0.01243-0.04732,0.01439-0.0717
				c0-0.00373,0.0024-0.0072,0.0024-0.0112V11.16683c0-0.58151,0.47141-1.05291,1.05291-1.05291
				c0.58151,0,1.05291,0.4714,1.05291,1.05291v8.28761c0.00507,0.17795,0.15078,0.31957,0.3288,0.31957
				c0.17802,0,0.32373-0.14163,0.3288-0.31957v-3.45328c0-0.58151,0.4714-1.05291,1.05291-1.05291
				c0.58151,0,1.05291,0.4714,1.05291,1.05291v3.45328c0.00507,0.17795,0.15078,0.31957,0.3288,0.31957
				c0.17802,0,0.32374-0.14163,0.3288-0.31957v-2.07197c0-0.5815,0.4714-1.05291,1.05291-1.05291
				c0.58151,0,1.05291,0.47141,1.05291,1.05291v2.77222c-0.00341,0.1197,0.0585,0.2318,0.16164,0.29266
				c0.10313,0.06086,0.23119,0.06086,0.33433,0s0.16505-0.17295,0.16164-0.29266v-1.39091c0-0.58151,0.4714-1.05291,1.05291-1.05291
				c0.58151,0,1.05291,0.4714,1.05291,1.05291L20.36379,21.91771z"/>
			<path id="Path" d="M8.15989,16.03661c0.15642,0.09223,0.35799,0.0402,0.45022-0.11622
				c0.09223-0.15642,0.0402-0.35799-0.11622-0.45022c-1.75752-1.02753-2.71719-3.01751-2.42696-5.03257
				s1.77248-3.65333,3.74854-4.14311s4.05184,0.26661,5.24955,1.91288s1.27849,3.85408,0.20428,5.58347
				c-0.09569,0.15458-0.04795,0.35746,0.10662,0.45315c0.15458,0.09569,0.35746,0.04795,0.45315-0.10662
				c1.21056-1.95465,1.11701-4.44769-0.23665-6.30612S11.8946,5.11911,9.66286,5.67179s-3.9066,2.40169-4.23655,4.67705
				C5.09637,12.6242,6.17705,14.87279,8.15989,16.03661z"/>
			<path id="Path_1_" d="M17.65738,11.49626h3.13687l-0.36918,0.36972c-0.12837,0.12837-0.12837,0.33651,0,0.46488
				s0.33651,0.12837,0.46488,0l0.93003-0.93029c0.03051-0.03051,0.0547-0.06675,0.07117-0.10662
				c0.01643-0.03965,0.02503-0.0821,0.02532-0.12502l0,0l0,0c-0.00019-0.04319-0.00879-0.08592-0.02532-0.12582
				c-0.01571-0.03658-0.03792-0.06999-0.06557-0.09863c-0.00213-0.0024-0.00293-0.0056-0.00533-0.008l-0.93029-0.93029
				c-0.08278-0.0848-0.20478-0.11852-0.31936-0.08826s-0.20403,0.11981-0.23415,0.23442
				c-0.03012,0.11461,0.00373,0.23657,0.08863,0.31926l0.36892,0.36865h-3.13661c-0.17795,0.00507-0.31957,0.15078-0.31957,0.3288
				c0,0.17802,0.14162,0.32373,0.31957,0.3288V11.49626z"/>
		</g>
	</g>
	<path id="Path_2_" d="M11.49756,4.55322l0.00011-3.13687l0.36971,0.3692c0.12837,0.12838,0.3365,0.12838,0.46488,0.00002
		c0.12838-0.12837,0.12838-0.3365,0.00002-0.46488l-0.93026-0.93006c-0.03051-0.03051-0.06674-0.0547-0.10662-0.07117
		c-0.03965-0.01643-0.0821-0.02503-0.12502-0.02533l0,0l0,0c-0.04319,0.00019-0.08592,0.00879-0.12582,0.02532
		c-0.03658,0.0157-0.06999,0.03792-0.09863,0.06557c-0.0024,0.00213-0.0056,0.00293-0.008,0.00533L10.0076,1.3206
		C9.9228,1.40338,9.88907,1.52537,9.91933,1.63995c0.03025,0.11458,0.1198,0.20403,0.23441,0.23416S10.39031,1.87039,10.473,1.7855
		l0.36866-0.36891L10.84156,4.5532c0.00506,0.17795,0.15077,0.31958,0.32879,0.31958s0.32374-0.14161,0.32881-0.31956H11.49756z"/>
	<path id="Path_3_" d="M4.25909,10.46479l-3.13687,0l0.36918-0.36972c0.12837-0.12837,0.12837-0.33651,0-0.46488
		c-0.12837-0.12837-0.33651-0.12837-0.46488,0l-0.93003,0.93029C0.06599,10.591,0.0418,10.62723,0.02532,10.66711
		C0.00889,10.70676,0.00029,10.74921,0,10.79213l0,0l0,0c0.00019,0.04319,0.00879,0.08592,0.02532,0.12582
		c0.0157,0.03658,0.03792,0.06999,0.06557,0.09863c0.00213,0.0024,0.00293,0.0056,0.00533,0.008l0.93029,0.93029
		c0.08278,0.0848,0.20478,0.11852,0.31936,0.08826c0.11458-0.03026,0.20403-0.11981,0.23415-0.23442
		c0.03012-0.11461-0.00373-0.23657-0.08863-0.31926l-0.36892-0.36865l3.13661,0c0.17795-0.00507,0.31957-0.15078,0.31957-0.3288
		c0-0.17802-0.14162-0.32373-0.31957-0.3288V10.46479z"/>
</g>
</svg>
