<svg id="Layer_1" data-name="Layer 1" xmlns="http://www.w3.org/2000/svg" xmlns:xlink="http://www.w3.org/1999/xlink" viewBox="0 0 54.39 13.59"><defs><style>.cls-1,.cls-5{fill:none;}.cls-2{clip-path:url(#clip-path);}.cls-3{fill:#ed1c24;}.cls-4{fill:#fff;}.cls-5{stroke:#fff;stroke-miterlimit:3.25;stroke-width:0.1px;}</style><clipPath id="clip-path" transform="translate(-389 -154.41)"><rect class="cls-1" x="389" y="154.41" width="54.39" height="13.59"/></clipPath></defs><title>Special Buy_Red_BI</title><g class="cls-2"><path class="cls-3" d="M389.58,154.41a.57.57,0,0,0-.58.59v12.42a.57.57,0,0,0,.58.58h49.34a1.12,1.12,0,0,0,.89-.5l3.44-5.62a1,1,0,0,0,0-1l-3.46-6a1.09,1.09,0,0,0-.88-.51Z" transform="translate(-389 -154.41)"/><path class="cls-4" d="M423.19,166.4h.87l.3-1.43,1.74-2.71h-.89l-1,1.75-.26-1.75H423l.51,2.71Zm-1.53-4.14-.61,2.88c-.1.46-.33.71-.71.71s-.49-.2-.38-.71l.61-2.88h-.87l-.62,2.94c-.16.78.19,1.27,1.14,1.27a1.58,1.58,0,0,0,1.68-1.27l.62-2.94Zm-5,4.14a1.38,1.38,0,0,0,1.51-1.1c.12-.56,0-1-.56-1.05h0a1.09,1.09,0,0,0,.9-.91c.18-.88-.32-1.07-1-1.07H416l-.88,4.14Zm.08-3.51h.53a.39.39,0,0,1,.38.53.59.59,0,0,1-.56.53h-.58Zm-.37,1.7h.51c.44,0,.53.22.45.59a.65.65,0,0,1-.72.58h-.48Zm-3.14,1.81.15-.69h-1.3l.73-3.45H412l-.88,4.14Zm-3.76-1.55h-.82l.77-1.8h0ZM408,166.4l.43-.92h1.18l0,.92h.92l-.25-4.14h-1.14l-2,4.14Zm-1.43,0,.88-4.14h-.87l-.87,4.14Zm-2.95.07c.81,0,1.34-.36,1.57-1.46h-.85c-.08.32-.18.84-.58.84s-.46-.46-.23-1.52.39-1.52.88-1.52c.25,0,.31.2.19.75h.85c.22-.89,0-1.37-.91-1.37-1.43,0-1.66,1-1.89,2.14s-.46,2.14,1,2.14m-2.1-.07.14-.64h-1.45l.26-1.21h1.28l.14-.63h-1.29l.22-1h1.4l.13-.63H400l-.88,4.14Zm-5.68,0h.86l.36-1.69h.64a1.37,1.37,0,0,0,1.42-1.21c.16-.76-.05-1.24-.84-1.24h-1.57Zm1.61-3.51h.44c.39,0,.41.29.35.63s-.3.56-.56.56h-.48Zm-2.22,2.38c.27-1.3-1.49-1.23-1.32-2a.51.51,0,0,1,.54-.44c.35,0,.33.31.27.62h.84c.25-.86-.09-1.24-.94-1.24a1.42,1.42,0,0,0-1.61,1.16c-.27,1.24,1.47,1.28,1.31,2a.53.53,0,0,1-.54.47c-.47,0-.42-.33-.33-.73h-.87c-.2.72-.13,1.35.94,1.35a1.5,1.5,0,0,0,1.71-1.2" transform="translate(-389 -154.41)"/><path class="cls-5" d="M423.19,166.4h.87l.3-1.43,1.74-2.71h-.89l-1,1.75-.26-1.75H423l.51,2.71Zm-1.53-4.14-.61,2.88c-.1.46-.33.71-.71.71s-.49-.2-.38-.71l.61-2.88h-.87l-.62,2.94c-.16.78.19,1.27,1.14,1.27a1.58,1.58,0,0,0,1.68-1.27l.62-2.94Zm-5,4.14a1.38,1.38,0,0,0,1.51-1.1c.12-.56,0-1-.56-1.05h0a1.09,1.09,0,0,0,.9-.91c.18-.88-.32-1.07-1-1.07H416l-.88,4.14Zm.08-3.51h.53a.39.39,0,0,1,.38.53.59.59,0,0,1-.56.53h-.58Zm-.37,1.7h.51c.44,0,.53.22.45.59a.65.65,0,0,1-.72.58h-.48Zm-3.14,1.81.15-.69h-1.3l.73-3.45H412l-.88,4.14Zm-3.76-1.55h-.82l.77-1.8h0ZM408,166.4l.43-.92h1.18l0,.92h.92l-.25-4.14h-1.14l-2,4.14Zm-1.43,0,.88-4.14h-.87l-.87,4.14Zm-2.95.07c.81,0,1.34-.36,1.57-1.46h-.85c-.08.32-.18.84-.58.84s-.46-.46-.23-1.52.39-1.52.88-1.52c.25,0,.31.2.19.75h.85c.22-.89,0-1.37-.91-1.37-1.43,0-1.66,1-1.89,2.14S402.14,166.47,403.57,166.47Zm-2.1-.07.14-.64h-1.45l.26-1.21h1.28l.14-.63h-1.29l.22-1h1.4l.13-.63H400l-.88,4.14Zm-5.68,0h.86l.36-1.69h.64a1.37,1.37,0,0,0,1.42-1.21c.16-.76-.05-1.24-.84-1.24h-1.57Zm1.61-3.51h.44c.39,0,.41.29.35.63s-.3.56-.56.56h-.48Zm-2.22,2.38c.27-1.3-1.49-1.23-1.32-2a.51.51,0,0,1,.54-.44c.35,0,.33.31.27.62h.84c.25-.86-.09-1.24-.94-1.24a1.42,1.42,0,0,0-1.61,1.16c-.27,1.24,1.47,1.28,1.31,2a.53.53,0,0,1-.54.47c-.47,0-.42-.33-.33-.73h-.87c-.2.72-.13,1.35.94,1.35A1.5,1.5,0,0,0,395.18,165.27Z" transform="translate(-389 -154.41)"/><path class="cls-4" d="M431.83,160.66,432,160h-1.3l.73-3.46h-.87l-.87,4.15Zm-3.75-1.56h-.83l.77-1.79h0Zm-1.57,1.56.43-.92h1.18l0,.92h.91l-.25-4.15h-1.14l-2,4.15Zm-1.43,0,.88-4.15h-.86l-.88,4.15Zm-2.94.07c.81,0,1.33-.36,1.56-1.47h-.85c-.08.33-.18.85-.58.85s-.46-.46-.23-1.52.39-1.53.88-1.53c.26,0,.31.21.19.76H424c.23-.89,0-1.38-.91-1.38-1.43,0-1.65,1.05-1.88,2.15s-.46,2.14,1,2.14M420,155.27l-.7.82h.38l1.09-.82Zm.06,5.39.14-.64h-1.44l.25-1.21h1.29l.13-.64h-1.28l.22-1h1.39l.13-.64H418.6l-.88,4.15Zm-5.68,0h.86l.36-1.69h.64a1.38,1.38,0,0,0,1.42-1.22c.16-.76-.05-1.24-.84-1.24h-1.56Zm1.61-3.51h.44c.39,0,.42.29.35.63s-.3.55-.56.55h-.48Zm-2.22,2.38c.27-1.31-1.48-1.24-1.32-2a.52.52,0,0,1,.54-.45c.35,0,.34.32.27.63h.85c.24-.87-.1-1.25-.94-1.25a1.43,1.43,0,0,0-1.62,1.17c-.26,1.23,1.47,1.28,1.32,2a.55.55,0,0,1-.54.47c-.48,0-.42-.34-.34-.73h-.87c-.19.72-.13,1.35.94,1.35a1.5,1.5,0,0,0,1.71-1.2m-6.64-3-.14.69h1l-.73,3.46h.86l.74-3.46h1l.15-.69Zm-1.89,2.59h-.83l.78-1.79h0Zm-1.57,1.56.43-.92h1.18l0,.92h.91l-.25-4.15h-1.14l-2,4.15Zm-2.77-2.49.35-1.66h-.87l-.88,4.15h.87l.39-1.85h1l-.39,1.85h.87l.88-4.15h-.87l-.35,1.66Zm-3.5,2.56c.81,0,1.34-.36,1.57-1.47h-.85c-.08.33-.18.85-.58.85s-.46-.46-.23-1.52.39-1.53.88-1.53c.25,0,.31.21.19.76h.85c.22-.89,0-1.38-.91-1.38-1.43,0-1.66,1.05-1.89,2.15s-.45,2.14,1,2.14m-2.9-1.63h-.83l.78-1.79h0Zm-1.57,1.56.43-.92h1.18l0,.92h.91l-.24-4.15h-1.15l-2,4.15Z" transform="translate(-389 -154.41)"/><path class="cls-5" d="M431.83,160.66,432,160h-1.3l.73-3.46h-.87l-.87,4.15Zm-3.75-1.56h-.83l.77-1.79h0Zm-1.57,1.56.43-.92h1.18l0,.92h.91l-.25-4.15h-1.14l-2,4.15Zm-1.43,0,.88-4.15h-.86l-.88,4.15Zm-2.94.07c.81,0,1.33-.36,1.56-1.47h-.85c-.08.33-.18.85-.58.85s-.46-.46-.23-1.52.39-1.53.88-1.53c.26,0,.31.21.19.76H424c.23-.89,0-1.38-.91-1.38-1.43,0-1.65,1.05-1.88,2.15S420.71,160.73,422.14,160.73ZM420,155.27l-.7.82h.38l1.09-.82Zm.06,5.39.14-.64h-1.44l.25-1.21h1.29l.13-.64h-1.28l.22-1h1.39l.13-.64H418.6l-.88,4.15Zm-5.68,0h.86l.36-1.69h.64a1.38,1.38,0,0,0,1.42-1.22c.16-.76-.05-1.24-.84-1.24h-1.56Zm1.61-3.51h.44c.39,0,.42.29.35.63s-.3.55-.56.55h-.48Zm-2.22,2.38c.27-1.31-1.48-1.24-1.32-2a.52.52,0,0,1,.54-.45c.35,0,.34.32.27.63h.85c.24-.87-.1-1.25-.94-1.25a1.43,1.43,0,0,0-1.62,1.17c-.26,1.23,1.47,1.28,1.32,2a.55.55,0,0,1-.54.47c-.48,0-.42-.34-.34-.73h-.87c-.19.72-.13,1.35.94,1.35A1.5,1.5,0,0,0,413.74,159.53Zm-6.64-3-.14.69h1l-.73,3.46h.86l.74-3.46h1l.15-.69Zm-1.89,2.59h-.83l.78-1.79h0Zm-1.57,1.56.43-.92h1.18l0,.92h.91l-.25-4.15h-1.14l-2,4.15Zm-2.77-2.49.35-1.66h-.87l-.88,4.15h.87l.39-1.85h1l-.39,1.85h.87l.88-4.15h-.87l-.35,1.66Zm-3.5,2.56c.81,0,1.34-.36,1.57-1.47h-.85c-.08.33-.18.85-.58.85s-.46-.46-.23-1.52.39-1.53.88-1.53c.25,0,.31.21.19.76h.85c.22-.89,0-1.38-.91-1.38-1.43,0-1.66,1.05-1.89,2.15S396,160.73,397.37,160.73Zm-2.9-1.63h-.83l.78-1.79h0Zm-1.57,1.56.43-.92h1.18l0,.92h.91l-.24-4.15h-1.15l-2,4.15Z" transform="translate(-389 -154.41)"/></g></svg>