<svg id="Layer_1" data-name="Layer 1" xmlns="http://www.w3.org/2000/svg" xmlns:xlink="http://www.w3.org/1999/xlink" viewBox="0 0 54.39 12.13"><defs><style>.cls-1,.cls-5{fill:none;}.cls-2{clip-path:url(#clip-path);}.cls-3{fill:#ed1c24;}.cls-4{fill:#fff;}.cls-5{stroke:#fff;stroke-miterlimit:3.73;stroke-width:0.12px;}</style><clipPath id="clip-path" transform="translate(-389 -154.87)"><rect class="cls-1" x="389" y="154.87" width="54.39" height="12.13"/></clipPath></defs><title>Special Buy_Red_EN</title><g class="cls-2"><path class="cls-3" d="M389.58,154.87a.57.57,0,0,0-.58.58v11a.57.57,0,0,0,.58.58h49.35a1.2,1.2,0,0,0,.92-.48l3.39-5a.91.91,0,0,0,0-1l-3.42-5.24a1.13,1.13,0,0,0-.9-.49Z" transform="translate(-389 -154.87)"/><path class="cls-4" d="M432.71,164h1.14l.4-2.1,2.28-4h-1.16L434,160.46l-.34-2.56h-1.24l.67,4Zm-2-6.07-.81,4.22c-.12.67-.43,1-.93,1s-.64-.29-.49-1l.8-4.22h-1.14l-.82,4.3c-.22,1.15.24,1.87,1.5,1.87a2.15,2.15,0,0,0,2.21-1.87l.82-4.3ZM424.25,164a1.84,1.84,0,0,0,2-1.61c.16-.83.06-1.41-.73-1.53v0a1.57,1.57,0,0,0,1.19-1.34c.24-1.29-.43-1.57-1.3-1.57h-2L422.23,164Zm.11-5.14h.7c.38,0,.6.33.51.78s-.5.77-.75.77h-.76Zm-.48,2.48h.66c.58,0,.7.33.59.87-.15.85-.7.85-.94.85h-.64ZM419.74,164l.19-1h-1.7l1-5.06H418L416.89,164Zm-4.9-2.28h-1.09l1-2.62h0ZM412.78,164l.56-1.35h1.56L415,164h1.2l-.33-6.07h-1.5L411.65,164ZM411,164l1.15-6.07H411L409.81,164Zm-3.84.1c1.06,0,1.75-.52,2.06-2.14H408c-.1.47-.23,1.23-.76,1.23s-.6-.67-.3-2.23.51-2.22,1.15-2.22c.34,0,.41.3.26,1.11h1.12c.29-1.3,0-2-1.2-2-1.89,0-2.18,1.53-2.48,3.13s-.61,3.14,1.28,3.14m-2.73-.1.18-.94h-1.9l.33-1.77h1.7l.18-.93h-1.69l.28-1.5h1.84l.17-.93h-3L401.34,164Zm-7.44,0h1.14l.47-2.47h.85a1.89,1.89,0,0,0,1.86-1.78c.22-1.11-.06-1.82-1.11-1.82h-2Zm2.13-5.14h.57c.51,0,.55.42.46.92s-.39.82-.73.82h-.64Zm-2.89,3.48c.36-1.9-1.95-1.8-1.73-2.95a.7.7,0,0,1,.71-.65c.46,0,.44.46.36.91h1.11c.31-1.26-.13-1.82-1.24-1.82a1.93,1.93,0,0,0-2.13,1.71c-.34,1.8,1.94,1.87,1.73,3-.08.41-.32.69-.71.69-.62,0-.55-.49-.44-1.07H392.7c-.26,1-.18,2,1.24,2a2,2,0,0,0,2.24-1.76" transform="translate(-389 -154.87)"/><path class="cls-5" d="M432.71,164h1.14l.4-2.1,2.28-4h-1.16L434,160.46l-.34-2.56h-1.24l.67,4Zm-2-6.07-.81,4.22c-.12.67-.43,1-.93,1s-.64-.29-.49-1l.8-4.22h-1.14l-.82,4.3c-.22,1.15.24,1.87,1.5,1.87a2.15,2.15,0,0,0,2.21-1.87l.82-4.3ZM424.25,164a1.84,1.84,0,0,0,2-1.61c.16-.83.06-1.41-.73-1.53v0a1.57,1.57,0,0,0,1.19-1.34c.24-1.29-.43-1.57-1.3-1.57h-2L422.23,164Zm.11-5.14h.7c.38,0,.6.33.51.78s-.5.77-.75.77h-.76Zm-.48,2.48h.66c.58,0,.7.33.59.87-.15.85-.7.85-.94.85h-.64ZM419.74,164l.19-1h-1.7l1-5.06H418L416.89,164Zm-4.9-2.28h-1.09l1-2.62h0ZM412.78,164l.56-1.35h1.56L415,164h1.2l-.33-6.07h-1.5L411.65,164ZM411,164l1.15-6.07H411L409.81,164Zm-3.84.1c1.06,0,1.75-.52,2.06-2.14H408c-.1.47-.23,1.23-.76,1.23s-.6-.67-.3-2.23.51-2.22,1.15-2.22c.34,0,.41.3.26,1.11h1.12c.29-1.3,0-2-1.2-2-1.89,0-2.18,1.53-2.48,3.13S405.22,164.07,407.11,164.07Zm-2.73-.1.18-.94h-1.9l.33-1.77h1.7l.18-.93h-1.69l.28-1.5h1.84l.17-.93h-3L401.34,164Zm-7.44,0h1.14l.47-2.47h.85a1.89,1.89,0,0,0,1.86-1.78c.22-1.11-.06-1.82-1.11-1.82h-2Zm2.13-5.14h.57c.51,0,.55.42.46.92s-.39.82-.73.82h-.64Zm-2.89,3.48c.36-1.9-1.95-1.8-1.73-2.95a.7.7,0,0,1,.71-.65c.46,0,.44.46.36.91h1.11c.31-1.26-.13-1.82-1.24-1.82a1.93,1.93,0,0,0-2.13,1.71c-.34,1.8,1.94,1.87,1.73,3-.08.41-.32.69-.71.69-.62,0-.55-.49-.44-1.07H392.7c-.26,1-.18,2,1.24,2A2,2,0,0,0,396.18,162.31Z" transform="translate(-389 -154.87)"/></g></svg>