<?xml version="1.0" encoding="UTF-8"?>
<svg width="36px" height="36px" viewBox="0 0 36 36" version="1.1" xmlns="http://www.w3.org/2000/svg" xmlns:xlink="http://www.w3.org/1999/xlink">
    <title>icon - close</title>
    <g id="Page-1" stroke="none" stroke-width="1" fill="none" fill-rule="evenodd">
        <g id="Icons---Branded-to-show-contrast" transform="translate(-442.000000, -103.000000)">
            <g id="icon---close" transform="translate(442.000000, 103.000000)">
                <circle id="Oval-Copy-8" fill="#ED1C24" cx="18" cy="18" r="18"></circle>
                <path d="M18,34 C26.836556,34 34,26.836556 34,18 C34,9.163444 26.836556,2 18,2 C9.163444,2 2,9.163444 2,18 C2,26.836556 9.163444,34 18,34 Z M23.8578865,22.0853722 L19.7600208,17.9718896 L23.8672566,13.9115044 C24.0359188,13.7428423 24.0359188,13.4679854 23.8672566,13.2993233 L22.699115,12.1249349 C22.6179073,12.0437272 22.5085893,12 22.3930245,12 C22.2774597,12 22.1681416,12.0468506 22.0869339,12.1249349 L17.9984383,16.1728267 L13.903696,12.1280583 C13.8224883,12.0468506 13.7131702,12.0031234 13.5976054,12.0031234 C13.4820406,12.0031234 13.3727225,12.049974 13.2915148,12.1280583 L12.1264966,13.3024466 C11.9578345,13.4711088 11.9578345,13.7459656 12.1264966,13.9146278 L16.2337324,17.975013 L12.1389901,22.0853722 C12.0577824,22.1665799 12.0109318,22.275898 12.0109318,22.3914628 C12.0109318,22.5070276 12.054659,22.6163457 12.1389901,22.6975534 L13.3071317,23.8719417 C13.3914628,23.9562728 13.5007808,24 13.6132223,24 C13.7225403,24 13.8349818,23.9593961 13.9193129,23.8719417 L17.9984383,19.774076 L22.0806871,23.8688183 C22.1650182,23.9531494 22.2743363,23.9968766 22.3867777,23.9968766 C22.4960958,23.9968766 22.6085372,23.9562728 22.6928683,23.8688183 L23.8610099,22.69443 C23.9422176,22.6132223 23.9890682,22.5039042 23.9890682,22.3883394 C23.9859448,22.275898 23.9390942,22.1665799 23.8578865,22.0853722 Z" id="Combined-Shape" fill="#FFFFFF"></path>
            </g>
        </g>
    </g>
</svg>