<?xml version="1.0" encoding="UTF-8"?>
<svg width="36px" height="36px" viewBox="0 0 36 36" version="1.1" xmlns="http://www.w3.org/2000/svg" xmlns:xlink="http://www.w3.org/1999/xlink">
    <title>icon - mute</title>
    <g id="Page-1" stroke="none" stroke-width="1" fill="none" fill-rule="evenodd">
        <g id="Icons---Branded-to-show-contrast" transform="translate(-398.000000, -103.000000)">
            <g id="icon---mute" transform="translate(398.000000, 103.000000)">
                <circle id="Oval-Copy-32" fill="#ED1C24" cx="18" cy="18" r="18"></circle>
                <path d="M18,2 C26.836556,2 34,9.163444 34,18 C34,26.836556 26.836556,34 18,34 C9.163444,34 2,26.836556 2,18 C2,9.163444 9.163444,2 18,2 Z M16.1146332,10.081589 L10.9285933,14.3927642 L9.77141981,14.3927642 C9.34537394,14.3927642 9,14.8234284 9,15.3546866 L9,20.6453144 C9,21.1765726 9.34537394,21.6072368 9.77141981,21.6072368 L10.9285933,21.6072368 L16.1146332,25.918412 C16.3709702,26.1315051 16.7142857,25.9023563 16.7142857,25.5182208 L16.7142857,10.4817255 C16.7142857,10.0976447 16.3709702,9.86849591 16.1146332,10.081589 Z M25.861946,14.1952967 L22.9999748,17.0572769 L20.1380036,14.1952967 C19.8776088,13.9349011 19.4557288,13.9349011 19.195334,14.1952967 C18.9348887,14.4556419 18.9348887,14.8777251 19.195334,15.1380198 L22.0572547,18 L19.195334,20.8619802 C18.9348887,21.1222749 18.9348887,21.5443581 19.195334,21.8047033 C19.3254809,21.9349011 19.4961001,22 19.6666688,22 C19.8372375,22 20.0078062,21.9349011 20.1380036,21.8047033 L22.9999748,18.9427231 L25.861946,21.8047033 C25.9921434,21.9349011 26.1627121,22 26.3333312,22 C26.5038999,22 26.6744686,21.9349011 26.804666,21.8047033 C27.0651113,21.5443581 27.0651113,21.1222749 26.804666,20.8619802 L23.9426948,18 L26.804666,15.1380198 C27.0651113,14.8777251 27.0651113,14.4556419 26.804666,14.1952967 C26.5442208,13.9349011 26.1223912,13.9349011 25.861946,14.1952967 Z" id="icon-muted-copy-2" fill="#FFFFFF"></path>
            </g>
        </g>
    </g>
</svg>