<?xml version="1.0" encoding="UTF-8"?>
<svg width="36px" height="36px" viewBox="0 0 36 36" version="1.1" xmlns="http://www.w3.org/2000/svg" xmlns:xlink="http://www.w3.org/1999/xlink">
    <title>icon - pause</title>
    <g id="Page-1" stroke="none" stroke-width="1" fill="none" fill-rule="evenodd">
        <g id="Icons---Branded-to-show-contrast" transform="translate(-312.000000, -103.000000)">
            <g id="icon---pause" transform="translate(312.000000, 103.000000)">
                <circle id="Oval-Copy-23" fill="#ED1C24" cx="18" cy="18" r="18"></circle>
                <path d="M17.9999481,2 C26.8365445,2 34,9.16335171 34,17.9999481 C34,26.8365445 26.8365445,34 17.9999481,34 C9.16345552,34 2,26.8365445 2,17.9999481 C2,9.16335171 9.16345552,2 17.9999481,2 Z M22.5999637,12 L20.4000363,12 C20.1800345,12 20,12.1799464 20,12.3999516 L20,23.6000484 C20,23.8200536 20.1800345,24 20.4000363,24 L22.5999637,24 C22.8199655,24 23,23.8200536 23,23.6000484 L23,12.3999516 C23,12.1799464 22.8199655,12 22.5999637,12 Z M15.5999637,12 L13.4000363,12 C13.1800345,12 13,12.1799464 13,12.3999516 L13,23.6000484 C13,23.8200536 13.1800345,24 13.4000363,24 L15.5999637,24 C15.8199655,24 16,23.8200536 16,23.6000484 L16,12.3999516 C16,12.1799464 15.8199655,12 15.5999637,12 Z" id="icon-pause-copy-2" fill="#FFFFFF"></path>
            </g>
        </g>
    </g>
</svg>