<?xml version="1.0" encoding="UTF-8"?>
<svg width="36px" height="36px" viewBox="0 0 36 36" version="1.1" xmlns="http://www.w3.org/2000/svg" xmlns:xlink="http://www.w3.org/1999/xlink">
    <title>icon - unmute</title>
    <g id="Page-1" stroke="none" stroke-width="1" fill="none" fill-rule="evenodd">
        <g id="Icons---Branded-to-show-contrast" transform="translate(-354.000000, -103.000000)">
            <g id="icon---unmute" transform="translate(354.000000, 103.000000)">
                <circle id="Oval-Copy-21" fill="#ED1C24" cx="18" cy="18" r="18"></circle>
                <path d="M18,2 C26.836556,2 34,9.163444 34,18 C34,26.836556 26.836556,34 18,34 C9.163444,34 2,26.836556 2,18 C2,9.163444 9.163444,2 18,2 Z M16.810589,10.081589 L11.8461748,14.3927642 L10.7384532,14.3927642 C10.3306144,14.3927642 10,14.8234284 10,15.3546866 L10,20.6453144 C10,21.1765726 10.3306144,21.6072368 10.7384532,21.6072368 L11.8461748,21.6072368 L16.810589,25.918412 C17.0559714,26.1315051 17.3846154,25.9023563 17.3846154,25.5182208 L17.3846154,10.4817255 C17.3846154,10.0976447 17.0559714,9.86849591 16.810589,10.081589 Z M21.1000861,12.3728617 C20.8870228,12.7225043 21.025252,13.1634367 21.4091754,13.3577496 C23.2597977,14.2937851 24.4093401,16.0726474 24.4093401,18.0000407 C24.4093401,19.9274339 23.2597977,21.7062962 21.4091754,22.6423318 C21.025252,22.8366447 20.8870228,23.2775771 21.1000861,23.6272197 C21.2456001,23.8656149 21.5166402,24 21.7962895,24 C21.9267524,24 22.0593224,23.9706666 22.1817781,23.908765 C24.5369734,22.7173374 26,20.4532411 26,18.0000407 C26,15.5468402 24.5369734,13.2827439 22.1817781,12.0913163 C21.7975538,11.8969486 21.3136912,12.0230546 21.1000861,12.3728617 Z" id="icon-unmute-copy-2" fill="#FFFFFF"></path>
            </g>
        </g>
    </g>
</svg>