<?xml version="1.0" encoding="UTF-8"?>
<svg width="136px" height="34px" viewBox="0 0 136 34" version="1.1" xmlns="http://www.w3.org/2000/svg" xmlns:xlink="http://www.w3.org/1999/xlink">
    <title>icon - zoom</title>
    <g id="Icons-/-Styling" stroke="none" stroke-width="1" fill="none" fill-rule="evenodd">
        <g id="CTC-FLyer---icons" transform="translate(-243.000000, -107.000000)">
            <g id="icon---zoom" transform="translate(243.000000, 107.000000)">
                <rect id="Rectangle-Copy-2" stroke="#BBBBBB" x="0.5" y="0.5" width="135" height="33" rx="4"></rect>
                <polygon id="Line" fill="#BBBBBB" fill-rule="nonzero" points="101.5 1 101.5 34 100.5 34 100.5 1"></polygon>
                <path d="M40.682,22 L40.682,20.705 L38.862,20.705 L38.862,11.864 L37.441,11.864 L34.354,14.489 L34.9,15.238 C34.9373333,15.2893333 34.9945,15.3348333 35.0715,15.3745 C35.1485,15.4141667 35.2336667,15.434 35.327,15.434 C35.3876667,15.434 35.4495,15.4246667 35.5125,15.406 C35.5755,15.3873333 35.6373333,15.3523333 35.698,15.301 L35.698,15.301 L37.154,14.083 C37.14,14.335 37.133,14.5753333 37.133,14.804 L37.133,14.804 L37.133,20.705 L35.082,20.705 L35.082,22 L40.682,22 Z M45.365,22.112 C45.8923333,22.112 46.3835,22.0081667 46.8385,21.8005 C47.2935,21.5928333 47.6878333,21.2766667 48.0215,20.852 C48.3551667,20.4273333 48.6165,19.8895 48.8055,19.2385 C48.9945,18.5875 49.089,17.821 49.089,16.939 C49.089,16.0523333 48.9945,15.2846667 48.8055,14.636 C48.6165,13.9873333 48.3551667,13.4506667 48.0215,13.026 C47.6878333,12.6013333 47.2935,12.2851667 46.8385,12.0775 C46.3835,11.8698333 45.8923333,11.766 45.365,11.766 C44.8376667,11.766 44.3488333,11.8698333 43.8985,12.0775 C43.4481667,12.2851667 43.0573333,12.6013333 42.726,13.026 C42.3946667,13.4506667 42.1356667,13.9873333 41.949,14.636 C41.7623333,15.2846667 41.669,16.0523333 41.669,16.939 C41.669,17.821 41.7623333,18.5875 41.949,19.2385 C42.1356667,19.8895 42.3946667,20.4273333 42.726,20.852 C43.0573333,21.2766667 43.4481667,21.5928333 43.8985,21.8005 C44.3488333,22.0081667 44.8376667,22.112 45.365,22.112 Z M45.365,20.677 C45.1176667,20.677 44.8785,20.6198333 44.6475,20.5055 C44.4165,20.3911667 44.2123333,20.1916667 44.035,19.907 C43.8576667,19.6223333 43.7165,19.2396667 43.6115,18.759 C43.5065,18.2783333 43.454,17.6716667 43.454,16.939 C43.454,16.2063333 43.5065,15.5996667 43.6115,15.119 C43.7165,14.6383333 43.8576667,14.2556667 44.035,13.971 C44.2123333,13.6863333 44.4165,13.4868333 44.6475,13.3725 C44.8785,13.2581667 45.1176667,13.201 45.365,13.201 C45.617,13.201 45.8596667,13.2581667 46.093,13.3725 C46.3263333,13.4868333 46.5328333,13.6863333 46.7125,13.971 C46.8921667,14.2556667 47.0356667,14.6383333 47.143,15.119 C47.2503333,15.5996667 47.304,16.2063333 47.304,16.939 C47.304,17.6716667 47.2503333,18.2783333 47.143,18.759 C47.0356667,19.2396667 46.8921667,19.6223333 46.7125,19.907 C46.5328333,20.1916667 46.3263333,20.3911667 46.093,20.5055 C45.8596667,20.6198333 45.617,20.677 45.365,20.677 Z M53.485,22.112 C54.0123333,22.112 54.5035,22.0081667 54.9585,21.8005 C55.4135,21.5928333 55.8078333,21.2766667 56.1415,20.852 C56.4751667,20.4273333 56.7365,19.8895 56.9255,19.2385 C57.1145,18.5875 57.209,17.821 57.209,16.939 C57.209,16.0523333 57.1145,15.2846667 56.9255,14.636 C56.7365,13.9873333 56.4751667,13.4506667 56.1415,13.026 C55.8078333,12.6013333 55.4135,12.2851667 54.9585,12.0775 C54.5035,11.8698333 54.0123333,11.766 53.485,11.766 C52.9576667,11.766 52.4688333,11.8698333 52.0185,12.0775 C51.5681667,12.2851667 51.1773333,12.6013333 50.846,13.026 C50.5146667,13.4506667 50.2556667,13.9873333 50.069,14.636 C49.8823333,15.2846667 49.789,16.0523333 49.789,16.939 C49.789,17.821 49.8823333,18.5875 50.069,19.2385 C50.2556667,19.8895 50.5146667,20.4273333 50.846,20.852 C51.1773333,21.2766667 51.5681667,21.5928333 52.0185,21.8005 C52.4688333,22.0081667 52.9576667,22.112 53.485,22.112 Z M53.485,20.677 C53.2376667,20.677 52.9985,20.6198333 52.7675,20.5055 C52.5365,20.3911667 52.3323333,20.1916667 52.155,19.907 C51.9776667,19.6223333 51.8365,19.2396667 51.7315,18.759 C51.6265,18.2783333 51.574,17.6716667 51.574,16.939 C51.574,16.2063333 51.6265,15.5996667 51.7315,15.119 C51.8365,14.6383333 51.9776667,14.2556667 52.155,13.971 C52.3323333,13.6863333 52.5365,13.4868333 52.7675,13.3725 C52.9985,13.2581667 53.2376667,13.201 53.485,13.201 C53.737,13.201 53.9796667,13.2581667 54.213,13.3725 C54.4463333,13.4868333 54.6528333,13.6863333 54.8325,13.971 C55.0121667,14.2556667 55.1556667,14.6383333 55.263,15.119 C55.3703333,15.5996667 55.424,16.2063333 55.424,16.939 C55.424,17.6716667 55.3703333,18.2783333 55.263,18.759 C55.1556667,19.2396667 55.0121667,19.6223333 54.8325,19.907 C54.6528333,20.1916667 54.4463333,20.3911667 54.213,20.5055 C53.9796667,20.6198333 53.737,20.677 53.485,20.677 Z M60.317,16.827 C60.625,16.827 60.9213333,16.7686667 61.206,16.652 C61.4906667,16.5353333 61.7403333,16.3685 61.955,16.1515 C62.1696667,15.9345 62.3411667,15.672 62.4695,15.364 C62.5978333,15.056 62.662,14.7106667 62.662,14.328 C62.662,13.936 62.6036667,13.5813333 62.487,13.264 C62.3703333,12.9466667 62.207,12.6783333 61.997,12.459 C61.787,12.2396667 61.5385,12.0705 61.2515,11.9515 C60.9645,11.8325 60.653,11.773 60.317,11.773 C59.981,11.773 59.6706667,11.8325 59.386,11.9515 C59.1013333,12.0705 58.8551667,12.2396667 58.6475,12.459 C58.4398333,12.6783333 58.2776667,12.9466667 58.161,13.264 C58.0443333,13.5813333 57.986,13.936 57.986,14.328 C57.986,14.7106667 58.0443333,15.056 58.161,15.364 C58.2776667,15.672 58.4398333,15.9345 58.6475,16.1515 C58.8551667,16.3685 59.1013333,16.5353333 59.386,16.652 C59.6706667,16.7686667 59.981,16.827 60.317,16.827 Z M59.799,22 C59.9203333,22 60.0241667,21.9755 60.1105,21.9265 C60.1968333,21.8775 60.268,21.8156667 60.324,21.741 L60.324,21.741 L67.842,11.878 L66.589,11.878 C66.4396667,11.878 66.323,11.906 66.239,11.962 C66.155,12.018 66.085,12.081 66.029,12.151 L66.029,12.151 L58.511,22 L59.799,22 Z M60.317,15.707 C60.177,15.707 60.0463333,15.6836667 59.925,15.637 C59.8036667,15.5903333 59.6986667,15.5133333 59.61,15.406 C59.5213333,15.2986667 59.4525,15.1575 59.4035,14.9825 C59.3545,14.8075 59.33,14.5893333 59.33,14.328 C59.33,14.0573333 59.3545,13.831 59.4035,13.649 C59.4525,13.467 59.5213333,13.32 59.61,13.208 C59.6986667,13.096 59.8036667,13.0155 59.925,12.9665 C60.0463333,12.9175 60.177,12.893 60.317,12.893 C60.457,12.893 60.5888333,12.9175 60.7125,12.9665 C60.8361667,13.0155 60.9435,13.096 61.0345,13.208 C61.1255,13.32 61.1966667,13.467 61.248,13.649 C61.2993333,13.831 61.325,14.0573333 61.325,14.328 C61.325,14.5893333 61.2993333,14.8075 61.248,14.9825 C61.1966667,15.1575 61.1255,15.2986667 61.0345,15.406 C60.9435,15.5133333 60.8361667,15.5903333 60.7125,15.637 C60.5888333,15.6836667 60.457,15.707 60.317,15.707 Z M66.029,22.126 C66.337,22.126 66.6333333,22.0665 66.918,21.9475 C67.2026667,21.8285 67.4523333,21.6605 67.667,21.4435 C67.8816667,21.2265 68.0531667,20.964 68.1815,20.656 C68.3098333,20.348 68.374,20.0026667 68.374,19.62 C68.374,19.228 68.3156667,18.8733333 68.199,18.556 C68.0823333,18.2386667 67.919,17.9703333 67.709,17.751 C67.499,17.5316667 67.2505,17.3625 66.9635,17.2435 C66.6765,17.1245 66.365,17.065 66.029,17.065 C65.693,17.065 65.3826667,17.1245 65.098,17.2435 C64.8133333,17.3625 64.5671667,17.5316667 64.3595,17.751 C64.1518333,17.9703333 63.9896667,18.2386667 63.873,18.556 C63.7563333,18.8733333 63.698,19.228 63.698,19.62 C63.698,20.0026667 63.7563333,20.348 63.873,20.656 C63.9896667,20.964 64.1518333,21.2265 64.3595,21.4435 C64.5671667,21.6605 64.8133333,21.8285 65.098,21.9475 C65.3826667,22.0665 65.693,22.126 66.029,22.126 Z M66.029,21.006 C65.889,21.006 65.7583333,20.9826667 65.637,20.936 C65.5156667,20.8893333 65.4118333,20.8123333 65.3255,20.705 C65.2391667,20.5976667 65.1703333,20.4553333 65.119,20.278 C65.0676667,20.1006667 65.042,19.8813333 65.042,19.62 C65.042,19.3493333 65.0676667,19.123 65.119,18.941 C65.1703333,18.759 65.2391667,18.612 65.3255,18.5 C65.4118333,18.388 65.5156667,18.3075 65.637,18.2585 C65.7583333,18.2095 65.889,18.185 66.029,18.185 C66.169,18.185 66.3008333,18.2095 66.4245,18.2585 C66.5481667,18.3075 66.6555,18.388 66.7465,18.5 C66.8375,18.612 66.9098333,18.759 66.9635,18.941 C67.0171667,19.123 67.044,19.3493333 67.044,19.62 C67.044,19.8813333 67.0171667,20.1006667 66.9635,20.278 C66.9098333,20.4553333 66.8375,20.5976667 66.7465,20.705 C66.6555,20.8123333 66.5481667,20.8893333 66.4245,20.936 C66.3008333,20.9826667 66.169,21.006 66.029,21.006 Z" id="100%" fill="#545454" fill-rule="nonzero"></path>
                <path d="M125,13 L121,17 L124,17 C124,20.31 121.31,23 118,23 C116.99,23 116.03,22.75 115.2,22.3 L113.74,23.76 C114.97,24.54 116.43,25 118,25 C122.42,25 126,21.42 126,17 L129,17 L125,13 Z M112,17 C112,13.69 114.69,11 118,11 C119.01,11 119.97,11.25 120.8,11.7 L122.26,10.24 C121.03,9.46 119.57,9 118,9 C113.58,9 110,12.58 110,17 L107,17 L111,21 L115,17 L112,17 Z" id="icon-reset" fill="#545454" fill-rule="nonzero"></path>
                <path d="M17,25 C21.4028777,25 25,21.4029162 25,17.0000857 C25,12.5972552 21.4028777,9.00017147 17,9.00017147 C12.5971223,8.9713948 9,12.5684785 9,16.9713091 C9,21.4029162 12.5971223,25 17,25 Z M13.5467626,16.453329 L20.4820144,16.453329 C20.7697842,16.453329 21.028777,16.6835424 21.028777,17.0000857 C21.028777,17.3166291 20.7985612,17.5468425 20.4820144,17.5468425 L13.5467626,17.5468425 C13.2589928,17.5468425 13,17.3166291 13,17.0000857 C13,16.6835424 13.2302158,16.453329 13.5467626,16.453329 Z" id="icon-decrease" fill="#545454" fill-rule="nonzero"></path>
                <path d="M83,25 C87.4028777,25 91,21.4029162 91,17.0000857 C91,12.5972552 87.4028777,9.00017147 83,9.00017147 C78.5971223,8.9713948 75,12.5684785 75,16.9713091 C75,21.4029162 78.5971223,25 83,25 Z M79.5467626,16.453329 L82.4820144,16.453329 L82.4820144,13.5181087 C82.4820144,13.230342 82.7122302,12.9713519 83.028777,12.9713519 C83.3453237,12.9713519 83.5755396,13.2015653 83.5755396,13.5181087 L83.5755396,16.453329 L86.5107914,16.453329 C86.7985612,16.453329 87.057554,16.6835424 87.057554,17.0000857 C87.057554,17.3166291 86.8273381,17.5468425 86.5107914,17.5468425 L83.5467626,17.5468425 L83.5467626,20.4820628 C83.5467626,20.7698295 83.3165468,21.0288195 83,21.0288195 C82.6834532,21.0288195 82.4532374,20.7986062 82.4532374,20.4820628 L82.4532374,17.5180658 L79.5467626,17.5180658 C79.2589928,17.5180658 79,17.2878524 79,16.9713091 C79,16.6547657 79.2302158,16.453329 79.5467626,16.453329 Z" id="icon-increase" fill="#545454" fill-rule="nonzero"></path>
            </g>
        </g>
    </g>
</svg>