<svg xmlns="http://www.w3.org/2000/svg" viewBox="0 0 968.5 95.29"><defs><style>.cls-1{fill:#ed1c24;}.cls-2{fill:#78ccc7;}.cls-3{fill:#83142f;}.cls-4{fill:#eb2227;}</style></defs><g id="Layer_2" data-name="Layer 2"><g id="Layer_1-2" data-name="Layer 1"><path class="cls-1" d="M457.33,65a23.89,23.89,0,0,0,13.86,4.46c7.36,0,11.17-3.67,11.17-9.32,0-14.88-26.68-5.65-26.68-25.1,0-8.43,6.15-14.08,15.25-14.08a30.72,30.72,0,0,1,14.29,3.77L483.31,29a26.72,26.72,0,0,0-12.38-3.47c-6.41,0-10.48,3.87-10.48,9.32,0,14.88,26.67,5.26,26.67,25.1,0,8.63-5.71,14.09-15.93,14.09a28.77,28.77,0,0,1-16.11-4.86Z"/><path class="cls-1" d="M0,1.29H26.8c16,0,21.79,10.48,21.79,20.65,0,8.44-4.53,17.5-15,20.14L48.31,72.5H42.37L28.5,42.79H5.28V72.5H0ZM26.61,38c12.08,0,16.61-8.34,16.61-16,0-7.93-4.44-15.77-16.42-15.77H5.28V38Z"/><polygon class="cls-1" points="629.71 6.33 629.71 72.5 624.5 72.5 624.5 6.33 601.97 6.33 601.97 1.31 652.34 1.31 652.34 6.33 629.71 6.33"/><path class="cls-1" d="M677.34,26.61c-12.52,0-15.93,11.25-15.93,21.79V72.5h-5V22.29h4.4l.6,10.14c2.21-6.92,8.92-10.64,15.93-10.64a27,27,0,0,1,4.91.3v5a20.53,20.53,0,0,0-4.91-.5"/><path class="cls-1" d="M824.23,72.5V39.66c0-8.73-3.81-13.75-12.92-13.75-12.32,0-16.63,10.64-16.63,21.49V72.5h-5V22.29h4.4l.6,9.14C797.49,25.1,804.6,21,811.61,21c11.52,0,17.63,7.13,17.63,18.37V72.5Z"/><path class="cls-1" d="M436.89,72.5V39.66c0-8.73-3.81-13.75-12.92-13.75-12.32,0-16.63,10.64-16.63,21.49V72.5h-5V22.29h4.4l.6,9.14C410.15,25.1,417.26,21,424.27,21c11.52,0,17.63,7.13,17.63,18.37V72.5Z"/><path class="cls-1" d="M863.4,25.5c-7.81,0-13.82,5-13.82,13.06s6,12.85,13.82,12.85,13.92-4.82,13.92-12.85S871.22,25.5,863.4,25.5m17.43,48.3c-2.3-2.4-6.21-3.71-12.12-3.71H855.49a10.38,10.38,0,0,0-8.31,10.34,8.64,8.64,0,0,0,2.7,6.33c3.61,3.41,9.82,4,14.82,4s12.12-.6,15.93-4.41a9,9,0,0,0,2.6-6.33,8.43,8.43,0,0,0-2.4-6.23m3.61,15.57c-4.31,4.42-11.82,5.92-19.84,5.92-7.61,0-14.42-1.5-18.62-5.82a12.49,12.49,0,0,1-3.51-9A13.07,13.07,0,0,1,850,68.68a9.13,9.13,0,0,1-6.31-8.23c0-4.32,2.21-7.33,6-9.54a16.65,16.65,0,0,1-5-12.35c0-10.85,8.22-17.57,18.73-17.57a20.86,20.86,0,0,1,11.72,3.41c1.3-4.32,5.61-6.83,10.12-6.83.6,0,1.3.21,1.9.21v4.31c-.6,0-1.3-.2-1.9-.2a6.58,6.58,0,0,0-6.91,5.42,16.93,16.93,0,0,1,4,11.25c0,10.84-8.41,17.37-18.93,17.37a21.59,21.59,0,0,1-10-2.31c-2.61,1-5,3.11-5,6.23a5,5,0,0,0,3.51,4.71,21.34,21.34,0,0,0,6.71.81h10.91c6.41,0,11.52,1.61,14.73,4.92a12.89,12.89,0,0,1,4,9.74,13.28,13.28,0,0,1-3.8,9.34"/><path class="cls-1" d="M908,73.1c-6.41,0-10-3.31-10-10.64V0h5V62.26c0,3.41,1,6,5.21,6a26.89,26.89,0,0,0,4.3-.2V72.5a15.68,15.68,0,0,1-4.5.6"/><path class="cls-1" d="M940.81,25.71C930.5,25.71,924,34,924,44h33.15c-.19-9.54-6.1-18.27-16.32-18.27M962.14,48.6H923.88a24.23,24.23,0,0,0,5.21,15.06A15,15,0,0,0,941.21,69a14.86,14.86,0,0,0,10.92-4.42,14.08,14.08,0,0,0,3.8-7.13h5.21A18.66,18.66,0,0,1,955.53,68a20,20,0,0,1-14.32,5.82,20.3,20.3,0,0,1-15.92-7.12c-4.11-4.82-6.41-11.45-6.41-19.08,0-6.33,1-12.56,4.91-17.88a20.34,20.34,0,0,1,17-8.73c13.52,0,21.43,11.64,21.43,24.3,0,1.2-.1,2.11-.1,3.31"/><path class="cls-1" d="M368.23,25.71C357.91,25.71,351.4,34,351.4,44h33.15c-.2-9.54-6.1-18.27-16.32-18.27M389.56,48.6H351.3a24.23,24.23,0,0,0,5.21,15.06C359.31,67,363.22,69,368.63,69a14.82,14.82,0,0,0,10.91-4.42,14,14,0,0,0,3.81-7.13h5.21A18.66,18.66,0,0,1,383,68a20,20,0,0,1-14.32,5.82,20.33,20.33,0,0,1-15.93-7.12c-4.1-4.82-6.41-11.45-6.41-19.08,0-6.33,1-12.56,4.91-17.88a20.37,20.37,0,0,1,17-8.73c13.52,0,21.43,11.64,21.43,24.3,0,1.2-.1,2.11-.1,3.31"/><path class="cls-1" d="M553.51,65a23.89,23.89,0,0,0,13.86,4.46c7.36,0,11.17-3.67,11.17-9.32,0-14.88-26.68-5.65-26.68-25.1C551.86,26.61,558,21,567.11,21a30.69,30.69,0,0,1,14.29,3.77L579.49,29a26.72,26.72,0,0,0-12.38-3.47c-6.41,0-10.48,3.87-10.48,9.32,0,14.88,26.67,5.26,26.67,25.1,0,8.63-5.71,14.09-15.93,14.09a28.77,28.77,0,0,1-16.11-4.86Z"/><path class="cls-1" d="M519.55,25.71c-10.32,0-16.83,8.33-16.83,18.27h33.15c-.2-9.54-6.11-18.27-16.32-18.27M540.88,48.6H502.62a24.17,24.17,0,0,0,5.21,15.06C510.63,67,514.54,69,520,69a14.84,14.84,0,0,0,10.91-4.42,14,14,0,0,0,3.81-7.13h5.21A18.71,18.71,0,0,1,534.27,68,20,20,0,0,1,520,73.8,20.33,20.33,0,0,1,504,66.68c-4.1-4.82-6.41-11.45-6.41-19.08,0-6.33,1-12.56,4.91-17.88a20.37,20.37,0,0,1,17-8.73C533.07,21,541,32.63,541,45.29c0,1.2-.1,2.11-.1,3.31"/><path class="cls-1" d="M703.82,73.1c-6.41,0-10-3.31-10-10.64V22.29h5v40c0,3.41,1,6,5.21,6a27.09,27.09,0,0,0,4.31-.2V72.5a15.82,15.82,0,0,1-4.51.6"/><path class="cls-2" d="M773.58,26.79,745.4,65.63,717.23,26.79h56.35m6-4.6H711.18a1.51,1.51,0,0,0-1.22,2.4l34.23,47.19a1.49,1.49,0,0,0,1.21.62,1.51,1.51,0,0,0,1.22-.62l34.23-47.19a1.51,1.51,0,0,0-1.22-2.4Z"/><path class="cls-3" d="M745.4,65.63,717.23,26.79h56.35Zm-19.28-34.3,19.29,26.6,19.29-26.6Z"/><path class="cls-4" d="M726.11,31.33l19.29,26.6,19.29-26.6Z"/><path class="cls-1" d="M130.85,21a23,23,0,0,1,14.57,4.94l-2.76,4a18.56,18.56,0,0,0-11.72-4.15c-9.69,0-16.61,8.11-16.61,21.06,0,13.85,6.55,22.45,16.61,22.45,5.63,0,9.22-2.07,12.55-5l3,3.56a21.65,21.65,0,0,1-15.68,6.13c-12.92,0-21.69-10.28-21.69-27.1C109.16,31,118.21,21,130.85,21Z"/><path class="cls-1" d="M176.77,21c13.09,0,22.67,10.19,22.67,25.81,0,16.62-9.2,27.1-22.67,27.1C163.11,73.9,154,63.42,154,46.8,154,31.18,163.68,21,176.77,21Zm0,48.46c10.44,0,17.27-8.9,17.27-22.65,0-12.86-7.21-21.26-17.27-21.26s-17.46,8.4-17.46,21.26C159.31,60.55,166.15,69.45,176.77,69.45Z"/><path class="cls-1" d="M300.51,92.5h-5.27V22.17h4.6l.58,7.22c4.12-4.64,9.39-8.4,16.29-8.4,12.18,0,20.14,9.69,20.14,25.71,0,16.82-7.39,27.2-20,27.2-6.62,0-12-3.36-16.3-8.3Zm15.34-23.15c10.16,0,15.72-8.9,15.72-22.65,0-13.05-6-21.16-15.81-21.16-6.14,0-11,3.56-15.25,8.5V60.85C304.73,66.09,310,69.35,315.85,69.35Z"/><path class="cls-1" d="M281.58,36.87l0,0s-.1-13.28-12.8-15.57l-.19,0c-.49-.08-1-.15-1.51-.2l-.41,0c-.59,0-1.19-.07-1.83-.07-.42,0-.84,0-1.26.05a16.66,16.66,0,0,0-9.17,3.37,17.06,17.06,0,0,0-5.25,6c-.46.77-.86,1.54-1.23,2.29C246,25.39,240.58,21,232,21A17.87,17.87,0,0,0,215.8,31.43l-.57-9.14H211V72.5h4.78V47.4c0-10.85,4.11-21.49,15.87-21.49,8.7,0,12.33,5,12.33,13.75V72.5h4.78V45.12c.55-10,4.87-19.21,15.8-19.21,8.7,0,12.33,5,12.33,13.75V72.5h4.78V39.36C281.69,38.5,281.65,37.68,281.58,36.87Z"/><path class="cls-4" d="M77.92,25.71C67.6,25.71,61.09,34,61.09,44H94.24c-.2-9.54-6.1-18.27-16.32-18.27M99.25,48.6H61A24.23,24.23,0,0,0,66.2,63.66,15,15,0,0,0,78.32,69a14.86,14.86,0,0,0,10.92-4.42A14.08,14.08,0,0,0,93,57.44h5.21A18.66,18.66,0,0,1,92.64,68,20,20,0,0,1,78.32,73.8,20.3,20.3,0,0,1,62.4,66.68C58.29,61.86,56,55.23,56,47.6c0-6.33,1-12.56,4.9-17.88a20.37,20.37,0,0,1,17-8.73c13.52,0,21.43,11.64,21.43,24.3,0,1.2-.1,2.11-.1,3.31"/><path class="cls-4" d="M82.54,1l4.08,3.09L72.6,17.3H68.72Z"/><path class="cls-1" d="M960.55,22.25h.66l1.27,1.81,1.27-1.81h.66V26.1h-.64V23.23L962.48,25l-1.3-1.81V26.1h-.63Z"/><path class="cls-1" d="M967.07,22.18a2.15,2.15,0,0,1,1.34.46l-.36.47a1.5,1.5,0,0,0-1-.35,1.27,1.27,0,0,0-1.31,1.38,1.3,1.3,0,0,0,1.31,1.45,1.4,1.4,0,0,0,1-.41l.41.43a2,2,0,0,1-1.45.56,2,2,0,0,1,0-4Z"/></g></g></svg>