<svg xmlns="http://www.w3.org/2000/svg" viewBox="0 0 762.52 95.31"><defs><style>.cls-1{fill:#ed1c24;}.cls-2{fill:#78ccc7;}.cls-3{fill:#83142f;}.cls-4{fill:#eb2227;}</style></defs><g id="Layer_2" data-name="Layer 2"><g id="Layer_1-2" data-name="Layer 1"><path class="cls-1" d="M612.13,63V22.32h-4.69l-.45,5.4,0,0c-4.08-4.45-9.29-6.74-16-6.74C578.9,21,571,30.68,571,46.76c0,16.87,7.3,27.29,19.83,27.29,6.61,0,11.9-3.45,16.26-8.37l.06-.07.1,6.85h4.86ZM607,59.47l0,0c-4.27,5.25-9.38,10-15.16,10-10.06,0-15.56-8.93-15.56-22.72,0-13.1,6-21.24,15.65-21.24,6.06,0,10.8,3.56,15.07,8.51l0,0Z"/><path class="cls-1" d="M648.28,25.77c-12.46,0-15.85,11.19-15.85,21.68V72.52h-5V22.32h4.39l.59,9.24C634.62,24.67,641.3,21,648.28,21a26.67,26.67,0,0,1,4.88.3v5a20.23,20.23,0,0,0-4.88-.5"/><path class="cls-1" d="M723.54,65a23.92,23.92,0,0,0,13.86,4.46c7.36,0,11.17-3.67,11.17-9.32,0-14.88-26.68-5.66-26.68-25.1C721.89,26.63,728,21,737.14,21a30.7,30.7,0,0,1,14.29,3.78L749.53,29a26.8,26.8,0,0,0-12.39-3.47c-6.41,0-10.48,3.87-10.48,9.32,0,14.88,26.68,5.26,26.68,25.1,0,8.63-5.72,14.09-15.94,14.09a28.77,28.77,0,0,1-16.11-4.86Z"/><path class="cls-1" d="M494.74,21.75H500L513.7,66.09h.18L526.7,21.75h4.51L544,66.09h.18l13.66-44.34h5.21L546.93,72.59h-5.48L528.94,29.77h-.18L516.34,72.59h-5.47Z"/><path class="cls-1" d="M387,1.31h26.8c16,0,21.8,10.47,21.8,20.65,0,8.44-4.53,17.5-15,20.14l14.72,30.42h-5.94L415.5,42.81H392.29V72.52H387ZM413.61,38c12.08,0,16.61-8.34,16.61-16,0-7.94-4.44-15.77-16.42-15.77H392.29V38Z"/><path class="cls-1" d="M761.86,22.35l-1.28,1.81-1.27-1.81h-.66V26.2h.63V23.33l1.3,1.82,1.3-1.82V26.2h.64V22.35Zm-7,0v.59h1.34V26.2h.66V22.94h1.33v-.59Z"/><polygon class="cls-1" points="27.74 6.34 27.74 72.52 22.54 72.52 22.54 6.34 0 6.34 0 1.32 50.38 1.32 50.38 6.34 27.74 6.34"/><path class="cls-1" d="M75.37,26.63c-12.52,0-15.92,11.25-15.92,21.79v24.1h-5V22.31h4.41l.6,10.14c2.2-6.93,8.91-10.64,15.92-10.64a27,27,0,0,1,4.91.3v5a20.48,20.48,0,0,0-4.91-.5"/><path class="cls-1" d="M222.26,72.52V39.68c0-8.73-3.8-13.75-12.92-13.75-12.31,0-16.62,10.64-16.62,21.49v25.1h-5V22.31h4.41l.6,9.14c2.8-6.33,9.91-10.44,16.92-10.44,11.52,0,17.63,7.13,17.63,18.37V72.52Z"/><path class="cls-1" d="M261.44,25.52c-7.81,0-13.82,5-13.82,13.06s6,12.85,13.82,12.85,13.92-4.82,13.92-12.85-6.11-13.06-13.92-13.06m17.42,48.3c-2.3-2.41-6.2-3.71-12.11-3.71H253.53a10.38,10.38,0,0,0-8.32,10.34,8.61,8.61,0,0,0,2.71,6.33c3.6,3.41,9.81,4,14.82,4s12.12-.6,15.92-4.41a8.93,8.93,0,0,0,2.61-6.33,8.39,8.39,0,0,0-2.41-6.23m3.61,15.57c-4.31,4.41-11.82,5.92-19.83,5.92-7.61,0-14.42-1.51-18.63-5.82a12.52,12.52,0,0,1-3.5-9A13.07,13.07,0,0,1,248,68.7a9.12,9.12,0,0,1-6.31-8.23c0-4.32,2.2-7.33,6-9.54a16.61,16.61,0,0,1-5-12.35c0-10.85,8.21-17.57,18.73-17.57a20.91,20.91,0,0,1,11.72,3.41c1.3-4.32,5.6-6.83,10.11-6.83.6,0,1.3.2,1.9.2v4.32c-.6,0-1.3-.2-1.9-.2a6.59,6.59,0,0,0-6.91,5.42,16.94,16.94,0,0,1,4,11.25C280.37,49.42,272,56,261.44,56a21.63,21.63,0,0,1-10-2.31c-2.6,1-5,3.11-5,6.23a5,5,0,0,0,3.51,4.71,21.38,21.38,0,0,0,6.71.81h10.92c6.41,0,11.52,1.6,14.72,4.92a12.89,12.89,0,0,1,4,9.74,13.3,13.3,0,0,1-3.8,9.34"/><path class="cls-1" d="M306,73.12c-6.41,0-10-3.31-10-10.64V0h5V62.28c0,3.41,1,6,5.21,6a27,27,0,0,0,4.31-.2v4.42a15.71,15.71,0,0,1-4.51.6"/><path class="cls-1" d="M338.84,25.72C328.53,25.72,322,34.06,322,44h33.15c-.2-9.54-6.11-18.28-16.33-18.28m21.34,22.9H321.92a24.17,24.17,0,0,0,5.21,15.06A15,15,0,0,0,339.25,69a14.81,14.81,0,0,0,10.91-4.43A14,14,0,0,0,354,57.46h5.21A18.77,18.77,0,0,1,353.57,68a20,20,0,0,1-14.32,5.82,20.29,20.29,0,0,1-15.93-7.13c-4.11-4.82-6.41-11.44-6.41-19.07,0-6.33,1-12.56,4.91-17.88a20.34,20.34,0,0,1,17-8.73c13.53,0,21.44,11.64,21.44,24.29,0,1.21-.1,2.11-.1,3.32"/><path class="cls-1" d="M465.16,25.72c-10.32,0-16.83,8.34-16.83,18.28h33.15c-.2-9.54-6.1-18.28-16.32-18.28m21.33,22.9H448.23a24.23,24.23,0,0,0,5.21,15.06A15.05,15.05,0,0,0,465.56,69a14.83,14.83,0,0,0,10.92-4.43,14,14,0,0,0,3.8-7.12h5.21A18.66,18.66,0,0,1,479.88,68a20,20,0,0,1-14.32,5.82,20.31,20.31,0,0,1-15.93-7.13c-4.1-4.82-6.41-11.44-6.41-19.07,0-6.33,1-12.56,4.91-17.88a20.37,20.37,0,0,1,17-8.73c13.52,0,21.43,11.64,21.43,24.29,0,1.21-.1,2.11-.1,3.32"/><path class="cls-1" d="M101.85,73.12c-6.41,0-10-3.31-10-10.64V22.31h5v40c0,3.41,1,6,5.2,6a27,27,0,0,0,4.31-.2v4.42a15.71,15.71,0,0,1-4.51.6"/><path class="cls-1" d="M709.19,68.13c-4.49,0-5.61-2.75-5.64-6.37V0h-5.43V28.09s0-.34,0-.35c-4.31-4.42-9.81-6.69-16.91-6.69-12.72,0-21,10-21,25.94,0,16.75,7.72,27.09,20.94,27.09,7,0,12.57-3.42,17.17-8.31l.07-.06h.1l.08,0c1.13,5.24,4.77,7.66,10.46,7.66a16.81,16.81,0,0,0,4.88-.66V67.91A28.78,28.78,0,0,1,709.19,68.13Zm-11.07-8.52,0,0c-4.5,5.21-9.91,9.91-16,9.91-10.62,0-16.43-8.87-16.43-22.56,0-13,6.31-21.41,16.53-21.41,6.4,0,11.41,3.53,15.91,8.45l0,0Z"/><path class="cls-2" d="M171.61,26.81,143.44,65.65,115.26,26.81h56.35m6-4.6H109.21a1.51,1.51,0,0,0-1.22,2.4l34.23,47.18a1.49,1.49,0,0,0,2.43,0l34.23-47.18a1.51,1.51,0,0,0-1.22-2.4Z"/><path class="cls-3" d="M143.44,65.65,115.26,26.81h56.35Zm-19.29-34.3L143.44,58l19.29-26.6Z"/><path class="cls-4" d="M124.15,31.35,143.44,58l19.29-26.6Z"/></g></g></svg>